<svg id="Ebene_1" xmlns="http://www.w3.org/2000/svg" viewBox="0 0 25 26"><style>.st0{fill:#1d1d1b}</style><path class="st0" d="M21.3 26H3.7c-2 0-3.7-1.7-3.7-3.8V3.8C0 1.7 1.7 0 3.7 0h17.6c2 0 3.7 1.7 3.7 3.8v18.3c0 2.2-1.7 3.9-3.7 3.9zM3.7 1.9c-1 0-1.9.9-1.9 1.9v18.3c0 1.1.8 1.9 1.9 1.9h17.6c1 0 1.9-.9 1.9-1.9V3.8c0-1.1-.8-1.9-1.9-1.9H3.7z"/><path class="st0" d="M24.1 5.3H.9V3.1c0-1.7 1.3-3 3-3H21c1.7 0 3 1.3 3 3v2.2zM10 8h5v3.3h-5zM16.4 8h5v3.3h-5zM3.7 8h5v3.3h-5zM3.7 13h5v3.3h-5zM10 13h5v3.3h-5zM16.4 13h5v3.3h-5z"/><g><path class="st0" d="M3.7 18h5v3.3h-5zM10 18h5v3.3h-5z"/></g></svg>