<svg version="1.1" id="Ebene_1" xmlns="http://www.w3.org/2000/svg" xmlns:xlink="http://www.w3.org/1999/xlink" x="0" y="0" viewBox="0 0 64.2 22.8" xml:space="preserve" enable-background="new 0 0 64.2 22.8"><style type="text/css"/><g><path d="M32.1,7.6c-0.5,0-1.2,0.3-1.3,1.4h2.4V9C33.2,8.1,32.8,7.6,32.1,7.6z" fill="#676767"/><path d="M0,0v18h45V0H0z M12.8,12.4h-1.4V7.3l-2,4H8.2l-2-4v5.1H4.7V4.6h1.5l2.5,4.9l2.5-4.9h1.5V12.4z M19.1,9.4 c0,0.1,0,0.3,0,0.4v0h-3.8c0,1,0.6,1.6,1.6,1.6c0.7,0,1.3-0.3,1.6-0.5l0.4,0.9c-0.5,0.4-1.1,0.7-2.1,0.7c-2,0-3-1.2-3-3 c0-1.7,1-3,2.8-3C18.3,6.5,19.1,7.9,19.1,9.4L19.1,9.4z M22.7,7.9c-1.1,0-1.3,0.6-1.3,1.4v3.1h-1.5V6.7h1.4l0.1,0.8 c0.4-0.5,0.7-0.8,1.5-0.8H23l0.1,1.2H22.7z M27.4,12.4l-1.9-2.8L25,9.9v2.5h-1.5v-8H25v4.5l2.1-2.2H29L26.7,9l2.5,3.4H27.4z M34.6,9.4c0,0.1,0,0.3,0,0.4v0h-3.8c0,1,0.6,1.6,1.6,1.6c0.7,0,1.3-0.3,1.6-0.5l0.4,0.9c-0.5,0.4-1.1,0.7-2.1,0.7c-2,0-3-1.2-3-3 c0-1.7,1-3,2.8-3C33.8,6.5,34.6,7.9,34.6,9.4L34.6,9.4z M40.8,12.4h-1.5V9.1c0-0.8,0-1.5-0.9-1.5c-0.6,0-1.2,0.5-1.4,0.9v3.9h-1.5 V6.7h1.3l0.1,0.8c0.5-0.5,1.2-1,2-1c1.4,0,2,1,2,2.5V12.4z" fill="#676767"/><path d="M16.6,7.6c-0.5,0-1.2,0.3-1.3,1.4h2.4V9C17.7,8.1,17.3,7.6,16.6,7.6z" fill="#676767"/></g><rect x="59.2" width="5" height="18" fill="#676767"/><path d="M59.4,0h-15c0,0,0,0,0,0v21.9c0,0.4,0.2,0.7,0.5,0.8c0.3,0.1,0.7,0.1,1-0.2l6-5.7l6,5.7	c0.2,0.2,0.4,0.2,0.6,0.2c0.1,0,0.2,0,0.4-0.1c0.3-0.1,0.5-0.5,0.5-0.8V0z M54.8,9.3h-2.1v2.1c0,0.5-0.4,0.8-0.8,0.8	c-0.5,0-0.8-0.4-0.8-0.8V9.3H49c-0.5,0-0.8-0.4-0.8-0.8s0.4-0.8,0.8-0.8h2.1V5.6c0-0.5,0.4-0.8,0.8-0.8c0.5,0,0.8,0.4,0.8,0.8v2.1	h2.1c0.5,0,0.8,0.4,0.8,0.8S55.3,9.3,54.8,9.3z" fill="#010202"/></svg>