<svg xmlns="http://www.w3.org/2000/svg" version="1" viewBox="-3.1083981 -3.1083981 220.7724562 109.8300662"><path d="M0 44.53v13.175h214.556V44.53H0" fill="#fff"/><path d="M0 0v50.078h214.556V0H0" fill="#036"/><path d="M0 103.613h189.268c14.072 0 25.288-11.548 25.288-25.078v-25H0v50.078" fill="#ff7300"/><path d="M19.57 92.998h-.37c-4.356 0-8.106-3.027-8.106-8.066 0-3.1 4.677-3.1 4.677 0 0 2.177 1.418 3.427 3.43 3.427h.37c2.012 0 3.545-1.046 3.545-3.062 0-5.044-11.738-5.532-11.738-12.905v-.855c0-4.307 4.316-6.89 7.822-6.89h.37c4.15 0 7.862 2.583 7.862 6.45 0 2.984-4.64 3.072-4.64.123 0-1.05-1.288-1.933-3.222-1.933h-.37c-1.773 0-3.14.972-3.14 2.5v.606c0 3.183 11.728 4.6 11.728 12.905 0 4.595-3.59 7.7-8.218 7.7M39.85 92.998h-.368c-4.433 0-8.06-3.428-8.06-7.9V72.51c0-4.473 3.627-7.862 8.06-7.862h.367c4.07 0 7.46 2.784 7.982 6.734.044.127.044.244.044.405 0 1.45-1.216 2.26-2.378 2.26-1.055 0-2.06-.65-2.26-2.02-.245-1.656-1.656-2.74-3.39-2.74h-.366c-1.89 0-3.422 1.367-3.422 3.223v12.588c0 1.89 1.567 3.26 3.422 3.26h.367c1.732 0 3.143-1.092 3.387-2.743.2-1.367 1.245-2.01 2.26-2.01 1.207 0 2.38.81 2.38 2.26v.44c-.61 3.87-3.956 6.693-8.028 6.693M63.037 72.554c0-1.9-1.494-3.267-3.39-3.267h-.365c-1.89 0-3.384 1.41-3.384 3.267v12.5c0 1.9 1.53 3.305 3.384 3.305h.366c1.895 0 3.39-1.407 3.39-3.262V72.554zm-3.39 20.444h-.365c-4.438 0-8.06-3.467-8.06-7.9V72.554c0-4.478 3.622-7.906 8.06-7.906h.366c4.473 0 8.067 3.428 8.067 7.906v12.5c0 4.477-3.594 7.944-8.067 7.944M80.938 92.998h-.362c-4.433 0-8.066-3.623-8.066-8.066V66.987c0-1.577 1.172-2.34 2.344-2.34 1.167 0 2.338.763 2.338 2.34v17.945c0 1.855 1.53 3.427 3.384 3.427h.362c1.9 0 3.432-1.534 3.432-3.428V66.987c0-1.577 1.167-2.34 2.34-2.34 1.17 0 2.333.763 2.333 2.34v17.945c0 4.443-3.623 8.066-8.106 8.066M105.576 69.526h-3.222v21.138c0 1.572-1.172 2.334-2.344 2.334-1.162 0-2.334-.762-2.334-2.334V69.526h-3.223c-1.533 0-2.34-1.167-2.34-2.338 0-1.128.807-2.295 2.34-2.295h11.123c1.577 0 2.344 1.167 2.344 2.294 0 1.172-.767 2.34-2.344 2.34M127.363 92.754H116.87c-1.49 0-2.373-1.406-2.373-2.783 0-.517.078-1.005.357-1.445l9.16-14.755c.478-.816.478-1.26.478-1.856v-.332c0-1.21-1.045-2.295-2.417-2.295h-.122c-1.328 0-2.334 1.05-2.334 2.295v.444c0 1.534-1.173 2.3-2.345 2.3-1.167 0-2.338-.766-2.338-2.3v-.6c0-3.916 3.183-6.778 7.016-6.778h.122c3.784 0 7.095 2.823 7.095 6.778l-.04.44c0 1.532-.56 2.787-1.415 4.19l-7.373 12.06h7.02c1.57 0 2.335 1.17 2.335 2.304 0 1.162-.766 2.334-2.334 2.334M145.78 87.23h-.883v3.434c0 1.572-1.17 2.334-2.338 2.334-1.173 0-2.335-.762-2.335-2.334V87.23h-6.338c-1.612 0-2.617-.882-2.617-2.46 0-.4.078-.927.234-1.293l7.55-17.417c.443-1.01 1.25-1.412 2.054-1.412 1.206 0 2.417.928 2.417 2.256 0 .327-.04.645-.195 1.01l-6.66 14.68h3.555v-2.34c0-1.533 1.162-2.344 2.334-2.344 1.166 0 2.337.772 2.337 2.344v2.34h.884c1.578 0 2.34 1.127 2.34 2.3 0 1.17-.762 2.337-2.34 2.337" fill="#036"/><path d="M21.948 19.946l-2.54 8.51h5.08l-2.54-8.51zM29.57 39.63c-.888 0-1.816-.49-2.138-1.66l-1.494-4.874h-7.98L16.46 37.97c-.356 1.17-1.284 1.66-2.178 1.66-1.206 0-2.417-.89-2.417-2.267 0-.234 0-.478.122-.76l7.378-23.35c.567-1.817 1.577-1.98 2.583-1.98.962 0 1.978.163 2.583 1.98l7.335 23.35c.088.282.122.526.122.76 0 1.377-1.206 2.266-2.417 2.266M43.73 39.63h-.36c-4.434 0-8.067-3.64-8.067-8.068V13.62c0-1.577 1.172-2.344 2.34-2.344 1.17 0 2.337.767 2.337 2.344v17.944c0 1.856 1.534 3.428 3.39 3.428h.36c1.9 0 3.428-1.538 3.428-3.428V13.62c0-1.577 1.172-2.344 2.344-2.344 1.162 0 2.334.767 2.334 2.344v17.944c0 4.43-3.633 8.067-8.106 8.067M68.74 16.157h-3.232v21.128c0 1.577-1.172 2.344-2.334 2.344-1.172 0-2.344-.768-2.344-2.345V16.157h-3.223c-1.533 0-2.338-1.172-2.338-2.34 0-1.127.804-2.298 2.337-2.298H68.74c1.568 0 2.334 1.17 2.334 2.298 0 1.167-.766 2.34-2.334 2.34M85.688 19.185c0-1.9-1.49-3.272-3.388-3.272h-.362c-1.9 0-3.383 1.416-3.383 3.272v12.5c0 1.89 1.528 3.305 3.383 3.305h.362c1.9 0 3.388-1.416 3.388-3.27V19.184zM82.3 39.63h-.362c-4.438 0-8.066-3.473-8.066-7.91V19.184c0-4.483 3.628-7.91 8.066-7.91h.362c4.477 0 8.07 3.427 8.07 7.91v12.5c0 4.472-3.593 7.944-8.07 7.944" fill="#fff"/></svg>
