<svg version="1.1" id="icons" xmlns="http://www.w3.org/2000/svg" xmlns:xlink="http://www.w3.org/1999/xlink" x="0" y="0" viewBox="0 0 22 18" xml:space="preserve" enable-background="new 0 0 22 18"><g><path d="M20.3,3C20.3,3,20.3,3,20.3,3l-18.6,0c-0.8,0-1.4-0.6-1.4-1.4c0-0.8,0.6-1.4,1.4-1.4c0,0,0,0,0,0l18.6,0 c0.8,0,1.4,0.6,1.4,1.4C21.7,2.4,21.1,3,20.3,3z"/></g><g><path d="M20.3,10.4L1.7,10.4c-0.8,0-1.4-0.6-1.4-1.4c0-0.8,0.6-1.4,1.4-1.4l18.6-0.1c0.8,0,1.4,0.6,1.4,1.4 C21.7,9.7,21.1,10.4,20.3,10.4z"/></g><g><path d="M20.3,17.9C20.3,17.9,20.3,17.9,20.3,17.9l-18.6,0c-0.8,0-1.4-0.6-1.4-1.4c0-0.8,0.6-1.4,1.4-1.4c0,0,0,0,0,0l18.6,0 c0.8,0,1.4,0.6,1.4,1.4C21.7,17.3,21.1,17.9,20.3,17.9z"/></g></svg>