<svg version="1.1" id="icons" xmlns="http://www.w3.org/2000/svg" xmlns:xlink="http://www.w3.org/1999/xlink" x="0" y="0" viewBox="0 0 27 27" xml:space="preserve" enable-background="new 0 0 27 27"><path d="M26.4,24l-7.2-7.2c1.2-1.7,2-3.8,2-6.1c0-5.8-4.7-10.5-10.5-10.5C4.9,0.3,0.3,4.9,0.3,10.7s4.7,10.5,10.5,10.5	c2.3,0,4.4-0.7,6.1-2l7.2,7.2c0.2,0.2,0.5,0.3,0.8,0.3c0.3,0,0.6-0.1,0.8-0.3l0.8-0.8c0.2-0.2,0.3-0.5,0.3-0.8	C26.7,24.5,26.6,24.2,26.4,24z M2.9,10.7c0-4.3,3.5-7.9,7.9-7.9c4.3,0,7.9,3.5,7.9,7.9s-3.5,7.9-7.9,7.9C6.4,18.6,2.9,15.1,2.9,10.7	z"/></svg>