<svg version="1.1" id="icons" xmlns="http://www.w3.org/2000/svg" xmlns:xlink="http://www.w3.org/1999/xlink" x="0" y="0" viewBox="0 0 42 29" xml:space="preserve" enable-background="new 0 0 42 29"><path d="M36.9,17.8v-3l-6.1-3.5V0.4H18.5v7.7l-2.5,0l-3.7-2.7L8.5,8.2v5.5l-3.7-2.5l-4.6,3.2v10.6h18.3h12.3h0.3	c-0.1-0.4-0.1-0.8-0.1-1.3C30.9,20.4,33.6,17.8,36.9,17.8z M7.2,22.5H2.4v-1.9h4.7V22.5z M7.2,19.1H2.4v-1.9h4.7V19.1z M13.5,22.6	h-2.5V11.8h2.5V22.6z M23.1,18.8H20v-3.1h3.1V18.8z M23.1,12.7H20V9.6h3.1V12.7z M23.1,6.6H20V3.5h3.1V6.6z M29.2,18.8h-3.1v-3.1	h3.1V18.8z M29.2,12.7h-3.1V9.6h3.1V12.7z M29.2,6.6h-3.1V3.5h3.1V6.6z"/><path d="M36.9,18.7c-2.7,0-4.9,2.2-4.9,4.9c0,2.7,2.2,4.9,4.9,4.9c2.7,0,4.9-2.2,4.9-4.9C41.8,20.9,39.6,18.7,36.9,18.7z M37.4,26.2	c0,0.3-0.3,0.6-0.6,0.6c-0.3,0-0.6-0.2-0.6-0.6v-3c0-0.3,0.3-0.6,0.6-0.6c0.3,0,0.6,0.2,0.6,0.6V26.2z M36.9,22	c-0.4,0-0.8-0.4-0.8-0.8s0.4-0.8,0.8-0.8s0.8,0.4,0.8,0.8S37.3,22,36.9,22z"/></svg>