<svg version="1.1" id="Zeit" xmlns="http://www.w3.org/2000/svg" xmlns:xlink="http://www.w3.org/1999/xlink" x="0" y="0" viewBox="0 0 40 40" enable-background="new 0 0 40 40" xml:space="preserve"><path fill-rule="evenodd" clip-rule="evenodd" fill="#1986D8" d="M36,0H4C1.8,0,0,1.8,0,4v32c0,2.2,1.8,4,4,4h32c2.2,0,4-1.8,4-4V4	C40,1.8,38.2,0,36,0z M20.1,33.5c-7.5,0-13.6-6.1-13.6-13.6c0-7.5,6.1-13.6,13.6-13.6c7.5,0,13.6,6.1,13.6,13.6	C33.7,27.4,27.6,33.5,20.1,33.5z"/><path fill-rule="evenodd" clip-rule="evenodd" fill="#1986D8" d="M20.1,9.1c-6,0-10.8,4.8-10.8,10.8s4.8,10.8,10.8,10.8	c6,0,10.8-4.8,10.8-10.8S26.1,9.1,20.1,9.1z M26.6,25c-0.3,0.4-0.9,0.5-1.4,0.2l-5.8-4.3c-0.2-0.2-0.3-0.3-0.4-0.6	c0-0.2,0-0.5,0-0.7v-6.5c0-0.7,0.3-1.4,1-1.4s1,0.6,1,1.4v6.5c0,0,0,0,0,0l5.4,4C26.9,23.9,27,24.6,26.6,25z"/></svg>