<svg version="1.1" id="Ebene_1" xmlns="http://www.w3.org/2000/svg" xmlns:xlink="http://www.w3.org/1999/xlink" x="0" y="0" viewBox="0 0 12.7 16" xml:space="preserve" enable-background="new 0 0 12.7 16"><style type="text/css">.st0{fill:#010202}</style><g><path class="st0" d="M5.5,8l6.9-6.2c0.4-0.4,0.4-1,0.1-1.4c-0.4-0.4-1-0.4-1.4-0.1L3.4,7.2C3.1,7.4,3,7.7,3,8 c0,0.3,0.1,0.6,0.3,0.8l7.7,6.9c0.2,0.2,0.4,0.3,0.7,0.3c0.3,0,0.5-0.1,0.7-0.3c0.4-0.4,0.3-1-0.1-1.4L5.5,8z"/><path class="st0" d="M1,0C1,0,1,0,1,0C0.5,0,0,0.4,0,1l0,14c0,0.6,0.4,1,1,1c0,0,0,0,0,0c0.6,0,1-0.4,1-1L2,1C2,0.4,1.6,0,1,0z"/></g></svg>