<svg version="1.1" id="Ebene_1" xmlns="http://www.w3.org/2000/svg" xmlns:xlink="http://www.w3.org/1999/xlink" x="0" y="0" viewBox="0 0 12.7 16" xml:space="preserve" enable-background="new 0 0 12.7 16"><style type="text/css">.st0{fill:#010202}</style><g><path class="st0" d="M9.4,7.2L1.7,0.3c-0.4-0.4-1-0.3-1.4,0.1c-0.4,0.4-0.3,1,0.1,1.4L7.3,8l-6.9,6.2c-0.4,0.4-0.4,1-0.1,1.4 C0.5,15.9,0.7,16,1,16c0.2,0,0.5-0.1,0.7-0.3l7.7-6.9C9.6,8.6,9.7,8.3,9.7,8C9.7,7.7,9.6,7.4,9.4,7.2z"/><path class="st0" d="M11.7,0C11.7,0,11.7,0,11.7,0c-0.6,0-1,0.4-1,1l0,14c0,0.6,0.4,1,1,1c0,0,0,0,0,0c0.6,0,1-0.4,1-1l0-14 C12.7,0.4,12.3,0,11.7,0z"/></g></svg>