<svg version="1.1" id="Ebene_1" xmlns="http://www.w3.org/2000/svg" xmlns:xlink="http://www.w3.org/1999/xlink" x="0" y="0" width="150" height="16" viewBox="0 0 150 16" enable-background="new 0 0 150 16" xml:space="preserve"><g><path fill="#9E9E9E" d="M5.149,8.85h-3.19l-0.958,2.542H0.033L3.025,3.36h1.144l2.828,8.031H6.029L5.149,8.85z M4.83,8.113 L3.608,4.285L2.255,8.113H4.83z"/><path fill="#9E9E9E" d="M7.821,3.36h1.991c2.772,0,4.797,0.968,4.797,4.071c0,2.673-1.716,3.96-4.247,3.96H7.821V3.36z M8.767,10.556h1.694c1.969,0,3.135-1.023,3.135-3.103c0-2.53-1.463-3.268-3.664-3.268H8.767V10.556z"/><path fill="#9E9E9E" d="M20.89,11.392L19.8,8.894c-0.209-0.473-0.407-0.924-0.572-1.199c-0.154,0.011-0.737,0.022-0.924,0.022 c-0.099,0-1.43-0.044-1.43-0.044v3.719h-0.946V3.36h2.542c1.914,0,3.125,0.275,3.125,2.09c0,0.99-0.484,1.771-1.518,2.046 c-0.011,0,0.407,0.682,0.594,1.089l1.298,2.805H20.89z M16.874,6.87l1.914,0.022c1.452,0.011,1.871-0.462,1.871-1.419 c0-0.836-0.418-1.287-1.65-1.287h-2.134V6.87z"/><path fill="#9E9E9E" d="M27.622,7.673h-3.564v2.883h3.95l-0.088,0.836h-4.808V3.36h4.731l-0.066,0.825h-3.718v2.663h3.564V7.673z"/><path fill="#9E9E9E" d="M29.26,10.082c0.715,0.353,1.639,0.617,2.662,0.617c1.145,0,1.75-0.507,1.75-1.596 c0-0.649-0.264-1.089-1.287-1.342L30.8,7.365c-1.111-0.275-1.804-0.869-1.804-1.937c0-1.562,1.166-2.233,2.926-2.233 c0.979,0,1.859,0.242,2.41,0.583l-0.275,0.748c-0.429-0.231-1.276-0.506-2.145-0.506c-1.276,0-1.947,0.429-1.947,1.353 c0,0.627,0.418,0.968,1.188,1.155l1.507,0.363c1.199,0.286,1.969,0.869,1.969,2.178c0,1.672-1.122,2.442-2.761,2.442 c-1.397,0-2.398-0.363-2.883-0.66L29.26,10.082z"/><path fill="#9E9E9E" d="M35.849,10.082c0.715,0.353,1.639,0.617,2.662,0.617c1.145,0,1.75-0.507,1.75-1.596 c0-0.649-0.264-1.089-1.287-1.342l-1.584-0.396c-1.111-0.275-1.804-0.869-1.804-1.937c0-1.562,1.166-2.233,2.926-2.233 c0.979,0,1.859,0.242,2.41,0.583l-0.275,0.748C40.217,4.295,39.37,4.021,38.5,4.021c-1.276,0-1.947,0.429-1.947,1.353 c0,0.627,0.418,0.968,1.188,1.155l1.507,0.363c1.199,0.286,1.969,0.869,1.969,2.178c0,1.672-1.122,2.442-2.761,2.442 c-1.397,0-2.398-0.363-2.883-0.66L35.849,10.082z"/><path fill="#9E9E9E" d="M42.449,3.36h1.991c2.772,0,4.797,0.968,4.797,4.071c0,2.673-1.716,3.96-4.247,3.96h-2.542V3.36z M43.395,10.556h1.694c1.969,0,3.135-1.023,3.135-3.103c0-2.53-1.463-3.268-3.664-3.268h-1.166V10.556z"/><path fill="#9E9E9E" d="M54.913,8.85h-3.19l-0.958,2.542h-0.968l2.992-8.031h1.144l2.828,8.031h-0.968L54.913,8.85z M54.593,8.113 l-1.221-3.829l-1.353,3.829H54.593z"/><path fill="#9E9E9E" d="M56.782,3.36h5.754v0.825h-2.409v7.206H59.18V4.186h-2.398V3.36z"/><path fill="#9E9E9E" d="M67.815,7.673h-3.564v2.883h3.95l-0.088,0.836h-4.808V3.36h4.731L67.97,4.186h-3.719v2.663h3.564V7.673z"/><path fill="#9E9E9E" d="M74.823,11.392l-4.467-6.656v6.656h-0.891V3.36h1.045l4.488,6.667V3.36h0.88v8.031H74.823z"/><path fill="#9E9E9E" d="M84.832,3.36h1.002l-2.949,8.031h-1.023L78.924,3.36h1.023l2.432,6.986 C82.379,10.347,83.975,5.748,84.832,3.36z"/><path fill="#9E9E9E" d="M86.295,7.387c0-2.498,1.441-4.192,3.928-4.192s3.916,1.694,3.916,4.192c0,2.354-1.342,4.125-3.916,4.125 S86.295,9.741,86.295,7.387z M87.318,7.387c0,1.848,0.879,3.312,2.904,3.312c2.023,0,2.893-1.464,2.893-3.312 c0-2.002-0.957-3.367-2.893-3.367C88.286,4.021,87.318,5.363,87.318,7.387z"/><path fill="#9E9E9E" d="M100.815,11.392l-4.467-6.656v6.656h-0.892V3.36h1.046l4.488,6.667V3.36h0.88v8.031H100.815z"/><path fill="#9E9E9E" d="M105.5,7.387c0-2.498,1.441-4.192,3.928-4.192s3.916,1.694,3.916,4.192c0,2.354-1.342,4.125-3.916,4.125 S105.5,9.741,105.5,7.387z M106.523,7.387c0,1.848,0.88,3.312,2.904,3.312s2.894-1.464,2.894-3.312 c0-2.002-0.957-3.367-2.894-3.367C107.492,4.021,106.523,5.363,106.523,7.387z"/><path fill="#9E9E9E" d="M115.565,11.392h-0.892V3.36h1.035l2.992,6.172l2.971-6.172h0.989v8.031h-0.892V5.077l-2.541,5.335h-1.078 l-2.585-5.369V11.392z"/><path fill="#9E9E9E" d="M129.602,11.392l-4.467-6.656v6.656h-0.891V3.36h1.045l4.489,6.667V3.36h0.88v8.031H129.602z"/><path fill="#9E9E9E" d="M136.741,7.673h-3.564v2.883h3.949l-0.088,0.836h-4.808V3.36h4.73l-0.065,0.825h-3.719v2.663h3.564V7.673z"/><path fill="#9E9E9E" d="M142.746,8.85h-3.19l-0.957,2.542h-0.968l2.992-8.031h1.145l2.827,8.031h-0.968L142.746,8.85z M142.428,8.113l-1.222-3.829l-1.354,3.829H142.428z"/></g></svg>