<svg xmlns="http://www.w3.org/2000/svg" id="Ebene_1" viewBox="0 0 140 23"><style>.st0{fill:#fff}</style><path d="M54.9 2.1C54.9.9 55.9 0 57 0c1.2 0 2.1.9 2.1 2.1 0 1.2-1 2.1-2.1 2.1s-2.1-.9-2.1-2.1M88.5 16.1c0-1.2 1-2.1 2.1-2.1 1.2 0 2.1.9 2.1 2.1 0 1.2-1 2.1-2.1 2.1-1.2 0-2.1-.9-2.1-2.1M20 5.2c-3.9 0-6.7 2.8-6.7 6.6s2.8 6.6 6.7 6.6c3.9 0 6.7-2.8 6.7-6.6 0-3.9-2.8-6.6-6.7-6.6m0 10c-1.8 0-3.1-1.4-3.1-3.5s1.3-3.5 3.1-3.5 3.1 1.4 3.1 3.5-1.2 3.5-3.1 3.5zM50.8 12c-.2-.3-.3-.5-.5-.7l-.1-.1.1-.1c.2-.2.4-.4.5-.7l3.4-5H50l-2.6 3.9c-.1.2-.4.3-.9.3h-.6V2.2C45.9.7 45 .5 44 .5h-1.7V18H46v-5.3h.3c.4 0 .7 0 .8.3l2 3.8c.6 1 1.1 1.2 2.2 1.2h2.8L52 14.6 50.8 12M68.7 5.1c-1.9 0-3.1.8-3.7 1.5l-.2.2-.1-.3c-.2-.7-.9-1.2-1.9-1.2h-1.7V18h3.7v-5.8c0-.6.1-1.1.2-1.5.4-1.4 1.5-2.2 3-2.2 1.1 0 1.6.6 1.6 2.1v5.5c0 1.3.6 1.9 1.9 1.9h1.7V9.9c0-3.1-1.6-4.8-4.5-4.8M57.1 5.4h-1.7V18.1H59V7.4c0-1.4-.6-2-1.9-2M34.3 5.2c-3.9 0-6.7 2.8-6.7 6.6s2.8 6.6 6.7 6.6c3.9 0 6.7-2.8 6.7-6.6.1-3.9-2.8-6.6-6.7-6.6m0 10c-1.8 0-3.1-1.4-3.1-3.5s1.3-3.5 3.1-3.5 3.1 1.4 3.1 3.5c.1 2.1-1.2 3.5-3.1 3.5zM112.7 5.2c-3.9 0-6.7 2.8-6.7 6.6s2.8 6.6 6.7 6.6c3.9 0 6.7-2.8 6.7-6.6 0-3.9-2.8-6.6-6.7-6.6m0 10c-1.8 0-3.1-1.4-3.1-3.5s1.3-3.5 3.1-3.5 3.1 1.4 3.1 3.5-1.2 3.5-3.1 3.5zM85.4 5.4c-.7 0-1.2.3-1.5.8l-.1.2-.2-.1c-.6-.5-1.6-1.1-3.4-1.1-3.4 0-5.7 2.5-5.7 6.3s2.4 6.4 5.8 6.4c1.2 0 2.1-.3 2.8-.8l.3-.2v.4c0 1.7-1.1 2.6-3.1 2.6-1 0-1.9-.2-2.5-.4-.8-.2-1.2 0-1.5.7l-.3.6-.4 1 .3.1c1.3.7 3 1.1 4.5 1.1 3.1 0 6.7-1.6 6.7-6V5.4h-1.7m-4.5 9.3c-2 0-2.7-1.7-2.7-3.3 0-.7.2-3 2.5-3 1.2 0 2.7.3 2.7 3.1.1 2.6-1.3 3.2-2.5 3.2zM10.2 9.1l-.6-.3.5-.4c.5-.5 1.5-1.5 1.5-3.3C11.6 2.3 9.4.6 6.1.6H1.8C.8.6 0 1.4 0 2.4V18h6.2c3.7 0 6.1-2 6.1-5.1 0-1.7-.8-3.1-2.1-3.8M3.4 5.6v-.9c0-.8.3-1.2 1.1-1.2H6c1.3 0 2.1.8 2.1 2.1 0 1-.5 2.1-2 2.1H3.4V5.6zm3 9.5h-3v-3.5c0-.8.3-1.1.9-1.2h2c1.4 0 2.4.9 2.4 2.4.1 1.4-.8 2.3-2.3 2.3zM135.7 5.2c-1.5 0-3 .7-3.9 1.9l-.3.3-.2-.4c-.7-1.2-1.8-1.8-3.5-1.8s-2.8.9-3.4 1.5l-.2.3-.2-.5c-.2-.7-.8-1.1-1.8-1.1h-1.5V18h3.5v-5.6c0-.5.1-1 .2-1.5.3-1.3 1.2-2.8 2.8-2.6 1 .1 1.4.8 1.4 2.2V18h3.5v-5.6c0-.6.1-1.1.2-1.5.3-1.3 1.2-2.6 2.7-2.6 1.1 0 1.5.6 1.5 2.2v5.6c0 1.3.6 1.8 1.9 1.8h1.6V9.8c0-3-1.4-4.6-4.3-4.6M104 13.7s-1.5 1.6-3.5 1.6c-1.8 0-3.6-1.1-3.6-3.5 0-2.1 1.4-3.6 3.4-3.6.7 0 1.4.2 1.5.6v.1c.3.9 1.1.9 1.2.9h1.9V8.1c0-2.2-2.8-3-4.7-3-4 0-7 2.8-7 6.6s2.9 6.6 6.9 6.6c3.5 0 5.4-2.2 5.4-2.3l.1-.1-1.5-2.5-.1.3" class="st0"/></svg>