<svg xmlns="http://www.w3.org/2000/svg" width="128" height="23"><rect id="backgroundrect" width="100%" height="100%" fill="none"/><style>.st0{fill:#2d2d2d}.st1{fill:#ffb200}.st2{fill:#fff}</style><g class="currentLayer"><path id="svg_1" d="M124.3 3.3c-2.2-2.1-5.2-3.3-8.5-3.3H11.9C8.6 0 5.6 1.2 3.4 3.3 1.2 5.4 0 8.3 0 11.5c0 3.2 1.2 6.1 3.4 8.2 2.2 2.1 5.2 3.3 8.5 3.3h103.9c3.3 0 6.3-1.2 8.5-3.3 2.2-2.1 3.4-5 3.4-8.2 0-3.2-1.2-6.1-3.4-8.2z" class="st0"/><g id="svg_2"><path id="svg_3" d="M123.6 3.9c-2-1.9-4.8-3-7.8-3H51.6c4.2 1.7 7 5.7 7 10.6 0 4.9-2.8 8.9-7 10.6h64.1c3 0 5.8-1.1 7.8-3s3.1-4.6 3.1-7.6c.1-2.9-1-5.6-3-7.6z" class="st1"/></g><g id="welt.de"><path id="svg_4" d="M70.4 14l1.9-6.2h2.5l-3 8.9h-2.7l-2-6-1.9 6h-2.7l-3-8.9H62l1.9 6.2 2-6.2h2.5l2 6.2z" class="st0"/><path id="svg_5" d="M84.3 12.2v.8H78c.3 1.3 1.2 1.8 2.3 1.8.8 0 1.6-.3 2.2-.9l1.4 1.5c-1 .9-2.3 1.3-3.8 1.3-2.7 0-4.6-1.8-4.6-4.6s1.8-4.7 4.5-4.7c2.5.2 4.2 2.1 4.3 4.8zm-6.4-.8h3.9c-.2-1.1-.9-1.8-1.9-1.8-1.1 0-1.8.7-2 1.8z" class="st0"/><path id="svg_6" d="M88.1 16.7h-2.4V4.5h2.4v12.2z" class="st0"/><path id="svg_7" d="M96.5 9.9h-3.2v3.2c0 1.1.6 1.5 1.3 1.5.6 0 1.2-.3 1.7-.6l.9 1.9c-.8.5-1.7.9-2.9.9-2.2 0-3.3-1.2-3.3-3.5V9.9h-1.7V7.8H91V5.2h2.4v2.6h3.2v2.1z" class="st0"/><path id="svg_8" d="M109.4 8.7V4.4h2.4v12.2h-2.3v-1c-.6.7-1.4 1.2-2.7 1.2-2.4 0-4.3-2-4.3-4.7s1.8-4.7 4.3-4.7c1.2.2 2 .6 2.6 1.3zm-4.4 3.5c0 1.4.9 2.4 2.3 2.4s2.3-1 2.3-2.4-.9-2.4-2.3-2.4c-1.5 0-2.3 1.1-2.3 2.4z" class="st0"/><path id="svg_9" d="M122.6 12.2v.8h-6.3c.3 1.3 1.2 1.8 2.3 1.8.8 0 1.6-.3 2.2-.9l1.4 1.5c-1 .9-2.3 1.3-3.8 1.3-2.7 0-4.6-1.8-4.6-4.6s1.8-4.7 4.5-4.7c2.5.2 4.2 2.1 4.3 4.8zm-6.4-.8h3.9c-.2-1.1-.9-1.8-1.9-1.8-1.1 0-1.8.7-2 1.8z" class="st0"/><path id="svg_10" d="M101.5 15.3c.1.9-.7 1.7-1.6 1.6-.8 0-1.4-.7-1.4-1.4-.1-.9.7-1.7 1.6-1.6.8 0 1.4.6 1.4 1.4z" class="st0"/></g><g id="immo"><path id="svg_11" d="M11.7 4.9c0 .9-.7 1.5-1.5 1.5-.9 0-1.5-.7-1.5-1.5 0-.9.7-1.5 1.5-1.5s1.5.7 1.5 1.5zm-.3 11.8H9V7.8h2.4v8.9z" class="st2"/><path id="svg_12" d="M28.2 11v5.6h-2.4v-4.9c0-1.3-.6-2-1.7-2-1 0-1.9.7-1.9 2v4.9h-2.4v-4.9c0-1.3-.6-2-1.7-2-1 0-1.9.7-1.9 2v4.9h-2.4V7.7h2.3v1c.6-.9 1.6-1.3 2.6-1.3 1.3 0 2.3.6 2.9 1.5.7-1.1 1.8-1.5 3-1.5 2.2.2 3.6 1.6 3.6 3.6z" class="st2"/><path id="svg_13" d="M44.9 11v5.6h-2.4v-4.9c0-1.3-.6-2-1.7-2-1 0-1.9.7-1.9 2v4.9h-2.4v-4.9c0-1.3-.6-2-1.7-2-1 0-1.9.7-1.9 2v4.9h-2.4V7.7h2.3v1c.6-.9 1.6-1.3 2.6-1.3 1.3 0 2.3.6 2.9 1.5.7-1.1 1.8-1.5 3-1.5 2.2.2 3.6 1.6 3.6 3.6z" class="st2"/><path id="svg_14" d="M56.4 12.2c0 2.7-2 4.7-4.8 4.7s-4.8-2-4.8-4.7 2-4.7 4.8-4.7c2.7.1 4.8 2.1 4.8 4.7zm-7.2 0c0 1.4 1 2.4 2.3 2.4 1.3 0 2.4-1 2.4-2.4s-1-2.4-2.4-2.4c-1.3 0-2.3 1-2.3 2.4z" class="st2"/></g></g></svg>