<svg xmlns="http://www.w3.org/2000/svg" xmlns:xlink="http://www.w3.org/1999/xlink" viewBox="0 0 242.18 243.43"><defs><style>.cls-1{fill:none}.cls-2{fill:#333}.cls-3{fill:#ffda00}.cls-4{clip-path:url(#clip-path)}.cls-5{opacity:.25}</style><clipPath id="clip-path"><path class="cls-1" d="M94.36,99.73c0-.25,0-.49,0-.74H79.48a5.83,5.83,0,0,0-5.82,5.83v21a5.83,5.83,0,0,0,5.82,5.83h1.42v30.68a4.49,4.49,0,0,0,4.49,4.49h6.83a4.49,4.49,0,0,0,4.49-4.49V134.06a12.46,12.46,0,0,1-2.34-7.27ZM88.79,78.37a9.07,9.07,0,1,0,9.07,9.07A9.08,9.08,0,0,0,88.79,78.37ZM158.3,99H143.38c0,.25,0,.49,0,.74v27.06a12.46,12.46,0,0,1-2.34,7.27v28.31a4.49,4.49,0,0,0,4.49,4.49h6.83a4.49,4.49,0,0,0,4.49-4.49V131.68h1.41a5.83,5.83,0,0,0,5.83-5.83v-21A5.82,5.82,0,0,0,158.3,99Zm-27.43-6.75h-24a7.49,7.49,0,0,0-7.49,7.49v27.06a7.49,7.49,0,0,0,7.49,7.49h1.82v39.45a5.77,5.77,0,0,0,5.77,5.78h8.78a5.77,5.77,0,0,0,5.78-5.78V134.27h1.82a7.49,7.49,0,0,0,7.49-7.49V99.73A7.49,7.49,0,0,0,130.87,92.24Zm-18.32-5.06a11.66,11.66,0,1,0-5.33-9.79A11.61,11.61,0,0,0,112.55,87.18ZM149,96.51a9.09,9.09,0,1,0-6.34-2.58A9,9,0,0,0,149,96.51Z"/></clipPath></defs><title>dichte_mittel</title><g id="Layer_2" data-name="Layer 2"><g id="Layer_1-2" data-name="Layer 1"><polygon class="cls-2" points="173.37 140.26 63.03 140.26 10.55 186.34 227.22 186.34 173.37 140.26"/><path class="cls-3" d="M94.36,99.73c0-.25,0-.49,0-.74H79.48a5.83,5.83,0,0,0-5.82,5.83v21a5.83,5.83,0,0,0,5.82,5.83h1.42v30.68a4.49,4.49,0,0,0,4.49,4.49h6.83a4.49,4.49,0,0,0,4.49-4.49V134.06a12.46,12.46,0,0,1-2.34-7.27ZM88.79,78.37a9.07,9.07,0,1,0,9.07,9.07A9.08,9.08,0,0,0,88.79,78.37ZM158.3,99H143.38c0,.25,0,.49,0,.74v27.06a12.46,12.46,0,0,1-2.34,7.27v28.31a4.49,4.49,0,0,0,4.49,4.49h6.83a4.49,4.49,0,0,0,4.49-4.49V131.68h1.41a5.83,5.83,0,0,0,5.83-5.83v-21A5.82,5.82,0,0,0,158.3,99Zm-27.43-6.75h-24a7.49,7.49,0,0,0-7.49,7.49v27.06a7.49,7.49,0,0,0,7.49,7.49h1.82v39.45a5.77,5.77,0,0,0,5.77,5.78h8.78a5.77,5.77,0,0,0,5.78-5.78V134.27h1.82a7.49,7.49,0,0,0,7.49-7.49V99.73A7.49,7.49,0,0,0,130.87,92.24Zm-18.32-5.06a11.66,11.66,0,1,0-5.33-9.79A11.61,11.61,0,0,0,112.55,87.18ZM149,96.51a9.09,9.09,0,1,0-6.34-2.58A9,9,0,0,0,149,96.51Z"/><g class="cls-4"><g class="cls-5"><rect class="cls-2" x="16.43" y="98.41" width="163.98" height="1.26" transform="translate(-41.21 99.37) rotate(-45.32)"/><rect class="cls-2" x="11.39" y="93.37" width="163.98" height="1.26" transform="translate(-39.12 94.29) rotate(-45.32)"/><rect class="cls-2" x="6.35" y="88.33" width="163.98" height="1.26" transform="translate(-37.03 89.22) rotate(-45.32)"/><rect class="cls-2" x="1.31" y="83.29" width="163.98" height="1.26" transform="translate(-34.95 84.14) rotate(-45.32)"/><rect class="cls-2" x="-3.73" y="78.26" width="163.98" height="1.26" transform="translate(-32.86 79.06) rotate(-45.32)"/><rect class="cls-2" x="-8.76" y="73.22" width="163.98" height="1.26" transform="translate(-30.77 73.98) rotate(-45.32)"/><rect class="cls-2" x="-13.8" y="68.18" width="163.98" height="1.26" transform="translate(-28.68 68.9) rotate(-45.32)"/><rect class="cls-2" x="-18.84" y="63.14" width="163.98" height="1.26" transform="translate(-26.6 63.82) rotate(-45.32)"/><rect class="cls-2" x="-23.88" y="58.1" width="163.98" height="1.26" transform="translate(-24.51 58.75) rotate(-45.32)"/><rect class="cls-2" x="21.47" y="103.45" width="163.98" height="1.26" transform="translate(-43.29 104.45) rotate(-45.32)"/><rect class="cls-2" x="26.51" y="108.49" width="163.98" height="1.26" transform="translate(-45.38 109.53) rotate(-45.32)"/><rect class="cls-2" x="31.55" y="113.53" width="163.98" height="1.26" transform="translate(-47.47 114.61) rotate(-45.32)"/><rect class="cls-2" x="36.58" y="118.57" width="163.98" height="1.26" transform="translate(-49.56 119.68) rotate(-45.32)"/><rect class="cls-2" x="41.62" y="123.6" width="163.98" height="1.26" transform="translate(-51.64 124.76) rotate(-45.32)"/><rect class="cls-2" x="46.66" y="128.64" width="163.98" height="1.26" transform="translate(-53.73 129.84) rotate(-45.32)"/><rect class="cls-2" x="51.7" y="133.68" width="163.98" height="1.26" transform="translate(-55.82 134.92) rotate(-45.32)"/><rect class="cls-2" x="56.74" y="138.72" width="163.98" height="1.26" transform="translate(-57.9 140) rotate(-45.32)"/><rect class="cls-2" x="61.78" y="143.76" width="163.98" height="1.26" transform="translate(-59.99 145.07) rotate(-45.32)"/><rect class="cls-2" x="66.82" y="148.8" width="163.98" height="1.26" transform="translate(-62.08 150.15) rotate(-45.32)"/><rect class="cls-2" x="71.86" y="153.84" width="163.98" height="1.26" transform="translate(-64.16 155.23) rotate(-45.32)"/><rect class="cls-2" x="81.93" y="163.92" width="163.98" height="1.26" transform="translate(-68.34 165.39) rotate(-45.32)"/><rect class="cls-2" x="86.97" y="168.95" width="163.98" height="1.26" transform="translate(-70.43 170.47) rotate(-45.32)"/><rect class="cls-2" x="92.01" y="173.99" width="163.98" height="1.26" transform="translate(-72.51 175.54) rotate(-45.32)"/><rect class="cls-2" x="97.05" y="179.03" width="163.98" height="1.26" transform="translate(-74.6 180.62) rotate(-45.32)"/><rect class="cls-2" x="102.09" y="184.07" width="163.98" height="1.26" transform="translate(-76.69 185.7) rotate(-45.32)"/><rect class="cls-2" x="76.89" y="158.88" width="163.98" height="1.26" transform="translate(-66.25 160.31) rotate(-45.32)"/></g></g></g></g></svg>