<svg xmlns="http://www.w3.org/2000/svg" viewBox="0 0 100 100"><path d="M59.72 57.553V30.8c0-5.3-4.352-9.6-9.718-9.6-5.37 0-9.72 4.3-9.72 9.6v26.752c-2.01 2.255-3.24 5.207-3.24 8.448 0 7.068 5.803 12.8 12.96 12.8 7.155 0 12.956-5.732 12.956-12.8 0-3.24-1.228-6.193-3.238-8.447zM50.002 72.4c-3.58 0-6.48-2.865-6.48-6.4 0-2.363 1.312-4.404 3.24-5.513V30.8c0-1.766 1.45-3.2 3.24-3.2 1.788 0 3.24 1.434 3.24 3.2v29.687c1.927 1.11 3.238 3.15 3.238 5.513 0 3.535-2.9 6.4-6.478 6.4z" fill="#333"/><path d="M51.622 61.494V30.8c0-.884-.726-1.6-1.62-1.6a1.61 1.61 0 0 0-1.62 1.6v30.693c-1.883.66-3.24 2.42-3.24 4.507 0 2.65 2.175 4.8 4.86 4.8 2.683 0 4.858-2.15 4.858-4.8 0-2.088-1.356-3.846-3.238-4.506z" fill="#E7522F"/></svg>