<svg xmlns="http://www.w3.org/2000/svg"><symbol fill-rule="evenodd" id="ms-buerowesen" viewBox="0 0 44 44"><path d="M8.467 28.686H6.443a.24.24 0 0 1-.08-.013h-.002a.209.209 0 0 1-.037-.017l-.006-.003-.002-.002a.249.249 0 0 1-.126-.217V23.316h.002v-.007a.25.25 0 0 1 .028-.09H4.502a.26.26 0 0 1-.26-.26v-2.093c0-.144.116-.262.26-.262h5.896c.143 0 .26.118.26.262v2.092a.26.26 0 0 1-.26.26h-1.71a.281.281 0 0 1 .03.09v2.761h2.34c.587-.482 1.478-.58 2.258-.673 1.596-.187 3.2-.076 4.802-.076h6.32c1.772 0 3.546 0 5.32-.002.997-.002 2.477-.006 3.308.753h2.215v-2.747l.002-.004V23.311l.002-.007v-.01l.002-.002v-.005l.002-.007.002-.006v-.002l.002-.004v-.006l.002-.002v-.003l.007-.013.002-.002v-.003h.002v-.004l.002-.002v-.002h.002c0-.003.002-.005.003-.007h-1.708a.26.26 0 0 1-.26-.26v-2.093c0-.144.117-.262.26-.262h5.896c.144 0 .26.118.26.262v2.092a.26.26 0 0 1-.26.26H37.78l.007.017.002.005.01.024.002.012.004.018.002.013v.018l.002.013v5.093c0 .14-.113.253-.253.253h-4.071c-.328.684-1.007 1.038-1.69 1.363-2.012.867-4.4 1.467-6.997 1.713h-.69v6.24c0 .026 0 .05-.005.075 3.19.277 5.535 1.166 5.56 2.223l.093-.002c.906 0 1.64.76 1.64 1.696 0 .936-.734 1.696-1.64 1.696-.906 0-1.64-.76-1.64-1.696 0-.484.196-.92.51-1.23-1.203.183-3.31.22-5.54.227.367.312.602.785.602 1.313 0 .937-.736 1.697-1.64 1.697-.907 0-1.64-.76-1.64-1.697 0-.527.232-1 .6-1.31-2.202-.006-4.29-.04-5.524-.212.306.31.495.74.495 1.214 0 .936-.735 1.696-1.64 1.696-.905 0-1.64-.76-1.64-1.696 0-.936.735-1.696 1.64-1.696.03-1.055 2.373-1.943 5.562-2.22a.37.37 0 0 1-.007-.074v-6.24h-.42c-2.593-.247-4.976-.846-6.99-1.71-.768-.33-1.535-.628-1.883-1.368H8.467zm17.085-4.568h-7.006a.331.331 0 0 1-.332-.33V21.14c0-.18.15-.33.332-.33h7.006c.183 0 .33.15.33.33v2.648a.33.33 0 0 1-.33.33zm-4.81-4.08c-.53 0-6.32-.326-6.32-.326-3.426-.7-2.942-3.168-2.942-3.168l1.157-13.7c.82-2.378 2.895-2.47 2.895-2.47C17.158.153 21.474.017 22.02 0h.058v.002c.547.016 4.863.153 6.488.37 0 0 2.075.094 2.894 2.47l1.16 13.702s.48 2.47-2.945 3.168c0 0-5.79.326-6.32.326h-2.613z"/></symbol><symbol fill-rule="evenodd" id="ms-einkauf_beschaffung" viewBox="0 0 44 44"><path d="M32.327 32.147c-1.84 0-3.353 1.514-3.353 3.354s1.514 3.354 3.353 3.354a3.369 3.369 0 0 0 3.353-3.353 3.369 3.369 0 0 0-3.353-3.353zm-17.604 0c1.84 0 3.353 1.514 3.353 3.354s-1.514 3.354-3.353 3.354a3.369 3.369 0 0 1-3.353-3.353 3.368 3.368 0 0 1 3.353-3.353zm17.604 4.703a1.369 1.369 0 0 1-1.362-1.363 1.37 1.37 0 0 1 1.362-1.362 1.37 1.37 0 0 1 1.362 1.362 1.37 1.37 0 0 1-1.363 1.363zm-17.604 0a1.368 1.368 0 0 1-1.362-1.363 1.37 1.37 0 0 1 1.363-1.362 1.37 1.37 0 0 1 1.362 1.362c0 .748-.615 1.363-1.362 1.363zM6.99 5.16a.373.373 0 0 1 .457.263l5.315 19.84a.357.357 0 0 1-.006.21.356.356 0 0 1-.007.162l-1.094 4.078h26.166c.206 0 .373.168.373.374v2.986a.374.374 0 0 1-.373.373h-1.497a4.5 4.5 0 0 0-7.998 0h-9.605a4.496 4.496 0 0 0-7.997 0H8.08a.374.374 0 0 1-.374-.373v-2.93a.345.345 0 0 1 .01-.142c0-.007.004-.014.005-.02l1.222-4.556-4.43-16.532H.372A.377.377 0 0 1 0 8.518V5.532c0-.205.168-.373.373-.373H6.99zM44 11.386a1.5 1.5 0 0 0-1.5-1.5L12.81 8.743c-.828 0-1.5.673-1.5 1.5l3.244 12.927s.673 1.5 1.5 1.5l22.058-1.463c.83 0 1.5-1.5 1.5-1.5L44 11.387z"/></symbol><symbol fill-rule="evenodd" id="ms-finanzdienstleistungen" viewBox="0 0 44 44"><path d="M22.958 37.742l17.788-17.787a1.907 1.907 0 0 0 0-2.696L29.963 6.476a1.906 1.906 0 0 1 2.695 0L43.44 17.26c.745.743.745 1.95 0 2.695L25.655 37.742a1.907 1.907 0 0 1-2.696 0zm1.303-31.29a1.91 1.91 0 0 1 2.697 0L37.74 17.235a1.909 1.909 0 0 1 0 2.696L19.952 37.72a1.906 1.906 0 0 1-2.695 0l-.232-.232L34.812 19.7a1.908 1.908 0 0 0 0-2.697l-10.55-10.55zm7.563 13.284a1.909 1.909 0 0 0 0-2.696L21.04 6.258a1.907 1.907 0 0 0-2.696 0L.557 24.045a1.907 1.907 0 0 0 0 2.696L11.34 37.524c.743.744 1.95.744 2.696 0l17.787-17.787zm-19.79-2.004a5.883 5.883 0 0 1 8.316 0 5.888 5.888 0 0 1 0 8.317 5.889 5.889 0 0 1-8.318 0 5.885 5.885 0 0 1 0-8.318zm3.516.8l.422.666c-.438.044-.81.218-1.112.52-.413.414-.618.855-.617 1.327 0 .473.125.88.37 1.22l2.018-2.016.323.475-1.987 1.987.11.12.278.267 1.902-1.903.322.477-1.763 1.762c.475.325.932.458 1.37.397.437-.06.812-.25 1.126-.562.372-.37.563-.756.575-1.16l.612.613a2.7 2.7 0 0 1-.645.99c-1.088 1.087-2.297 1.19-3.626.312l-.455.455-.312-.485.307-.307a6.478 6.478 0 0 1-.272-.26l-.12-.12-.39.386-.313-.485.346-.347c-.44-.647-.613-1.294-.515-1.942.1-.647.392-1.214.88-1.703.368-.367.757-.595 1.17-.684z"/></symbol><symbol fill-rule="evenodd" id="ms-gastgewerbe_tourismus" viewBox="0 0 44 44"><path d="M18.203 10.998l-.876-3.27L9.01 9.96c-.847-3.166 2.137-6.75 6.76-8.296l-.218-.82c-.084-.312.234-.67.71-.797.475-.127.927.024 1.012.336l.22.82c4.777-.973 9.154.64 10.002 3.804l-8.315 2.23 1.01 3.764h13.285c.915 0 1.657.943 1.657 2.106l-2.32 28.79c0 1.162-.742 2.106-1.656 2.106H17.902c-.914 0-1.657-.944-1.657-2.106l-2.32-28.79c0-1.163.742-2.106 1.657-2.106h2.62zm14.63 1.67H20.637l2.312 8.628c.614.13 1.164.334 1.58.638 3.47 2.538 7.656-.508 7.656-.508.356 0 .647-.407.647-.908l.646-6.944c0-.5-.29-.907-.647-.907zM20.907 21.09l-2.257-8.423h-2.425c-.357 0-.647.406-.647.907l.647 6.944c0 .5.29.908.647.908 0 0 1.988-.37 4.035-.335z"/></symbol><symbol fill-rule="evenodd" id="ms-gesundheitswesen" viewBox="0 0 44 44"><path d="M2.736 39.152c-1.21 0-2.288.117-2.627-.613H0V15.581c0-1.366 1.27-2.476 2.736-2.476h8.31v-1.38c0-3.835 3.13-6.886 6.844-6.886h7.92c3.812 0 6.843 3.15 6.843 6.887v1.38h8.603c1.564 0 2.836 1.11 2.738 2.475v3.934H44V38.54h-.124c-.332.67-1.347.612-2.62.612H2.736zm20.902-14.66v-4.946H20.36v4.947h-4.948v3.278h4.948v4.95h3.278v-4.95h4.947v-3.277h-4.947zm2.27-16.11h-7.92c-1.857 0-3.324 1.476-3.324 3.345v1.38H29.23v-1.38c0-1.87-1.465-3.344-3.323-3.344z"/></symbol><symbol fill-rule="evenodd" id="ms-handel_vertrieb_verkauf" viewBox="0 0 44 44"><path d="M42.2 44H1.8a.84.84 0 0 1-.84-.838v-6.71a.84.84 0 0 1 .84-.84h40.4a.84.84 0 0 1 .837.84v6.71a.838.838 0 0 1-.838.838zm-1.8-6.105H3.6a.384.384 0 0 0-.383.383v3.057c0 .21.172.382.383.382h36.8c.21 0 .383-.17.383-.382v-3.057a.384.384 0 0 0-.383-.383zM28.425 8.388h-5.56a.838.838 0 0 1-.838-.838V.84a.84.84 0 0 1 .838-.84H37.12a.84.84 0 0 1 .84.84v6.71a.838.838 0 0 1-.84.838h-5.528v2.99h4.223a2.266 2.266 0 0 1 2.265 2.265l2.112 18.117a2.265 2.265 0 0 1-2.265 2.264H6.073a2.265 2.265 0 0 1-2.265-2.264L5.92 13.643a2.266 2.266 0 0 1 2.265-2.265h20.24v-2.99zm-.1 18.466h-3.17v3.167h3.17v-3.166zm6.378 0h-3.168v3.167h3.168v-3.166zm0-5.737h-3.168v3.167h3.168v-3.167zm-6.38 0h-3.167v3.167h3.168v-3.167zm-8.422-5.736H9.35v5.606H19.9V15.38zm8.424 0h-3.168v3.17h3.168v-3.17zm6.38 0H31.59v.368c0 .067-.02.13-.057.18v2.62h3.168v-3.167zm.938-13.46H24.374a.456.456 0 0 0-.455.455v3.64c0 .25.203.455.454.455h11.268a.456.456 0 0 0 .456-.456v-3.64a.456.456 0 0 0-.456-.455z"/></symbol><symbol fill-rule="evenodd" id="ms-handwerk_produktion" viewBox="0 0 44 44"><path d="M28.416 15.12c-.005-.01-.005-.013-.002-.015-.89-2.705-.333-5.846 1.73-8.035 2.098-2.225 5.118-3.02 7.885-2.29.443.128.57.7.252 1.018l-3.306 3.307a3.155 3.155 0 0 0 0 4.45 3.158 3.158 0 0 0 4.452 0l3.306-3.306c.318-.32.89-.19 1.017.253.67 2.64 0 5.596-2.097 7.695-2.223 2.22-5.43 2.84-8.23 1.92 0 .002-.005 0-.014-.003L10.933 42.59a.707.707 0 0 1-.998 0L5.94 38.594a.707.707 0 0 1 0-1L28.416 15.12zm3.502 10.6l11.876 11.875a.71.71 0 0 1 0 1l-3.997 3.995a.707.707 0 0 1-.998 0L26.922 30.714l4.995-4.994zm-14.11-4.12l-6.57-6.57-6.09 6.088a.7.7 0 0 1-.99 0L.206 17.164a.7.7 0 0 1 0-.99L8.74 7.64l13.507-6.437 1.407 1.41-7.42 7.42 6.57 6.572-4.995 4.994z"/></symbol><symbol fill-rule="evenodd" id="ms-hilfstaetigkeiten" viewBox="0 0 44 44"><path d="M3.32 34.018a.338.338 0 0 0-.4-.26l-2.652.577a.34.34 0 0 0-.26.404l1.864 8.58c.04.183.22.3.402.26l2.65-.575c.184-.04.3-.22.26-.404l-1.862-8.58zm11.954 7.035c-.002 0-.096.002-5.36 0-1.306 0-3.596 1.56-3.596 1.56l-1.74-9.19 9.318-4.464c.153-.077.383-.154.612-.154H27.52c.842 0 1.532.448 1.532 1.29 0 .842-.843 1.416-1.532 1.39-2.12-.08-6.92.006-8.138.544-1.732.766-.988 2.402.025 2.903.053.027.117.05.188.072 1.452.44 6.395-.072 6.395-.072.938-.097 1.367-.144 2.143-.306 2.177-.455 10.293-4.538 10.293-4.538.153-.077.382-.153.613-.153.84 0 1.53.688 1.53 1.53 0 .536-.23.995-.613 1.225l-10.905 7.52c-.995.61-2.067.84-3.215.84H15.274zm28.453-14.91H5a.275.275 0 0 1-.276-.274v-2.194c0-.15.123-.274.275-.274h38.727c.15 0 .273.123.273.274v2.193c0 .15-.122.272-.273.272zM44 21.54H4.724c.27-9.713 8.82-17.656 18.324-18.943V1.56c0-.634.59-1.147 1.315-1.147s1.313.513 1.313 1.146v.895C35.304 3.61 43.728 11.72 44 21.54zM9.11 18.71c.455 0 .82-.275.912-.73 1.735-6.487 7.49-10.872 14.34-10.872.548 0 .914-.364.914-1.004a.916.916 0 0 0-.913-.914c-7.49 0-14.158 5.115-16.167 12.33-.183.55.09 1.006.64 1.19h.273z"/></symbol><symbol fill-rule="evenodd" id="ms-it_datenverarbeitung" viewBox="0 0 44 44"><path d="M16.62 37.41h-3.786a.258.258 0 0 1-.257-.258l.776-2.908H1.69c-.932 0-1.69-.757-1.69-1.69V19.037c0-.933.758-1.69 1.69-1.69h26.074c.932 0 1.69.757 1.69 1.69v13.517c0 .933-.758 1.69-1.69 1.69H16.102l.776 2.908a.258.258 0 0 1-.258.258zm25.46-.08H26.705a1.924 1.924 0 0 1-1.837-1.358h4.27c1.123 0 2.034-.91 2.034-2.034V17.662c0-1.123-.91-2.035-2.034-2.035h-4.356V8.512c0-1.06.86-1.922 1.922-1.922H42.08c1.06 0 1.92.86 1.92 1.922v26.894c0 1.06-.86 1.92-1.92 1.923zM25.816 19.78H3.637c-.664 0-1.202.54-1.202 1.2v9.62a1.2 1.2 0 0 0 1.202 1.2h22.18c.664 0 1.203-.537 1.203-1.2v-9.615c0-.662-.54-1.2-1.203-1.2zm13.596-4.832a1.586 1.586 0 1 1 .002 3.172 1.586 1.586 0 0 1-.003-3.172zM41 8.512H27.785a.317.317 0 0 0-.318.317v2.537c0 .175.142.317.318.317H41a.317.317 0 0 0 .317-.317V8.83a.318.318 0 0 0-.318-.318z"/></symbol><symbol fill-rule="evenodd" id="ms-logistik_lager_verkehr" viewBox="0 0 44 44"><path d="M8.187 27.168c-2.53 0-4.61 2.08-4.61 4.61 0 2.53 2.08 4.61 4.61 4.61 2.53 0 4.61-2.08 4.61-4.61 0-2.53-2.08-4.61-4.61-4.61zm23.33 0c-2.528 0-4.61 2.08-4.61 4.61 0 2.53 2.082 4.61 4.61 4.61 2.53 0 4.61-2.08 4.61-4.61 0-2.53-2.08-4.61-4.61-4.61zm-23.33 6.465a1.881 1.881 0 0 1-1.873-1.872c0-1.027.845-1.872 1.873-1.872 1.027 0 1.873.845 1.873 1.873s-.846 1.873-1.873 1.873zm23.33 0a1.88 1.88 0 0 1-1.872-1.872 1.88 1.88 0 0 1 1.872-1.872c1.03 0 1.874.845 1.874 1.873s-.844 1.873-1.873 1.873zm-29.51-1.855h-.37C.733 31.778 0 31.103 0 30.27V18.08l5.787-4.62h8.95c.904 0 1.638.674 1.638 1.506V30.27c0 .833-.734 1.508-1.637 1.508h-.37c0-3.412-2.77-6.18-6.18-6.18a6.183 6.183 0 0 0-6.182 6.18zm23.33 0h-3.884a2.418 2.418 0 0 1-2.417-2.416V10.028a2.418 2.418 0 0 1 2.417-2.416h20.13a2.417 2.417 0 0 1 2.416 2.416v19.334a2.418 2.418 0 0 1-2.417 2.416H37.7a6.183 6.183 0 0 0-12.363 0zM13.24 16.754H6.736c-.31 0-.61.122-.83.34L3.38 19.578c-.22.21-.344.503-.344.81v1.6H13.24v-5.236z"/></symbol><symbol fill-rule="evenodd" id="ms-management" viewBox="0 0 44 44"><path d="M23.68 10.01c.005.017 3.657 14.138 5.236 27.123 0 0-4.008 5.12-6.916 6.81.034.02.066.04.1.056h-.2c.034-.018.067-.037.1-.057-2.908-1.69-6.917-6.81-6.917-6.81 1.58-12.985 5.233-27.106 5.237-27.122h3.36zM22 0h-.05.05c.51.002 4.783.052 4.644.89 0 0-.247 2.568-3.063 6.62h-3.16C17.603 3.457 17.355.89 17.355.89 17.216.05 21.49 0 22 0z"/></symbol><symbol fill-rule="evenodd" id="ms-marketing_werbung_pr" viewBox="0 0 44 44"><path d="M12.467 35.868l.404 1.73c.418 1.777 2.21 2.936 4.02 2.512l3.764-.88c1.766-.414 2.912-2.212 2.486-4.036l-.416-1.776-1.72.403.417 1.776c.21.89-.324 1.754-1.207 1.96l-3.763.882a1.614 1.614 0 0 1-1.952-1.22l-.416-1.777-1.615.428zm8.1-26.003l-.57-.987a.224.224 0 0 1 .082-.303l1.538-.888a.222.222 0 0 1 .303.08l12.643 21.9a.222.222 0 0 1-.08.303l-1.54.888a.222.222 0 0 1-.302-.082l-.57-.986c-.02.014-.044.028-.068.042L6.148 36.125l-.07.04.098.168a.223.223 0 0 1-.082.303l-1.538.89a.223.223 0 0 1-.303-.082L.03 30.13a.221.221 0 0 1 .08-.303l1.54-.89a.223.223 0 0 1 .303.082l.098.168.07-.04L20.497 9.902l.07-.038zM35.617 20.3a.248.248 0 0 0-.248.25v1.99c0 .14.11.252.248.252h8.133a.25.25 0 0 0 .25-.25v-1.993c0-.14-.112-.25-.25-.25h-8.13zm-2.835-5.642a.25.25 0 0 0-.092.34l.997 1.727c.07.12.222.16.34.09l7.044-4.066a.25.25 0 0 0 .092-.34l-.996-1.728a.247.247 0 0 0-.34-.09l-7.044 4.066zm-4.653-3.686c-.07.118-.03.27.09.34l1.727.997a.25.25 0 0 0 .34-.092l4.067-7.044a.25.25 0 0 0-.09-.34l-1.728-.997a.248.248 0 0 0-.34.09l-4.067 7.045z"/></symbol><symbol fill-rule="evenodd" id="ms-personalwesen" viewBox="0 0 44 44"><path d="M43.35 39.45L31.43 27.527c2.166-2.82 3.25-6.287 3.25-10.188C34.68 7.803 26.877 0 17.34 0 7.803 0 0 7.803 0 17.34c0 9.537 7.803 17.34 17.34 17.34 3.902 0 7.37-1.3 10.188-3.252l11.92 11.922c.435.434.868.65 1.3.65.435 0 .87-.216 1.302-.433l1.3-1.3c.435-.434.435-.868.435-1.302.216-.65 0-1.082-.434-1.516zm-26.01-8.89c-7.152 0-13.005-5.853-13.005-13.005 0-7.153 5.853-13.005 13.005-13.005 7.153 0 13.006 5.852 13.006 13.005 0 7.152-5.636 13.005-13.006 13.005zm6.72-5.6H10.48c0-2.324 1.622-5.553 3.958-7.016.793.878 1.77 1.478 2.832 1.478 1.06 0 2.04-.6 2.83-1.478 2.338 1.464 3.96 4.692 3.96 7.016zm-6.79-6.79c-2.236 0-4.048-3.362-4.048-5.597a4.047 4.047 0 0 1 8.095 0c0 2.235-1.812 5.596-4.047 5.596z"/></symbol><symbol fill-rule="evenodd" id="ms-rechnungswesen" viewBox="0 0 44 44"><path d="M40.56 9.843a2.954 2.954 0 0 0-2.09-3.62L15.628.103a2.954 2.954 0 0 0-3.62 2.09L3.44 34.158a2.96 2.96 0 0 0 2.092 3.62L28.376 43.9a2.96 2.96 0 0 0 3.62-2.09L40.56 9.842zm-8.656 24.92l-4.28-1.146-1.15 4.284 4.282 1.148 1.148-4.284zm-6.86-1.837l-4.28-1.148-1.15 4.285 4.282 1.147 1.15-4.284zm-6.86-1.838l-4.28-1.147-1.15 4.285 4.283 1.147 1.148-4.284zm-6.86-1.838l-4.28-1.147-1.148 4.283 4.28 1.147 1.15-4.283zm22.415-1.334l-4.282-1.148-1.15 4.285 4.284 1.147 1.147-4.284zm-6.86-1.838l-4.282-1.147-1.148 4.284 4.282 1.147 1.147-4.282zm-6.86-1.838l-4.282-1.147-1.148 4.283 4.282 1.147 1.147-4.283zm-6.86-1.84l-4.282-1.146L7.73 25.54l4.28 1.146 1.15-4.285zm22.414-1.332l-4.28-1.147-1.15 4.284 4.282 1.147 1.148-4.282zm-6.86-1.838l-4.282-1.148-1.147 4.284 4.28 1.147 1.15-4.283zm-6.86-1.84l-4.28-1.146-1.148 4.285 4.28 1.146 1.15-4.285zm-6.86-1.836l-4.28-1.148-1.148 4.284 4.28 1.147 1.15-4.283zM38.61 9.736l-24.86-6.66-1.878 7.006 24.86 6.66 1.878-7.006z"/></symbol><symbol fill-rule="evenodd" id="ms-recht_steuern" viewBox="0 0 44 44"><path d="M20.44 11.524a2.25 2.25 0 0 1-.542-.85L8.52 7.623a2.543 2.543 0 0 0 .78-2.379L20.547 8.26c.392-.34.9-.544 1.452-.544.965 0 1.796.628 2.1 1.495l11.234 3.01a2.537 2.537 0 0 0-.585 2.432l-11.19-2.998v22.392c4.465.49 7.87 3.04 7.87 6.115H12.57c0-3.074 3.404-5.625 7.87-6.114V11.524zm17.515 17.094h-1.24c-3.39-.205-6.046-2.08-6.046-4.362h1.442l4.237-8.672a1.916 1.916 0 0 1-.926-1.633c0-1.047.862-1.91 1.91-1.91s1.91.863 1.91 1.91c0 .638-.318 1.207-.805 1.555l4.266 8.732c.002.006.005.013.006.02H44c0 2.28-2.655 4.155-6.045 4.36zm-.458-12.764a2.197 2.197 0 0 1-.163.007h-.008l-4.1 8.396H41.6l-4.103-8.402zM7.287 20.33H6.044C2.655 20.123 0 18.25 0 15.966h1.443l4.204-8.605a1.913 1.913 0 0 1-.892-1.612c0-1.05.862-1.91 1.91-1.91 1.047 0 1.91.86 1.91 1.91a1.91 1.91 0 0 1-.774 1.53l4.237 8.668c.002.006.005.013.006.02h1.287c0 2.28-2.654 4.156-6.044 4.36zm-.42-12.68c-.065.006-.133.01-.202.01h-.05l-4.06 8.307h8.377L6.868 7.65zm30.467 7.07a.78.78 0 0 1-.776-.777.78.78 0 0 1 .776-.775.78.78 0 0 1 .777.775.78.78 0 0 1-.776.777zM6.5 6.5a.78.78 0 0 0 .941-.757.78.78 0 0 0-.775-.777.78.78 0 0 0-.776.777c0 .253.122.48.313.62a.09.09 0 0 1 .038.01l.26.128z"/></symbol><symbol fill-rule="evenodd" id="ms-sozialwesen" viewBox="0 0 44 44"><path d="M9.783 12.67l1.15 4.29c-3.082 2.366-5.07 6.073-5.07 10.264 0 7.195 5.862 13.058 13.058 13.058 4.913 0 9.204-2.69 11.433-6.687l1.224 4.568C28.462 41.736 23.88 44 18.79 44 9.45 44 1.824 36.377 1.824 27.036c0-6.037 3.184-11.357 7.96-14.365zm25.205 23.77a.38.38 0 0 1-.465-.27l-3.156-11.777H16.458a.38.38 0 0 1-.374-.28l-3.577-13.35a5.433 5.433 0 0 1-4.435-5.336A5.428 5.428 0 0 1 13.498 0a5.43 5.43 0 0 1 5.427 5.427 5.42 5.42 0 0 1-2.656 4.665l.893 3.338H28.2c.887.02 1.6.865 1.6 1.903 0 1.04-.713 1.884-1.6 1.904H18.185l.897 3.35h14.872a.385.385 0 0 1 .412.282l3.007 11.22h3.174c.066 0 .128.013.185.04.813.12 1.446 1.04 1.446 2.154 0 1.198-.73 2.17-1.632 2.17v-.013H34.99z"/></symbol><symbol fill-rule="evenodd" id="ms-technischeberufe" viewBox="0 0 44 44"><path d="M33.564 41.254c.152 0 .275.123.275.275v2.195c0 .15-.124.275-.276.275H11.446a.276.276 0 0 1-.274-.275V41.53c0-.153.123-.276.274-.276h22.118zm-3.525-1.998H16.536L27.55 21.004l-12.17-7.408-4.62 2.667a.286.286 0 0 1-.392-.105l-.004-.008a.26.26 0 0 1-.113-.11L6.003 8.684a.286.286 0 0 1 .106-.392l1.985-1.145a.287.287 0 0 1 .392.105l3.038 5.263 2.868-1.656 2.495-4.32V2.867H10.81a.287.287 0 0 1-.287-.287V.285c0-.158.13-.287.288-.287h8.496c.054 0 .106.015.15.042h.01c.158 0 .287.13.287.287v5.476l13.48 7.783a5.38 5.38 0 0 0-4.582 5.317 5.381 5.381 0 0 0 7.684 4.858l-3.54 6.132.443 3.55c.127.075-1.68 3.222-3.196 5.81zm3.985-24.36c-2.2 0-4.01 1.81-4.01 4.01 0 2.202 1.81 4.012 4.01 4.012 2.2 0 4.01-1.81 4.01-4.01 0-2.2-1.81-4.01-4.01-4.01zm0 5.625c-.894 0-1.63-.734-1.63-1.628 0-.894.736-1.63 1.63-1.63.894 0 1.63.736 1.63 1.63 0 .894-.736 1.63-1.63 1.63z"/></symbol><symbol fill-rule="evenodd" id="ms-weiterebereiche" viewBox="0 0 44 44"><path d="M2.737 39.152c-1.21 0-2.29.116-2.628-.613H0V15.58c0-1.367 1.27-2.477 2.737-2.478h8.31v-1.377c0-3.837 3.13-6.887 6.843-6.887h7.92c3.813 0 6.844 3.148 6.844 6.887v1.377h8.603c1.564 0 2.836 1.11 2.737 2.478v3.934H44v4.95H26.555c-.907 0-1.642.736-1.642 1.64V39.15H2.737zm28.308-4.71h-2.833a.353.353 0 0 1-.353-.354v-2.833c0-.195.157-.354.352-.354h2.833c.197 0 .355.16.355.355v2.833a.354.354 0 0 1-.355.355zm6.3 0h-2.833a.354.354 0 0 1-.354-.354v-2.833c0-.195.16-.354.354-.354h2.834c.195 0 .354.16.354.355v2.833c0 .196-.16.355-.354.355zm6.3 0h-2.832a.354.354 0 0 1-.355-.354v-2.833c0-.195.158-.354.355-.354h2.833c.195 0 .353.16.353.355v2.833c0 .196-.16.355-.354.355zM25.91 8.383h-7.92c-1.857 0-3.324 1.475-3.324 3.345v1.377H29.23v-1.377c0-1.87-1.465-3.345-3.322-3.345z"/></symbol></svg>