<svg xmlns="http://www.w3.org/2000/svg" viewBox="0 0 60 45"><defs><style>.cls-1{fill:#333}</style></defs><title>Asset 3</title><g id="Layer_2" data-name="Layer 2"><g id="Layer_1-2" data-name="Layer 1"><polygon class="cls-1" points="16.22 41.22 12.56 45 47.44 45 43.78 41.22 16.22 41.22"/><path class="cls-1" d="M43.78,21.34V40h1.1l.49.73,3.29,3L49.88,45H60V21.34Zm7.44,14.88H47.44V32.56h3.78Zm0-7.44H47.44V25h3.78Zm5,7.44H53.78V32.56h2.44Zm0-7.44H53.78V25h2.44Z"/><path class="cls-1" d="M15.12,40h1.1V21.34H0V45H10.12l1.22-1.1,3.29-3.17Zm-8.9-3.78H3.78V32.56H6.22Zm0-7.44H3.78V25H6.22Zm6.34,7.44H8.78V32.56h3.78Zm0-7.44H8.78V25h3.78Z"/><path class="cls-1" d="M13.52,20h4V40h5V22.56h5V40h4.88V22.56h5V40h5V20h4.28a1.58,1.58,0,0,0,.66-3h0L31.22,8.66V6.34a6.84,6.84,0,0,0,3.9.18,10.2,10.2,0,0,1,4.88.3V1.59a9.5,9.5,0,0,0-4.88-.24q-2.93.49-3.9-.24V.85Q31.22,0,30,0T28.78.85v7.8L12.75,17h0a1.59,1.59,0,0,0,.76,3Zm33.34-3.16h0Z"/></g></g></svg>