<svg xmlns="http://www.w3.org/2000/svg" viewBox="0 0 100 100"><path d="M66.572 26.525c-1.154 0-2.27.15-3.37.336-4.33-7.66-12.833-13.45-23.145-13.45-14.643 0-26.514 11.743-26.514 26.23 0 14.485 11.87 26.228 26.514 26.228H66.57c10.983 0 19.886-8.807 19.886-19.672 0-19.55-20.546-19.67-19.884-19.67z" fill="#FFF"/><path d="M49.882 73.476c-1.83 0-3.314 1.468-3.314 3.28v6.556c0 1.81 1.484 3.278 3.314 3.278s3.314-1.468 3.314-3.278v-6.557c0-1.812-1.484-3.28-3.314-3.28zm-13.257-26.23c-1.83 0-3.314 1.468-3.314 3.28v6.556c0 1.81 1.485 3.28 3.315 3.28 1.83 0 3.314-1.47 3.314-3.28v-6.557c0-1.81-1.485-3.28-3.315-3.28zm0 19.672c-1.83 0-3.314 1.468-3.314 3.28v6.556c0 1.81 1.485 3.278 3.315 3.278 1.83 0 3.314-1.468 3.314-3.278v-6.557c0-1.81-1.485-3.28-3.315-3.28zm13.257-13.115c-1.83 0-3.314 1.468-3.314 3.28v6.557c0 1.81 1.484 3.28 3.314 3.28s3.314-1.47 3.314-3.28v-6.558c0-1.81-1.484-3.28-3.314-3.28zm13.257-6.557c-1.83 0-3.315 1.468-3.315 3.28v6.556c0 1.81 1.484 3.28 3.314 3.28s3.313-1.47 3.313-3.28v-6.557c0-1.81-1.484-3.28-3.314-3.28zm0 19.672c-1.83 0-3.315 1.468-3.315 3.28v6.556c0 1.81 1.484 3.278 3.314 3.278s3.313-1.468 3.313-3.278v-6.557c0-1.81-1.484-3.28-3.314-3.28z" fill="#4996DC"/></svg>