<svg xmlns="http://www.w3.org/2000/svg" viewBox="0 0 100 100"><path d="M77.94 46.017c-.453 0-.897.037-1.343.067a27.475 27.475 0 0 0-13.306-13.368c.446 1.772.708 3.616.708 5.524 0 .837-.052 1.66-.14 2.475l-48.282 19.97a16.34 16.34 0 0 1-6.11-2.633 19.14 19.14 0 0 0-1.383 7.145c0 10.707 8.754 19.386 19.553 19.386h19.45v-.036c.486-.025.964-.077 1.434-.15 1.02.114 2.055.186 3.106.186H78.94v-.05c10.275-.52 18.45-8.918 18.45-19.233 0-10.65-8.708-19.283-19.45-19.283z" fill="#FFF"/><path d="M40.977 15.417c-9.31 0-17.307 5.49-20.935 13.37-.374-.025-.746-.056-1.127-.056C9.91 28.73 2.61 35.97 2.61 44.9c0 8.648 6.853 15.69 15.466 16.125v.042h22.9c12.714 0 23.02-10.218 23.02-22.824.002-12.605-10.305-22.823-23.02-22.823z" fill="#EEE"/></svg>