<svg xmlns="http://www.w3.org/2000/svg" viewBox="0 0 100 100"><path d="M66.695 33.848c-4.61-4.844-7.373-16.46-5.976-22.096-6.442.992-21.03 5.656-19.92 26.113 3 1.074 8.528 6.416 11.95 8.035l9.96 6.026c2.42.777 10.73 9.963 14.2 7.347 6.416-4.84 10.597-13.28 13.71-22.082-9.902 2.427-17.784 3.108-23.925-3.342z" fill="#EEE"/><path d="M62.198 48.732c-1.15 0-2.26.15-3.356.337-4.314-7.693-12.782-13.51-23.052-13.51-14.585 0-26.408 11.795-26.408 26.344 0 14.55 11.823 26.343 26.408 26.343h26.408c10.938 0 19.806-8.846 19.806-19.757 0-19.636-20.465-19.758-19.806-19.758z" fill="#FFF"/></svg>