<svg xmlns="http://www.w3.org/2000/svg" viewBox="0 0 100 100"><path d="M66.7 27c-4.613-4.823-7.375-16.39-5.978-22-6.442.988-21.035 5.632-19.924 26 3 1.07 8.53 6.388 11.955 8l9.962 6c2.42.773 10.733 9.92 14.202 7.315 6.418-4.818 10.6-13.222 13.712-21.986C80.724 32.743 72.84 33.42 66.7 27z" fill="#EEE"/><path d="M62.2 41.82c-1.15 0-2.26.15-3.356.336-4.315-7.66-12.784-13.45-23.057-13.45-14.588 0-26.414 11.742-26.414 26.228s11.826 26.23 26.414 26.23H62.2c10.942 0 19.81-8.808 19.81-19.673 0-19.55-20.468-19.67-19.81-19.67z" fill="#AAA"/><path fill="#FFEC6A" d="M65.22 69.404H53.85l9.744-16H47.35l-8.12 22.398h10.72L44.104 95"/></svg>