<svg xmlns="http://www.w3.org/2000/svg" viewBox="0 0 100 100"><path d="M67.197 33.703c-4.646-4.843-7.43-16.456-6.022-22.09-6.49.992-21.19 5.655-20.073 26.106 3.023 1.073 8.595 6.413 12.044 8.032l10.036 6.024c2.44.776 10.812 9.96 14.307 7.345 6.464-4.837 10.677-13.275 13.813-22.075-9.975 2.425-17.918 3.106-24.106-3.342z" fill="#EEE"/><path d="M74.49 51.28c-.438 0-.867.036-1.298.065C73.198 51.358 70.115 36 49.068 36c-3.884 0-17.452 1.27-24.015 15.123C15.013 51.56 7 59.713 7 69.733c0 10.303 8.458 18.654 18.89 18.654h49.566c9.925-.5 17.823-8.63 17.823-18.554 0-10.247-8.413-18.553-18.79-18.553z" fill="#FFF"/></svg>