<svg xmlns="http://www.w3.org/2000/svg" viewBox="0 0 100 100"><path d="M66.57 30.424c-1.153 0-2.268.148-3.37.335-4.534-7.983-13.193-13.386-23.143-13.386-14.643 0-26.514 11.686-26.514 26.102H85.3c-2.73-7.6-10.074-13.052-18.73-13.052zM16.858 56.526h66.285c1.83 0 3.314-1.46 3.314-3.263 0-1.802-1.484-3.263-3.314-3.263H16.857c-1.83 0-3.314 1.46-3.314 3.263 0 1.802 1.484 3.263 3.314 3.263zm66.286 6.525H16.857c-1.83 0-3.314 1.462-3.314 3.264s1.484 3.263 3.314 3.263h66.285c1.83 0 3.314-1.46 3.314-3.263s-1.483-3.263-3.313-3.263zm0 13.052H16.857c-1.83 0-3.314 1.46-3.314 3.263 0 1.802 1.484 3.263 3.314 3.263h66.285c1.83 0 3.314-1.46 3.314-3.263s-1.483-3.263-3.313-3.263z" fill="#FFF"/></svg>