<svg xmlns="http://www.w3.org/2000/svg" viewBox="0 0 100 100"><path d="M62.85 78.247l-10.048-10.04a4.017 4.017 0 0 0-5.691 0v.002L37.06 78.246a4.017 4.017 0 0 0 0 5.686 4.026 4.026 0 0 0 5.69 0l7.205-7.197 7.203 7.197a4.02 4.02 0 1 0 5.69-5.686z" fill="#333"/><path d="M50 30.95c2.217 0 4.014-1.8 4.014-4.016v-8.03a4.015 4.015 0 0 0-8.028-.001v8.03A4.015 4.015 0 0 0 50 30.948zm-22.706 3.728L21.618 29a4.014 4.014 0 1 0-5.677 5.678l5.678 5.678a4.015 4.015 0 0 0 5.676-5.678zM13.876 59.054H5.848a4.014 4.014 0 1 0 0 8.029h8.028a4.015 4.015 0 0 0 0-8.029zM50 38.98c-13.3 0-24.083 10.785-24.083 24.09 0-.192 6.954 0 8.027 0h40.138C74.082 49.764 63.3 38.98 50 38.98zM84.058 29a4.012 4.012 0 0 0-5.676 0l-5.676 5.678a4.017 4.017 0 0 0 0 5.678 4.012 4.012 0 0 0 5.676 0l5.676-5.678a4.015 4.015 0 0 0 0-5.678zm10.094 30.054h-8.028a4.014 4.014 0 1 0 0 8.029h8.028a4.015 4.015 0 0 0 0-8.029z" fill="#FFEC6A"/></svg>