<svg id="Ebene_1" xmlns="http://www.w3.org/2000/svg" viewBox="0 0 19.9 14.3"><style>.st0{fill:#ffda00}</style><path class="st0" d="M18.9 2H1c-.6 0-1-.4-1-1s.4-1 1-1h17.9c.6 0 1 .4 1 1s-.4 1-1 1zM19.6 9.7c-.4-.4-1-.4-1.4 0L16.8 11V4.7c0-.6-.4-1-1-1s-1 .4-1 1V11l-1.4-1.4c-.4-.4-1-.4-1.4 0-.4.4-.4 1 0 1.4l3.1 2.9c.2.2.4.3.7.3.2 0 .5-.1.7-.3l3.1-2.9c.4-.3.4-.9 0-1.3zM10.8 8.1H1c-.6 0-1-.4-1-1s.4-1 1-1h9.8c.6 0 1 .4 1 1s-.4 1-1 1zM8.5 14.3H1c-.6 0-1-.4-1-1s.4-1 1-1h7.5c.6 0 1 .4 1 1s-.4 1-1 1z"/></svg>