<svg xmlns="http://www.w3.org/2000/svg" viewBox="0 0 100 100"><path d="M64.732 26.567c-1.15 0-2.26.15-3.355.336-4.312-7.66-12.778-13.45-23.046-13.45-14.58 0-26.4 11.742-26.4 26.228s11.82 26.23 26.4 26.23h26.402c10.936 0 19.8-8.807 19.8-19.672 0-19.55-20.458-19.67-19.8-19.67z" fill="#FFF"/><path d="M34.212 44.947c-1.803 0-1.632 1.433-1.632 3.2V79.44c-1.735-1.533-4.01-2.493-6.528-2.493v3.2c3.605 0 6.528 2.865 6.528 6.4h3.264v-38.4c0-1.767.17-3.2-1.632-3.2zm13.056 6.4c-1.803 0-1.632 1.433-1.632 3.2v12.8c0 1.767-.17 3.2 1.632 3.2 1.803 0 1.632-1.433 1.632-3.2v-12.8c0-1.767.17-3.2-1.632-3.2zm14.69 25.63v-28.83c0-1.767.17-3.2-1.633-3.2s-1.632 1.433-1.632 3.2v35.2c0 .72-.022 1.376.066 1.91-.036.427-.067.854-.067 1.29h3.264c0-7.07 5.846-12.8 13.057-12.8v-3.2a16.387 16.387 0 0 0-13.057 6.43z" fill="#4996DC"/><path d="M16.26 75.347c-1.804 0-3.265 1.433-3.265 3.2 0 1.767 1.46 3.2 3.264 3.2 1.802 0 3.263-1.433 3.263-3.2 0-1.767-1.46-3.2-3.264-3.2zm68.546-8c-1.803 0-3.264 1.433-3.264 3.2 0 1.768 1.46 3.2 3.264 3.2s3.264-1.432 3.264-3.2c0-1.767-1.46-3.2-3.264-3.2zm-37.538 9.6c-1.803 0-3.264 1.433-3.264 3.2 0 1.767 1.46 3.2 3.264 3.2 1.803 0 3.264-1.433 3.264-3.2 0-1.767-1.46-3.2-3.264-3.2z" fill="#FFF"/></svg>