<svg version="1.1" id="Ebene_1" xmlns="http://www.w3.org/2000/svg" xmlns:xlink="http://www.w3.org/1999/xlink" x="0" y="0" viewBox="18 -14 75 68" xml:space="preserve" enable-background="new 18 -14 75 68"><g><path d="M84,35.3c0,0.4-0.3,0.7-0.7,0.7H26.7c-0.4,0-0.7-0.3-0.7-0.7V-5.3C26-5.7,26.3-6,26.7-6h56.6C83.7-6,84-5.7,84-5.3 C84-5.3,84,35.3,84,35.3z"/><path d="M84.4-14H25.6c-4.2,0-7.6,3.4-7.6,7.6v43.6c0,4.2,3.4,7.6,7.6,7.6h27c0.4,0,0.7,0.3,0.7,0.7v6.8c0,0.4,0.3,0.7,0.7,0.7l0,0 H56l0,0c0.4,0,0.7-0.3,0.7-0.7v-6.8c0-0.4,0.3-0.7,0.7-0.7h27c4.2,0,7.6-3.4,7.6-7.6V-6.4C92.1-10.6,88.7-14,84.4-14z M89.3,36.9 c0,2.4-2,4.4-4.4,4.4H25.7c-2.4,0-4.4-2-4.4-4.4V-6.3c0-2.4,2-4.4,4.4-4.4h59c2.4,0,4.4,2,4.4,4.4L89.3,36.9L89.3,36.9z"/></g></svg>