<svg xmlns="http://www.w3.org/2000/svg" viewBox="0 0 100 100"><path d="M13.876 59.007H5.848a4.015 4.015 0 1 0 0 8.03h8.028a4.015 4.015 0 0 0 0-8.028zM50 30.9a4.014 4.014 0 0 0 4.014-4.014v-8.03a4.015 4.015 0 1 0-8.028.001v8.03A4.015 4.015 0 0 0 50 30.902zm-22.706 3.73l-5.676-5.677a4.014 4.014 0 1 0-5.677 5.678l5.678 5.68a4.014 4.014 0 1 0 5.676-5.68zm66.858 24.377h-8.028a4.015 4.015 0 1 0 0 8.03h8.028a4.015 4.015 0 0 0 0-8.028zM50 38.93c-13.3 0-24.083 10.787-24.083 24.09 0-.19 6.954 0 8.027 0h40.138C74.082 49.718 63.3 38.93 50 38.93zm34.058-9.977a4.012 4.012 0 0 0-5.676 0l-5.676 5.678a4.014 4.014 0 1 0 5.676 5.68l5.676-5.68a4.014 4.014 0 0 0 0-5.677z" fill="#FFEC6A"/><path d="M62.938 68.254a4.026 4.026 0 0 0-5.69 0l-7.205 7.197-7.203-7.196a4.026 4.026 0 0 0-5.69 0 4.018 4.018 0 0 0 0 5.687l10.048 10.04c.383.383.824.67 1.294.865.012.005.024.014.036.02.073.03.15.04.225.066 1.404.476 3.015.17 4.134-.95l10.05-10.04a4.015 4.015 0 0 0 0-5.686z" fill="#333"/></svg>