<svg xmlns="http://www.w3.org/2000/svg" viewBox="0 0 100 100"><path d="M26.813 59.792l-4.687 4.62a3.237 3.237 0 0 0 0 4.622 3.348 3.348 0 0 0 4.687 0l4.687-4.62a3.237 3.237 0 0 0 0-4.622 3.348 3.348 0 0 0-4.687 0zm-3.08-18.484c0-1.805-1.483-3.268-3.313-3.268h-6.628c-1.83 0-3.314 1.463-3.314 3.268 0 1.804 1.484 3.268 3.314 3.268h6.628c1.83 0 3.314-1.463 3.314-3.268zm3.08-18.484a3.348 3.348 0 0 0 4.687 0 3.234 3.234 0 0 0 0-4.62l-4.687-4.622a3.348 3.348 0 0 0-4.687 0 3.234 3.234 0 0 0 0 4.62l4.687 4.622zm46.87 0l4.688-4.62a3.235 3.235 0 0 0 0-4.622 3.347 3.347 0 0 0-4.686 0l-4.687 4.62a3.237 3.237 0 0 0 0 4.622 3.348 3.348 0 0 0 4.687 0zM50.25 15.168c1.83 0 3.313-1.463 3.313-3.267V5.366c0-1.805-1.484-3.268-3.314-3.268s-3.315 1.463-3.315 3.268V11.9c0 1.805 1.483 3.268 3.314 3.268zm0 52.28c-1.83 0-3.315 1.464-3.315 3.27v6.534c0 1.805 1.484 3.267 3.314 3.267s3.313-1.464 3.313-3.268v-6.535c0-1.805-1.484-3.268-3.314-3.268zm23.434-7.656a3.348 3.348 0 0 0-4.687 0 3.234 3.234 0 0 0 0 4.62l4.687 4.622a3.348 3.348 0 0 0 4.687 0 3.233 3.233 0 0 0 0-4.62l-4.686-4.622zm13.022-21.75h-6.63c-1.83 0-3.313 1.462-3.313 3.267 0 1.803 1.484 3.267 3.314 3.267h6.63c1.83 0 3.313-1.463 3.313-3.268 0-1.806-1.484-3.27-3.314-3.27zM50.25 21.7c-10.983 0-19.886 8.78-19.886 19.607s8.903 19.604 19.885 19.604c10.982 0 19.885-8.778 19.885-19.605 0-10.83-8.904-19.607-19.886-19.607z" fill="#FFEC6A"/><path d="M74.262 47.97c-.437 0-.864.036-1.293.065.005.014-3.067-15.23-24.037-15.23-3.87 0-17.39 1.26-23.928 15.01C15 48.25 7.017 56.34 7.017 66.29c0 10.224 8.427 18.513 18.822 18.513h49.385c9.89-.496 17.758-8.565 17.758-18.416 0-10.17-8.382-18.416-18.72-18.416z" fill="#EEE"/><path d="M36.82 71.762c-1.83 0-3.313 1.463-3.313 3.268 0 1.804 1.484 3.267 3.314 3.267 1.832 0 3.315-1.463 3.315-3.267 0-1.805-1.484-3.268-3.314-3.268zm26.515 6.535c1.83 0 3.314-1.463 3.314-3.267 0-1.805-1.485-3.268-3.315-3.268-1.83 0-3.314 1.463-3.314 3.268 0 1.804 1.484 3.267 3.315 3.267zM36.82 84.832c-1.83 0-3.313 1.463-3.313 3.268 0 1.805 1.484 3.268 3.314 3.268 1.832 0 3.315-1.463 3.315-3.268 0-1.805-1.484-3.268-3.314-3.268zm13.258 6.536c-1.83 0-3.314 1.463-3.314 3.267 0 1.805 1.484 3.268 3.314 3.268s3.314-1.463 3.314-3.268c0-1.804-1.484-3.267-3.314-3.267zm0-13.07c-1.83 0-3.314 1.462-3.314 3.267s1.484 3.268 3.314 3.268 3.314-1.463 3.314-3.268c0-1.805-1.484-3.268-3.314-3.268zm13.257 6.534c-1.83 0-3.314 1.463-3.314 3.268 0 1.805 1.485 3.268 3.315 3.268 1.83 0 3.314-1.463 3.314-3.268 0-1.805-1.485-3.268-3.315-3.268z" fill="#FFF"/></svg>