<svg xmlns="http://www.w3.org/2000/svg" viewBox="0 0 100 100"><path d="M16.857 56.59h66.285a3.305 3.305 0 0 0 3.314-3.295A3.305 3.305 0 0 0 83.142 50H16.857a3.305 3.305 0 0 0-3.314 3.295 3.305 3.305 0 0 0 3.314 3.295zm66.286 6.59H16.857c-1.83 0-3.314 1.476-3.314 3.296s1.484 3.295 3.314 3.295h66.285c1.83 0 3.314-1.474 3.314-3.294s-1.483-3.295-3.313-3.295zM66.57 30.23c-1.153 0-2.268.15-3.37.338A26.518 26.518 0 0 0 40.057 17.05c-14.643 0-26.514 11.802-26.514 26.36H85.3a19.864 19.864 0 0 0-18.73-13.18zm16.573 46.13H16.857a3.305 3.305 0 0 0-3.314 3.296 3.305 3.305 0 0 0 3.314 3.295h66.285c1.83 0 3.314-1.474 3.314-3.294s-1.483-3.295-3.313-3.295z" fill="#FFF"/></svg>