<svg xmlns="http://www.w3.org/2000/svg" viewBox="0 0 100 100"><path d="M66.572 26.525c-1.154 0-2.27.15-3.37.336-4.33-7.66-12.833-13.45-23.145-13.45-14.643 0-26.514 11.743-26.514 26.23 0 14.485 11.87 26.228 26.514 26.228H66.57c10.983 0 19.886-8.807 19.886-19.672 0-19.55-20.546-19.67-19.884-19.67z" fill="#FFF"/><path d="M37.198 47.246c-1.83 0-3.314 1.468-3.314 3.28v26.23c0 1.81 1.484 3.278 3.314 3.278s3.314-1.468 3.314-3.28v-26.23c0-1.81-1.483-3.278-3.314-3.278zm13.257 6.557c-1.83 0-3.314 1.468-3.314 3.28V83.31c0 1.812 1.485 3.28 3.315 3.28 1.83 0 3.314-1.468 3.314-3.28V57.083c0-1.81-1.484-3.28-3.315-3.28zm13.257-6.557c-1.83 0-3.314 1.468-3.314 3.28v26.23c0 1.81 1.484 3.278 3.314 3.278s3.314-1.468 3.314-3.28v-26.23c0-1.81-1.483-3.278-3.314-3.278z" fill="#4996DC"/></svg>