
<svg xmlns="http://www.w3.org/2000/svg" viewBox="0 0 100 100"><path d="M30.077 60.593l-4.687 4.62a3.237 3.237 0 0 0 0 4.622 3.348 3.348 0 0 0 4.687 0l4.687-4.62a3.237 3.237 0 0 0 0-4.622 3.348 3.348 0 0 0-4.687 0zm-3.08-18.484c0-1.806-1.483-3.27-3.313-3.27h-6.628c-1.83 0-3.314 1.464-3.314 3.27 0 1.803 1.484 3.267 3.314 3.267h6.628c1.83 0 3.314-1.464 3.314-3.268zm26.516-26.142c1.83 0 3.314-1.463 3.314-3.267V6.167c0-1.805-1.484-3.268-3.314-3.268S50.2 4.36 50.2 6.166V12.7c-.002 1.806 1.482 3.268 3.313 3.268zm23.435 7.657l4.687-4.62a3.237 3.237 0 0 0 0-4.622 3.348 3.348 0 0 0-4.687 0l-4.687 4.62a3.239 3.239 0 0 0 0 4.622 3.35 3.35 0 0 0 4.688 0zm-46.87 0c1.293 1.276 3.392 1.276 4.686 0s1.294-3.345 0-4.62l-4.687-4.622a3.348 3.348 0 0 0-4.687 0 3.234 3.234 0 0 0 0 4.62l4.687 4.622zm46.87 36.968a3.348 3.348 0 0 0-4.687 0 3.236 3.236 0 0 0 0 4.62l4.688 4.622a3.348 3.348 0 0 0 4.687 0 3.234 3.234 0 0 0 0-4.62l-4.687-4.622zM53.513 68.25c-1.83 0-3.314 1.463-3.314 3.268v6.535c0 1.805 1.483 3.267 3.313 3.267s3.314-1.463 3.314-3.267v-6.535c0-1.805-1.484-3.268-3.314-3.268zM89.97 38.842h-6.63c-1.83 0-3.313 1.463-3.313 3.268 0 1.804 1.484 3.268 3.314 3.268h6.63c1.83 0 3.314-1.463 3.314-3.268 0-1.806-1.484-3.268-3.314-3.268zm-36.457-16.34c-10.982 0-19.885 8.78-19.885 19.607s8.903 19.604 19.885 19.604c10.983 0 19.886-8.778 19.886-19.605-.002-10.83-8.905-19.607-19.887-19.607z" fill="#FFEC6A"/><path d="M59.745 44.102c-1.154 0-2.27.15-3.37.335-4.33-7.633-12.833-13.405-23.144-13.405-14.642 0-26.513 11.703-26.513 26.14 0 14.438 11.87 26.14 26.514 26.14h26.515c10.982 0 19.885-8.777 19.885-19.604 0-19.485-20.547-19.606-19.885-19.606z" fill="#AAA"/><path fill="#FFEC6A" d="M62.774 71.593H51.36l9.784-15.945H44.838l-8.152 22.32h10.762l-5.87 19.134"/></svg>