<svg xmlns="http://www.w3.org/2000/svg" viewBox="0 0 100 100"><path d="M26.47 31.453a3.362 3.362 0 0 0 4.705 0 3.244 3.244 0 0 0 0-4.637L26.47 22.18a3.365 3.365 0 0 0-4.707 0 3.243 3.243 0 0 0 0 4.636l4.706 4.637zm47.06 0l4.707-4.637a3.244 3.244 0 0 0 0-4.637 3.364 3.364 0 0 0-4.706 0l-4.705 4.636a3.244 3.244 0 0 0 0 4.637 3.364 3.364 0 0 0 4.706 0zM50 23.77c1.838 0 3.328-1.467 3.328-3.277v-6.557c0-1.81-1.49-3.28-3.328-3.28-1.838 0-3.328 1.47-3.328 3.28v6.557c0 1.81 1.49 3.278 3.328 3.278zM26.47 68.548l-4.707 4.637a3.244 3.244 0 0 0 0 4.637 3.36 3.36 0 0 0 4.706 0l4.705-4.636a3.244 3.244 0 0 0 0-4.637 3.364 3.364 0 0 0-4.706 0zM23.377 50c0-1.81-1.49-3.28-3.328-3.28h-6.656c-1.838 0-3.328 1.47-3.328 3.28 0 1.81 1.49 3.28 3.328 3.28h6.656c1.838 0 3.328-1.47 3.328-3.28zm63.228-3.278H79.95c-1.838 0-3.328 1.468-3.328 3.28 0 1.81 1.49 3.278 3.328 3.278h6.656c1.838 0 3.328-1.468 3.328-3.28 0-1.81-1.49-3.278-3.328-3.278zM50 76.23c-1.838 0-3.328 1.468-3.328 3.28v6.556c0 1.81 1.49 3.28 3.328 3.28 1.838 0 3.328-1.47 3.328-3.28V79.51c0-1.812-1.49-3.28-3.328-3.28zm23.53-7.683a3.362 3.362 0 0 0-4.705 0 3.244 3.244 0 0 0 0 4.637l4.706 4.637a3.361 3.361 0 0 0 4.707 0 3.243 3.243 0 0 0 0-4.636l-4.706-4.637zM50 30.327c-11.027 0-19.967 8.81-19.967 19.673 0 10.865 8.94 19.672 19.967 19.672S69.967 60.864 69.967 50 61.027 30.328 50 30.328z" fill="#FFEC6A"/></svg>