<svg xmlns="http://www.w3.org/2000/svg" viewBox="0 0 100 100"><path d="M36.71 77.13v-9.995h2.308v10.02c0 .657.094 1.213.28 1.67s.458.808.81 1.06.75.43 1.195.54c.443.108.954.163 1.53.163 1.19 0 2.116-.26 2.78-.78.663-.52.995-1.402.995-2.65V67.134h2.306v9.994c0 .765-.11 1.453-.33 2.063s-.514 1.12-.885 1.524c-.37.405-.817.74-1.34 1.005s-1.072.456-1.653.574-1.206.178-1.874.178a9.44 9.44 0 0 1-1.866-.178c-.586-.118-1.142-.312-1.668-.58s-.98-.607-1.36-1.013-.68-.914-.898-1.524c-.22-.61-.33-1.294-.33-2.05zm19.48 5.003l-5.835-14.998h2.457l3.322 8.914 1.372 3.8c.312-.976.74-2.233 1.29-3.773.696-1.94 1.776-4.922 3.24-8.94h2.443l-5.794 14.997H56.19z" fill="#333"/><path d="M13.876 58.802H5.848c-2.217 0-4.014 1.79-4.014 3.996a4.006 4.006 0 0 0 4.014 3.997h8.028c2.217 0 4.014-1.79 4.014-3.997s-1.797-3.996-4.014-3.996zM50 30.827a4.006 4.006 0 0 0 4.014-3.997v-7.993c0-2.207-1.797-3.997-4.014-3.997s-4.014 1.79-4.014 3.997v7.993A4.006 4.006 0 0 0 50 30.827zM27.294 34.54l-5.676-5.653a4.028 4.028 0 0 0-5.677 0 3.987 3.987 0 0 0 0 5.652l5.678 5.65a4.023 4.023 0 0 0 5.676 0 3.981 3.981 0 0 0 0-5.65zM94.152 58.8h-8.028c-2.217 0-4.014 1.79-4.014 3.996a4.006 4.006 0 0 0 4.014 3.997h8.028c2.217 0 4.014-1.79 4.014-3.997S96.369 58.8 94.152 58.8zM84.058 28.887a4.027 4.027 0 0 0-5.676 0l-5.676 5.652a3.983 3.983 0 0 0 0 5.65 4.023 4.023 0 0 0 5.676 0l5.676-5.65a3.985 3.985 0 0 0 0-5.653zM50 38.82c-13.3 0-24.083 10.736-24.083 23.978 0-.19 6.954 0 8.027 0h40.138c0-13.243-10.78-23.978-24.082-23.978z" fill="#FFEC6A"/></svg>