<svg xmlns="http://www.w3.org/2000/svg" viewBox="0 0 100 100"><path d="M81.513 48.818h-7.548l4.73-8.756h-9.183L64.26 53.127h7.116l-3.882 12.925 14.02-17.234zm-.452-18.484c-.75 0-1.476.098-2.192.22-2.95-5.27-8.585-8.837-15.06-8.837-9.528 0-17.252 7.716-17.252 17.234 0 7.74 5.106 14.286 12.137 16.465l1.455-4.07c-5.362-1.58-9.28-6.526-9.28-12.394 0-7.137 5.794-12.924 12.94-12.924 6.138 0 11.25 4.28 12.58 10.007a8.568 8.568 0 0 1 4.672-1.39c4.764 0 8.626 3.858 8.626 8.617 0 3.81-2.476 7.034-5.906 8.173l-3.865 4.752h1.146c7.147 0 12.94-5.788 12.94-12.926 0-7.14-5.793-12.926-12.94-12.926zm7.58 29.597h-7.645l-3.823 10.706h5.046l-2.753 9.176 9.94-12.235h-5.352l4.588-7.646z" fill="#FFF"/><path d="M42.267 14.837L6 85.163h70.4L42.267 14.837zm-.24 19.66l20.327 41.876h-41.92l21.594-41.877zm.098 31.042a3.188 3.188 0 1 0 0 6.374 3.188 3.188 0 1 0 0-6.375zm1.596-2.354l1.596-17.58h-6.382l1.596 17.58h3.19z" fill="#FFF"/></svg>