<svg xmlns="http://www.w3.org/2000/svg" viewBox="0 0 60.01 37.54"><defs><style>.cls-1{fill:#333}</style></defs><title>Asset 2</title><g id="Layer_2" data-name="Layer 2"><g id="Layer_1-2" data-name="Layer 1"><path class="cls-1" d="M11.62,17.15V29.82c0,2.54,8.24,6.44,18.39,6.44s18.39-3.89,18.39-6.44V17.15L30,23.72Zm0,0"/><path class="cls-1" d="M10.16,33.59V14H8V33.59A2.1,2.1,0,0,0,7,35.4a2.14,2.14,0,1,0,4.28,0,2.1,2.1,0,0,0-1.07-1.81Zm0,0"/><path class="cls-1" d="M27.92,10A2.22,2.22,0,0,1,30,8.48a2.24,2.24,0,1,1-1.71,3.62L11.21,14.73,30,21.43,60,10.72,30,0,0,10.72l7,2.49Zm0,0"/></g></g></svg>