<svg viewBox="0 0 44 44" xmlns="http://www.w3.org/2000/svg" fill-rule="evenodd" clip-rule="evenodd" stroke-linejoin="round" stroke-miterlimit="1.41421"><g><path d="M841.372,192.291L836.646,187.566C837.505,186.449 837.935,185.074 837.935,183.527C837.935,179.747 834.842,176.653 831.061,176.653C827.281,176.653 824.187,179.747 824.187,183.527C824.187,187.308 827.281,190.401 831.061,190.401C832.608,190.401 833.983,189.885 835.1,189.112L839.825,193.838C839.997,194.01 840.169,194.096 840.341,194.096C840.513,194.096 840.685,194.01 840.856,193.924L841.372,193.408C841.544,193.236 841.544,193.065 841.544,192.893C841.544,192.635 841.544,192.463 841.372,192.291ZM831.061,188.768C828.226,188.768 825.906,186.449 825.906,183.613C825.906,180.778 828.226,178.458 831.061,178.458C833.897,178.458 836.217,180.778 836.217,183.613C836.217,186.449 833.897,188.768 831.061,188.768ZM808.721,187.823C807.776,187.823 807.003,187.909 807.003,186.964L807.003,170.897C807.003,169.951 807.776,169.178 808.721,169.178L813.963,169.178L813.963,166.6C813.963,164.195 815.939,162.304 818.259,162.304L823.156,162.304C825.562,162.304 827.453,164.281 827.453,166.6L827.453,169.178L832.866,169.178C833.811,169.178 834.584,169.951 834.584,170.897L834.584,176.511C833.463,175.89 832.174,175.536 830.804,175.536C826.488,175.536 822.985,179.04 822.985,183.355C822.985,185.016 823.503,186.556 824.388,187.823L808.721,187.823ZM823.156,164.538L818.259,164.538C817.142,164.538 816.197,165.483 816.197,166.6L816.197,169.178L825.219,169.178L825.219,166.6C825.219,165.483 824.273,164.538 823.156,164.538Z" fill="#333230" transform="matrix(1.27385,0,0,1.27385,-1028,-205)"/></g></svg>