<svg version="1.1" id="Ebene_1" xmlns="http://www.w3.org/2000/svg" xmlns:xlink="http://www.w3.org/1999/xlink" x="0" y="0" viewBox="0 0 24.1 21.5" xml:space="preserve" enable-background="new 0 0 24.1 21.5"><path d="M23.3,0C23.2,0,23.2,0,23.3,0c0,0-0.1,0-0.1,0C23.1,0,23,0,23,0C12.4,2.8,9.1,9,8.2,11.7c-2.6-1.7-5-2-6.2-2	c-0.8,0-1.3,0.1-1.3,0.1C0.3,9.8,0.1,10.1,0,10.5c-0.1,0.3,0.1,0.7,0.4,0.9c6.5,4,7.7,9.4,7.7,9.5c0.1,0.4,0.4,0.7,0.8,0.7	c0,0,0,0,0,0c0.4,0,0.7-0.2,0.8-0.6C13,10.3,23.2,2,23.7,1.5c0.2-0.2,0.3-0.4,0.3-0.7C24.1,0.4,23.7,0,23.3,0z"/></svg>