<svg width="44" height="44" viewBox="0 0 44 44" xmlns="http://www.w3.org/2000/svg"><g fill="#333" fill-rule="evenodd"><path d="M21.75 39.342c-9.44 0-17.093-7.653-17.093-17.093 0-9.44 7.654-17.096 17.094-17.096 9.443 0 17.096 7.654 17.096 17.094 0 9.44-7.653 17.092-17.094 17.092m0-37.844C10.29 1.498 1 10.788 1 22.248S10.29 43 21.75 43s20.753-9.29 20.753-20.75S33.21 1.5 21.75 1.5"/><path d="M22.848 22.545V11.46c0-.255-.213-.46-.476-.46h-2.895c-.264 0-.477.205-.477.46v12.236c0 .035.013.063.02.094-.034.148 0 .307.12.42l9 8.655c.186.18.487.18.672 0l2.05-1.968c.184-.18.184-.468 0-.648l-8.014-7.706z"/></g></svg>