<svg width="100%" height="100%" version="1.1" xmlns="http://www.w3.org/2000/svg" xmlns:xlink="http://www.w3.org/1999/xlink" viewBox="0 0 64 64" style="transform:rotate(90);backface-visibility:hidden;transform-origin:50% 50% 0" cursor="move"><g><path d="M11.514,24.646c-4.056,0-7.355,3.299-7.355,7.354c0,4.056,3.299,7.354,7.355,7.354c4.054,0,7.354-3.298,7.354-7.354 C18.868,27.945,15.568,24.646,11.514,24.646z"/><path d="M32.361,24.646c-4.056,0-7.355,3.299-7.355,7.354c0,4.056,3.299,7.354,7.355,7.354c4.055,0,7.355-3.298,7.355-7.354 C39.716,27.945,36.416,24.646,32.361,24.646z"/><path d="M52.487,24.646c-4.055,0-7.354,3.299-7.354,7.354c0,4.056,3.3,7.354,7.354,7.354c4.054,0,7.354-3.298,7.354-7.354 C59.841,27.945,56.541,24.646,52.487,24.646z"/></g></svg>