<svg width="44" height="44" viewBox="0 0 44 44" xmlns="http://www.w3.org/2000/svg"><title>euro-icon</title><path d="M17.35 29.236h11.436V24.84H16.852l-.06-1.118v-1.58l.06-1.294h13.776v-4.423H17.29c.585-3.255 1.75-5.687 3.495-7.296 1.746-1.61 3.994-2.413 6.743-2.413 2.34 0 5.01.726 8.014 2.183L38 3.528C34.918 1.843 31.428 1 27.528 1c-4.72 0-8.57 1.37-11.555 4.107-2.982 2.74-4.845 6.512-5.586 11.318H6v4.423h3.978l-.06 1.867v1.063l.06 1.063H6v4.396h4.445c.9 4.788 2.813 8.445 5.748 10.973C19.128 42.736 22.946 44 27.645 44c3.394 0 6.366-.583 8.922-1.753v-5.83c-2.926 1.187-5.783 1.78-8.57 1.78-5.852 0-9.4-2.986-10.648-8.96" fill="#333" fill-rule="evenodd"/></svg>