<svg id="Ebene_2" data-name="Ebene 2" xmlns="http://www.w3.org/2000/svg" viewBox="0 0 59.4 84.1"><defs><style>.cls-1{fill:#999}</style></defs><title>firma</title><path id="_Zusammengesetzter_Pfad_" data-name="&lt;Zusammengesetzter Pfad&gt;" class="cls-1" d="M42.5,53.7H53.1V64.4H42.5Zm0-16.1H53.1V48.3H42.5ZM31.9,16.1H21.3V5.4H31.9Zm0,16.1H21.3V21.5H31.9ZM21.3,48.3V37.6H31.9V48.3m0,16.1H21.3V53.7H31.9ZM5.3,53.7H16V64.4H5.3Zm0-16.1H16V48.3H5.3Zm0-16.1H16V32.2H5.3Zm0-16.1H16V16.1H5.3ZM1,0A.92.92,0,0,0,0,.9V84.1H59.4V33.3a1,1,0,0,0-1-1.1H37.2V1.1A1,1,0,0,0,36.1,0H1.7" transform="translate(0 0)"/></svg>