<svg id="Ebene_7" data-name="Ebene 7" xmlns="http://www.w3.org/2000/svg" viewBox="0 0 58.56 50.2"><defs><style>.cls-1{fill:#343331}</style></defs><title>Jobs</title><path class="cls-1" d="M49.44,52.08l-5.52.17-.17-2.84L29.7,52.25,15.65,49.4l-.17,2.84L10,52.08l.17-3.51-9-1.84v17.4a3.36,3.36,0,0,0,3.35,3.35H55a3.36,3.36,0,0,0,3.35-3.35h0V46.73l-9,1.84Z" transform="translate(-0.42 -17.28)"/><path class="cls-1" d="M55,25.64H42.25V21.46a4.25,4.25,0,0,0-4.18-4.18H21.33a4.14,4.14,0,0,0-4.18,4.18h0v4.18H4.43a4.07,4.07,0,0,0-4,4h0V43.71l9.87,2,.17-3.35,5.52.17-.17,4.18L29.7,49.4l13.89-2.68-.17-4.18,5.52-.17.17,3.35L59,43.88V29.83a4.22,4.22,0,0,0-4-4.18Zm-16.9,0H21.33V23a1.5,1.5,0,0,1,1.51-1.51H36.73A1.5,1.5,0,0,1,38.23,23l-.17,2.68Z" transform="translate(-0.42 -17.28)"/></svg>