<svg xmlns="http://www.w3.org/2000/svg" xmlns:xlink="http://www.w3.org/1999/xlink" viewBox="0 0 114 100"><defs><style>.a{isolation:isolate}.b{opacity:.18;mix-blend-mode:multiply}.c{fill:#333}</style></defs><title>default_Jobs</title><g class="a"><path class="c" d="M130,90.95l-9.62.34-0.17-4.77L96,91.12,71.8,86.52l-0.17,4.77L62,90.95l0.22-6.25-15.57-3v30.2a5.65,5.65,0,0,0,5.64,5.65h87.39a5.64,5.64,0,0,0,5.64-5.65V81.73l-15.57,3Z" transform="translate(-39 -24)"/><path class="c" d="M139.49,45.42H117.66V38.21A7.22,7.22,0,0,0,110.43,31H81.57a7.22,7.22,0,0,0-7.23,7.22v7.21H52.51a7,7,0,0,0-7,7.06V76.69L62.4,79.92l0.2-5.79,9.62,0.34L72,81.74l24,4.57,24-4.57-0.25-7.28,9.62-.34,0.2,5.79,16.94-3.22V52.48A7.06,7.06,0,0,0,139.49,45.42Zm-29.05,0H81.56V40.61A2.41,2.41,0,0,1,84,38.21H108a2.41,2.41,0,0,1,2.41,2.4v4.81Z" transform="translate(-39 -24)"/></g></svg>