<svg id="Ebene_4" data-name="Ebene 4" xmlns="http://www.w3.org/2000/svg" viewBox="0 0 58.78 78.81"><defs><style>.cls-1{fill:#999}</style></defs><title>azubi</title><path class="cls-1" d="M44.21,13.89C43.77,7.56,37.43,2.7,29.63,2.7S15.34,7.7,15,13.89A29.23,29.23,0,0,0,.31,39.37V74.14A7.39,7.39,0,0,0,7.68,81.5h44a7.39,7.39,0,0,0,7.37-7.37V39.23A29.61,29.61,0,0,0,44.21,13.89ZM29.63,6.23c4.86,0,9,2.36,10.46,5.6A30.47,30.47,0,0,0,29.77,9.91h0a29.17,29.17,0,0,0-10.31,1.92C20.64,8.59,24.77,6.23,29.63,6.23ZM51.58,75.91H7.68V59.41h5.45v5.45h3.68V59.41H51.72l-.15,16.5Zm0-20.18H7.68V52h44l-.15,3.68Z" transform="translate(-0.31 -2.69)"/></svg>