<svg xmlns="http://www.w3.org/2000/svg" width="14" height="14" viewBox="0 0 57.99 60.89"><defs><style>.cls-1{fill:#999}</style></defs><path class="cls-1" d="M25.67,59.38c-7.36,0-11.38-5.8-11.38-12.94,0-10.93,8.25-20.07,18.74-20.07A34.16,34.16,0,0,1,44.19,28.6l.89.22-.22,1.12c-1.34,5.8-2.9,11.82-3.79,17.4a18.22,18.22,0,0,0-.22,3.12c0,2.23.67,2.9,2.45,2.9,5.58,0,8.25-7.58,8.25-14.28,0-12.49-7.81-19.63-20.07-19.63h0c-4.91-.22-13.16,3.12-16.51,6.47-4.68,4.91-6.47,13.83-6.47,17,0,14.5,9.15,23.64,23.64,23.64,6.91,0,12.49-2,16.51-5.35l.89-.67,4.24,4.91-.89.67c-4.91,4.46-12,7.14-20.74,7.14A33.53,33.53,0,0,1,9.84,65,30.49,30.49,0,0,1,.91,42.88c0-9.37,4.24-16.51,8.92-21.64a30.71,30.71,0,0,1,21.64-8.92,27.05,27.05,0,0,1,19,7.14,25.59,25.59,0,0,1,8.48,19.41c0,9.15-4.46,16.06-10.48,19.41a12.37,12.37,0,0,1-6.25,1.56c-4,0-6.25-1.78-7.58-4.68C32.14,57.6,29.46,59.38,25.67,59.38ZM27,52.25c6.69-.45,8.7-11.15,10-19.18a30.48,30.48,0,0,0-4.24-.45c-6.25,0-10.71,6.69-10.71,14.05,0,3.57,1.34,5.58,4.24,5.58Z" transform="translate(-0.91 -12.32)"/></svg>