<svg version="1.1" id="Ebene_1" xmlns="http://www.w3.org/2000/svg" xmlns:xlink="http://www.w3.org/1999/xlink" x="0" y="0" viewBox="0 0 80 80" xml:space="preserve" enable-background="new 0 0 80 80"><style type="text/css">.st0{fill:#343434}</style><g id="Icon"><g><path class="st0" d="M49.9,20.9c-0.3-4.3-4.6-7.6-9.9-7.6s-9.7,3.4-9.9,7.6c-6,3.4-10,9.9-10,17.3v23.6c0,2.7,2.2,5,5,5H55 c2.7,0,5-2.2,5-5V38.1C59.9,30.8,55.9,24.3,49.9,20.9z M40,15.7c3.3,0,6.1,1.6,7.1,3.8c-2.2-0.8-4.6-1.3-7-1.3l0,0 c-2.5,0-4.9,0.5-7,1.3C33.9,17.3,36.7,15.7,40,15.7z M54.9,63H25.1V51.8h3.7v3.7h2.5v-3.7H55L54.9,63L54.9,63z M54.9,49.3H25.1 v-2.5H55L54.9,49.3L54.9,49.3z"/></g></g></svg>