<svg viewBox="0 0 44 44" xmlns="http://www.w3.org/2000/svg" fill-rule="evenodd" clip-rule="evenodd"
     stroke-linejoin="round" stroke-miterlimit="1.41421">
    <g>
        <path d="M494.79,182.609L494.57,183.987C495.837,184.262 496.729,184.782 496.729,185.112C496.729,185.608 495.132,186.49 492.433,186.49C489.734,186.49 488.137,185.608 488.137,185.112C488.137,184.782 489.042,184.286 490.308,184.01L490.143,182.632C488.381,183.018 486.815,183.845 486.815,185.112C486.815,186.931 489.679,187.868 492.488,187.868C495.297,187.868 498.161,186.931 498.161,185.112C498.106,183.845 496.553,182.995 494.79,182.609ZM493.176,163.069C493.27,163.069 493.345,163.144 493.345,163.238L493.345,164.832L497.445,164.832C497.885,164.832 498.106,165.053 498.106,165.493L498.106,169.682C498.106,170.123 497.885,170.343 497.445,170.343L493.345,170.343L493.345,172.603L500.97,172.603C501.41,172.603 504.109,175.082 504.109,175.082C504.109,175.082 504.33,175.303 504.109,175.523C504.054,175.523 501.355,178.058 500.97,178.058L493.345,178.106L493.345,183.734C493.345,183.827 493.27,183.903 493.176,183.903L491.824,183.903C491.73,183.903 491.655,183.827 491.655,183.734L491.655,178.113L487.255,178.113C486.815,178.113 486.594,177.893 486.594,177.452L486.594,173.209C486.594,172.768 486.815,172.547 487.255,172.547L491.655,172.547L491.655,170.288L484.006,170.288C483.565,170.288 480.866,167.808 480.866,167.808C480.866,167.808 480.701,167.588 480.866,167.367C480.921,167.367 483.62,164.832 484.006,164.832L491.655,164.832L491.655,163.238C491.655,163.144 491.73,163.069 491.824,163.069L493.176,163.069Z"
              fill="#333" transform="matrix(1.77425,2.12801e-48,0,1.77425,-851.819,-289.325)"/>
    </g>
</svg>
