<svg version="1.1" id="Ebene_1" xmlns="http://www.w3.org/2000/svg" x="0" y="0" viewBox="0 0 32 25.3" xml:space="preserve"><defs><style>.svg-slider{fill:#000100;fill-rule:evenodd}</style></defs><g><path fill="currentColor" class="svg-slider" d="M1,5h3.6c0.4,1.7,2,3,3.9,3c1.9,0,3.4-1.3,3.9-3H31c0.6,0,1-0.4,1-1s-0.4-1-1-1H12.3c-0.4-1.7-2-3-3.9-3C6.6,0,5,1.3,4.6,3 H1C0.4,3,0,3.4,0,4S0.4,5,1,5z"/><path fill="currentColor" d="M31,11.7h-3.6c-0.4-1.7-2-3-3.9-3c-1.9,0-3.4,1.3-3.9,3H1c-0.6,0-1,0.4-1,1s0.4,1,1,1h18.7c0.4,1.7,2,3,3.9,3 c1.9,0,3.4-1.3,3.9-3H31c0.6,0,1-0.4,1-1S31.6,11.7,31,11.7z"/><path fill="currentColor" d="M31,20.3H12.3c-0.4-1.7-2-3-3.9-3c-1.9,0-3.4,1.3-3.9,3H1c-0.6,0-1,0.4-1,1s0.4,1,1,1h3.6c0.4,1.7,2,3,3.9,3 c1.9,0,3.4-1.3,3.9-3H31c0.6,0,1-0.4,1-1S31.6,20.3,31,20.3z"/></g></svg>