<svg version="1.1" id="Ebene_1" xmlns="http://www.w3.org/2000/svg" xmlns:xlink="http://www.w3.org/1999/xlink" x="0" y="0" viewBox="0 0 22.6 19.3" xml:space="preserve" enable-background="new 0 0 22.6 19.3"><g><path d="M13.8,7.2h-0.1c-1.5,0-2.7,0.5-3.8,1.7C9.3,7.8,8.3,7.2,6.9,7.2H6.8c-1.3,0-2.6,0.6-3.6,1.6L3.1,7.9c0-0.1-0.1-0.2-0.3-0.2 H0.3C0.1,7.6,0,7.7,0,7.9V19c0,0.2,0.1,0.3,0.3,0.3h3c0.2,0,0.3-0.1,0.3-0.3v-7.5c0.6-1,1.4-1.5,2.2-1.5c1,0,1.4,0.7,1.4,2.7V19 c0,0.2,0.1,0.3,0.3,0.3h3c0.2,0,0.3-0.1,0.3-0.3v-7.5c0.4-0.7,1-1.5,2.3-1.6l0.1,0c1,0,1.2,0.6,1.2,2.9V19c0,0.2,0.1,0.3,0.3,0.3h3 c0.2,0,0.3-0.1,0.3-0.3v-6.8C17.7,8.1,15.6,7.2,13.8,7.2z"/><path d="M22.2,6h-2.1c1.1-0.8,2.5-2,2.5-3.7c0-1.4-1.1-2.4-2.7-2.4c-1.6,0-2.7,1.2-2.8,1.3c0,0.1,0,0.2,0,0.3l0.8,1.1 c0.1,0.1,0.1,0.1,0.2,0.1c0,0,0,0,0,0c0.1,0,0.2,0,0.2-0.1c0.4-0.5,1-0.8,1.5-0.8c0.4,0,0.4,0.2,0.4,0.4c0,0.6-0.6,1.2-2.7,3.5 l-0.4,0.4c0,0.1-0.1,0.1-0.1,0.2v1.1c0,0.2,0.1,0.3,0.3,0.3h4.7c0.2,0,0.3-0.1,0.3-0.3V6.3C22.4,6.1,22.3,6,22.2,6z"/></g></svg>