<svg id="Ebene_8" data-name="Ebene 8" xmlns="http://www.w3.org/2000/svg" viewBox="0 0 57.6 78.55"><defs><style>.cls-1{fill:#999}</style></defs><title>standort</title><path class="cls-1" d="M29.89,2.08a28.8,28.8,0,0,0-28.8,28.8c0,16,28.8,49.75,28.8,49.75S58.69,47,58.69,30.88A28.8,28.8,0,0,0,29.89,2.08Zm0,44.12A15.21,15.21,0,1,1,45.1,31h0A15.21,15.21,0,0,1,29.89,46.2Z" transform="translate(-1.09 -2.08)"/><path class="cls-1" d="M29.89,2.08a28.8,28.8,0,0,0-28.8,28.8c0,16,28.8,49.75,28.8,49.75S58.69,47,58.69,30.88A28.8,28.8,0,0,0,29.89,2.08Zm0,44.12A15.21,15.21,0,1,1,45.1,31h0A15.21,15.21,0,0,1,29.89,46.2Z" transform="translate(-1.09 -2.08)"/></svg>