<svg version="1" xmlns="http://www.w3.org/2000/svg" viewBox="0 0 100 100"><defs><path id="a" d="M149.953 23.734c-19.824 0-35.895 14.112-35.895 25.6 0-2.65 4.017-4.8 8.973-4.8 4.957 0 8.976 2.15 8.976 4.8 0-2.65 4.016-4.8 8.973-4.8 3.04 0 5.718.815 7.34 2.053v13.947h-1.632v6.4c0 1.768-1.46 3.2-3.263 3.2-1.8 0-3.262-1.432-3.262-3.2 0-1.767-1.46-3.2-3.264-3.2-1.803 0-3.263 1.433-3.263 3.2 0 5.303 4.382 9.6 9.788 9.6 5.408 0 9.79-4.298 9.79-9.6v-6.4h-1.63V46.586c1.62-1.238 4.298-2.052 7.342-2.052 4.956 0 8.972 2.15 8.972 4.8 0-2.65 4.018-4.8 8.974-4.8s8.975 2.15 8.975 4.8c0-11.488-16.074-25.6-35.897-25.6z"/></defs><path d="M69.994 25.734c-1.393 0-2.738.18-4.066.407C60.703 16.864 50.445 9.85 38.004 9.85c-17.667 0-31.99 14.225-31.99 31.773 0 17.55 14.322 31.774 31.99 31.774h31.99c13.25 0 23.992-10.67 23.992-23.83 0-23.684-24.79-23.83-23.992-23.83z" fill="#AAA"/><path fill="#FFEC6A" d="M73.65 59.147H59.88l11.802-19.38H52.01l-9.836 27.13h12.984l-7.082 23.255"/></svg>