<svg version="1" xmlns="http://www.w3.org/2000/svg" viewBox="0 0 100 100"><path d="M59.72 57.553V30.8c0-5.3-4.352-9.6-9.718-9.6-5.37 0-9.72 4.3-9.72 9.6v26.752c-2.01 2.255-3.24 5.207-3.24 8.448 0 7.068 5.803 12.8 12.96 12.8 7.155 0 12.956-5.732 12.956-12.8 0-3.24-1.228-6.193-3.238-8.447zM50.002 72.4c-3.58 0-6.48-2.865-6.48-6.4 0-2.363 1.312-4.404 3.24-5.513V30.8c0-1.766 1.45-3.2 3.24-3.2 1.788 0 3.24 1.434 3.24 3.2v29.687c1.927 1.11 3.238 3.15 3.238 5.513 0 3.535-2.9 6.4-6.478 6.4z" fill="#333"/><path d="M51.622 61.494V30.8c0-.884-.726-1.6-1.62-1.6-.895 0-1.62.717-1.62 1.6v30.693c-1.883.66-3.24 2.42-3.24 4.507 0 2.65 2.175 4.8 4.86 4.8 2.683 0 4.858-2.15 4.858-4.8 0-2.088-1.356-3.846-3.238-4.506z" fill="#E7522F"/><defs><path id="a" d="M-50.047 23.734c-19.824 0-35.895 14.112-35.895 25.6 0-2.65 4.017-4.8 8.973-4.8 4.957 0 8.976 2.15 8.976 4.8 0-2.65 4.016-4.8 8.973-4.8 3.04 0 5.718.815 7.34 2.053v13.947h-1.632v6.4c0 1.768-1.46 3.2-3.263 3.2-1.8 0-3.262-1.432-3.262-3.2 0-1.767-1.46-3.2-3.264-3.2-1.803 0-3.263 1.433-3.263 3.2 0 5.303 4.382 9.6 9.788 9.6 5.408 0 9.79-4.298 9.79-9.6v-6.4h-1.63V46.586c1.62-1.238 4.298-2.052 7.342-2.052 4.956 0 8.972 2.15 8.972 4.8 0-2.65 4.018-4.8 8.974-4.8s8.975 2.15 8.975 4.8c0-11.488-16.074-25.6-35.897-25.6z"/></defs></svg>