<svg version="1" xmlns="http://www.w3.org/2000/svg" viewBox="0 0 100 100"><defs><path id="a" d="M449.953 23.734c-19.824 0-35.895 14.112-35.895 25.6 0-2.65 4.017-4.8 8.973-4.8 4.957 0 8.976 2.15 8.976 4.8 0-2.65 4.016-4.8 8.973-4.8 3.04 0 5.718.815 7.34 2.053v13.947h-1.632v6.4c0 1.768-1.46 3.2-3.263 3.2-1.8 0-3.262-1.432-3.262-3.2 0-1.767-1.46-3.2-3.264-3.2-1.803 0-3.263 1.433-3.263 3.2 0 5.303 4.382 9.6 9.788 9.6 5.408 0 9.79-4.298 9.79-9.6v-6.4h-1.63V46.586c1.62-1.238 4.298-2.052 7.342-2.052 4.956 0 8.972 2.15 8.972 4.8 0-2.65 4.018-4.8 8.974-4.8s8.975 2.15 8.975 4.8c0-11.488-16.074-25.6-35.897-25.6z"/></defs><path d="M77.94 46.035c-.453 0-.897.037-1.343.067-2.7-5.84-7.432-10.572-13.306-13.306.446 1.764.708 3.6.708 5.5 0 .832-.052 1.652-.14 2.462L15.575 60.635c-2.238-.46-4.312-1.358-6.11-2.62-.887 2.2-1.383 4.597-1.383 7.112 0 10.657 8.754 19.297 19.553 19.297h19.45v-.036c.486-.025.964-.077 1.434-.15 1.02.115 2.055.186 3.106.186H78.94v-.05c10.274-.518 18.45-8.877 18.45-19.144 0-10.6-8.708-19.195-19.45-19.195z" fill="#FFF"/><path d="M40.977 15.577c-9.31 0-17.307 5.463-20.935 13.31-.374-.027-.746-.057-1.127-.057-9.006 0-16.306 7.205-16.306 16.092 0 8.608 6.853 15.616 15.466 16.05v.042h22.9c12.714 0 23.02-10.17 23.02-22.718.002-12.548-10.305-22.72-23.02-22.72z" fill="#EEE"/></svg>