<svg version="1" xmlns="http://www.w3.org/2000/svg" viewBox="0 0 100 100"><path d="M66.695 33.848c-4.61-4.844-7.373-16.46-5.976-22.096-6.442.992-21.03 5.656-19.92 26.113 3 1.074 8.528 6.416 11.95 8.035l9.96 6.026c2.42.777 10.73 9.963 14.2 7.347 6.416-4.84 10.597-13.28 13.71-22.082-9.902 2.427-17.784 3.108-23.925-3.342z" fill="#EEE"/><path d="M62.198 48.732c-1.15 0-2.26.15-3.356.337-4.314-7.693-12.782-13.51-23.052-13.51-14.585 0-26.408 11.795-26.408 26.344 0 14.55 11.823 26.343 26.408 26.343h26.408c10.938 0 19.806-8.846 19.806-19.757 0-19.636-20.465-19.758-19.806-19.758z" fill="#FFF"/><g><defs><path id="a" d="M349.953 123.734c-19.824 0-35.895 14.112-35.895 25.6 0-2.65 4.017-4.8 8.973-4.8 4.957 0 8.976 2.15 8.976 4.8 0-2.65 4.016-4.8 8.973-4.8 3.04 0 5.718.815 7.34 2.053v13.947h-1.632v6.4c0 1.768-1.46 3.2-3.263 3.2-1.8 0-3.262-1.432-3.262-3.2 0-1.767-1.46-3.2-3.264-3.2-1.803 0-3.263 1.433-3.263 3.2 0 5.303 4.382 9.6 9.788 9.6 5.408 0 9.79-4.298 9.79-9.6v-6.4h-1.63v-13.947c1.62-1.238 4.298-2.052 7.342-2.052 4.956 0 8.972 2.15 8.972 4.8 0-2.65 4.018-4.8 8.974-4.8s8.975 2.15 8.975 4.8c0-11.49-16.074-25.6-35.897-25.6z"/></defs></g></svg>