<svg version="1" xmlns="http://www.w3.org/2000/svg" viewBox="0 0 100 100"><path d="M77.94 46.017c-.453 0-.897.037-1.343.067-2.7-5.867-7.432-10.622-13.306-13.368.446 1.772.708 3.616.708 5.524 0 .837-.052 1.66-.14 2.475l-48.282 19.97c-2.238-.464-4.312-1.365-6.11-2.633-.887 2.21-1.383 4.62-1.383 7.145 0 10.707 8.754 19.386 19.553 19.386h19.45v-.036c.486-.025.964-.077 1.434-.15 1.02.114 2.055.186 3.106.186H78.94v-.05c10.275-.52 18.45-8.918 18.45-19.233 0-10.65-8.708-19.283-19.45-19.283z" fill="#FFF"/><path d="M40.977 15.417c-9.31 0-17.307 5.49-20.935 13.37-.374-.025-.746-.056-1.127-.056C9.91 28.73 2.61 35.97 2.61 44.9c0 8.648 6.853 15.69 15.466 16.125v.042h22.9c12.714 0 23.02-10.218 23.02-22.824.002-12.605-10.305-22.823-23.02-22.823z" fill="#EEE"/><g><defs><path id="a" d="M449.953 123.734c-19.824 0-35.895 14.112-35.895 25.6 0-2.65 4.017-4.8 8.973-4.8 4.957 0 8.976 2.15 8.976 4.8 0-2.65 4.016-4.8 8.973-4.8 3.04 0 5.718.815 7.34 2.053v13.947h-1.632v6.4c0 1.768-1.46 3.2-3.263 3.2-1.8 0-3.262-1.432-3.262-3.2 0-1.767-1.46-3.2-3.264-3.2-1.803 0-3.263 1.433-3.263 3.2 0 5.303 4.382 9.6 9.788 9.6 5.408 0 9.79-4.298 9.79-9.6v-6.4h-1.63v-13.947c1.62-1.238 4.298-2.052 7.342-2.052 4.956 0 8.972 2.15 8.972 4.8 0-2.65 4.018-4.8 8.974-4.8s8.975 2.15 8.975 4.8c0-11.49-16.074-25.6-35.897-25.6z"/></defs></g></svg>