<svg version="1" xmlns="http://www.w3.org/2000/svg" viewBox="0 0 100 100"><path d="M66.7 27c-4.613-4.823-7.375-16.39-5.978-22-6.442.988-21.035 5.632-19.924 26 3 1.07 8.53 6.388 11.955 8l9.962 6c2.42.773 10.733 9.92 14.202 7.315 6.418-4.818 10.6-13.222 13.712-21.986C80.724 32.743 72.84 33.42 66.7 27z" fill="#EEE"/><path d="M62.2 41.82c-1.15 0-2.26.15-3.356.336-4.315-7.66-12.784-13.45-23.057-13.45-14.588 0-26.414 11.742-26.414 26.228s11.826 26.23 26.414 26.23H62.2c10.942 0 19.81-8.808 19.81-19.673 0-19.55-20.468-19.67-19.81-19.67z" fill="#AAA"/><path fill="#FFEC6A" d="M65.22 69.404H53.85l9.744-16H47.35l-8.12 22.398h10.72L44.104 95"/><g><defs><path id="a" d="M249.953 123.734c-19.824 0-35.895 14.112-35.895 25.6 0-2.65 4.017-4.8 8.973-4.8 4.957 0 8.976 2.15 8.976 4.8 0-2.65 4.016-4.8 8.973-4.8 3.04 0 5.718.815 7.34 2.053v13.947h-1.632v6.4c0 1.768-1.46 3.2-3.263 3.2-1.8 0-3.262-1.432-3.262-3.2 0-1.767-1.46-3.2-3.264-3.2-1.803 0-3.263 1.433-3.263 3.2 0 5.303 4.382 9.6 9.788 9.6 5.408 0 9.79-4.298 9.79-9.6v-6.4h-1.63v-13.947c1.62-1.238 4.298-2.052 7.342-2.052 4.956 0 8.972 2.15 8.972 4.8 0-2.65 4.018-4.8 8.974-4.8s8.975 2.15 8.975 4.8c0-11.49-16.074-25.6-35.897-25.6z"/></defs></g></svg>