<svg version="1" xmlns="http://www.w3.org/2000/svg" viewBox="0 0 100 100"><path d="M66.57 30.424c-1.153 0-2.268.148-3.37.335-4.534-7.983-13.193-13.386-23.143-13.386-14.643 0-26.514 11.686-26.514 26.102H85.3c-2.73-7.6-10.074-13.052-18.73-13.052zM16.858 56.526h66.285c1.83 0 3.314-1.46 3.314-3.263 0-1.802-1.484-3.263-3.314-3.263H16.857c-1.83 0-3.314 1.46-3.314 3.263 0 1.802 1.484 3.263 3.314 3.263zm66.286 6.525H16.857c-1.83 0-3.314 1.462-3.314 3.264s1.484 3.263 3.314 3.263h66.285c1.83 0 3.314-1.46 3.314-3.263s-1.483-3.263-3.313-3.263zm0 13.052H16.857c-1.83 0-3.314 1.46-3.314 3.263 0 1.802 1.484 3.263 3.314 3.263h66.285c1.83 0 3.314-1.46 3.314-3.263s-1.483-3.263-3.313-3.263z" fill="#FFF"/><defs><path id="a" d="M49.953 123.734c-19.824 0-35.895 14.112-35.895 25.6 0-2.65 4.017-4.8 8.973-4.8 4.957 0 8.976 2.15 8.976 4.8 0-2.65 4.016-4.8 8.973-4.8 3.04 0 5.718.815 7.34 2.053v13.947h-1.632v6.4c0 1.768-1.46 3.2-3.263 3.2-1.8 0-3.262-1.432-3.262-3.2 0-1.767-1.46-3.2-3.264-3.2-1.803 0-3.263 1.433-3.263 3.2 0 5.303 4.382 9.6 9.788 9.6 5.408 0 9.79-4.298 9.79-9.6v-6.4h-1.63v-13.947c1.62-1.238 4.298-2.052 7.342-2.052 4.956 0 8.972 2.15 8.972 4.8 0-2.65 4.018-4.8 8.974-4.8s8.975 2.15 8.975 4.8c0-11.49-16.074-25.6-35.897-25.6z"/></defs></svg>