<svg version="1" xmlns="http://www.w3.org/2000/svg" viewBox="0 0 100 100"><path d="M66.932 24.803c-4.612-4.823-7.374-16.39-5.977-22-6.442.988-21.035 5.632-19.924 26 3.002 1.07 8.532 6.388 11.956 8l9.962 6c2.42.773 10.733 9.92 14.202 7.315 6.418-4.818 10.6-13.222 13.712-21.987-9.904 2.417-17.788 3.096-23.93-3.327z" fill="#EEE"/><path d="M74.533 39.13c-.435 0-.86.036-1.29.065.007.014-3.053-15.282-23.944-15.282-3.856 0-17.325 1.265-23.84 15.06-9.966.436-17.918 8.555-17.918 18.537 0 10.26 8.395 18.577 18.75 18.577h49.2c9.853-.498 17.692-8.594 17.692-18.478 0-10.207-8.35-18.48-18.65-18.48z" fill="#FFF"/><path d="M37.156 52.345c-1.824 0-3.302 1.468-3.302 3.28v26.23c0 1.81 1.478 3.278 3.302 3.278s3.302-1.468 3.302-3.28v-26.23c0-1.81-1.478-3.278-3.302-3.278zm26.414 0c-1.823 0-3.302 1.468-3.302 3.28v26.23c0 1.81 1.478 3.278 3.302 3.278s3.302-1.468 3.302-3.28v-26.23c0-1.81-1.478-3.278-3.302-3.278zm-13.207 6.557c-1.823 0-3.302 1.468-3.302 3.28V88.41c0 1.81 1.48 3.28 3.303 3.28 1.824 0 3.302-1.47 3.302-3.28V62.18c0-1.81-1.478-3.278-3.302-3.278z" fill="#4996DC"/><g><defs><path id="a" d="M-150.047 123.734c-19.824 0-35.895 14.112-35.895 25.6 0-2.65 4.017-4.8 8.973-4.8 4.957 0 8.976 2.15 8.976 4.8 0-2.65 4.016-4.8 8.973-4.8 3.04 0 5.718.815 7.34 2.053v13.947h-1.632v6.4c0 1.768-1.46 3.2-3.263 3.2-1.8 0-3.262-1.432-3.262-3.2 0-1.767-1.46-3.2-3.264-3.2-1.803 0-3.263 1.433-3.263 3.2 0 5.303 4.382 9.6 9.788 9.6 5.408 0 9.79-4.298 9.79-9.6v-6.4h-1.63v-13.947c1.62-1.238 4.298-2.052 7.342-2.052 4.956 0 8.972 2.15 8.972 4.8 0-2.65 4.018-4.8 8.974-4.8s8.975 2.15 8.975 4.8c0-11.49-16.074-25.6-35.897-25.6z"/></defs></g></svg>