<svg version="1" xmlns="http://www.w3.org/2000/svg" viewBox="0 0 100 100"><path d="M66.572 28.062c-1.154 0-2.27.15-3.37.338-4.33-7.695-12.833-13.513-23.144-13.513-14.643 0-26.514 11.798-26.514 26.35 0 14.555 11.87 26.352 26.514 26.352h26.514c10.982 0 19.885-8.85 19.885-19.764 0-19.642-20.547-19.764-19.885-19.764z" fill="#EEE"/><path d="M36.912 71.938c-1.83 0-3.314 1.475-3.314 3.294s1.484 3.294 3.314 3.294 3.314-1.475 3.314-3.294-1.484-3.294-3.314-3.294zm26.514 0c-1.83 0-3.314 1.475-3.314 3.294s1.484 3.294 3.314 3.294 3.314-1.475 3.314-3.294-1.484-3.294-3.314-3.294zM36.912 58.762c-1.83 0-3.314 1.475-3.314 3.294 0 1.82 1.484 3.294 3.314 3.294s3.314-1.475 3.314-3.294c0-1.82-1.484-3.294-3.314-3.294zm26.514 6.588c1.83 0 3.314-1.475 3.314-3.294 0-1.82-1.484-3.294-3.314-3.294s-3.314 1.475-3.314 3.294c0 1.82 1.483 3.294 3.314 3.294zm-13.257 0c-1.83 0-3.315 1.475-3.315 3.294 0 1.82 1.484 3.294 3.314 3.294s3.313-1.475 3.313-3.294c0-1.82-1.484-3.294-3.314-3.294zm0 13.176c-1.83 0-3.315 1.475-3.315 3.294 0 1.82 1.484 3.294 3.314 3.294s3.313-1.475 3.313-3.294c0-1.82-1.484-3.294-3.314-3.294z" fill="#FFF"/><g><defs><path id="a" d="M-250.047 123.734c-19.824 0-35.895 14.112-35.895 25.6 0-2.65 4.017-4.8 8.973-4.8 4.957 0 8.976 2.15 8.976 4.8 0-2.65 4.016-4.8 8.973-4.8 3.04 0 5.718.815 7.34 2.053v13.947h-1.632v6.4c0 1.768-1.46 3.2-3.263 3.2-1.8 0-3.262-1.432-3.262-3.2 0-1.767-1.46-3.2-3.264-3.2-1.803 0-3.263 1.433-3.263 3.2 0 5.303 4.382 9.6 9.788 9.6 5.408 0 9.79-4.298 9.79-9.6v-6.4h-1.63v-13.947c1.62-1.238 4.298-2.052 7.342-2.052 4.956 0 8.972 2.15 8.972 4.8 0-2.65 4.018-4.8 8.974-4.8s8.975 2.15 8.975 4.8c0-11.49-16.074-25.6-35.897-25.6z"/></defs></g></svg>