<svg version="1" xmlns="http://www.w3.org/2000/svg" viewBox="0 0 100 100"><path d="M48.994 48.2c-6.81-6.886-4.53-23.862-2.704-31.04-8.415 1.264-31.534 9.4-30.084 35.457C17.383 67.274 28.22 79.423 42.56 82.16c2.366.452 4.718.68 6.992.68 18.464 0 28.044-13.442 34.308-30.717-12.936 3.09-25.796 5.246-34.866-3.923z" fill="#EEE"/><defs><path id="a" d="M149.953 123.734c-19.824 0-35.895 14.112-35.895 25.6 0-2.65 4.017-4.8 8.973-4.8 4.957 0 8.976 2.15 8.976 4.8 0-2.65 4.016-4.8 8.973-4.8 3.04 0 5.718.815 7.34 2.053v13.947h-1.632v6.4c0 1.768-1.46 3.2-3.263 3.2-1.8 0-3.262-1.432-3.262-3.2 0-1.767-1.46-3.2-3.264-3.2-1.803 0-3.263 1.433-3.263 3.2 0 5.303 4.382 9.6 9.788 9.6 5.408 0 9.79-4.298 9.79-9.6v-6.4h-1.63v-13.947c1.62-1.238 4.298-2.052 7.342-2.052 4.956 0 8.972 2.15 8.972 4.8 0-2.65 4.018-4.8 8.974-4.8s8.975 2.15 8.975 4.8c0-11.49-16.074-25.6-35.897-25.6z"/></defs></svg>