<svg version="1" xmlns="http://www.w3.org/2000/svg" viewBox="0 0 100 100"><path d="M67.197 33.703c-4.646-4.843-7.43-16.456-6.022-22.09-6.49.992-21.19 5.655-20.073 26.106 3.023 1.073 8.595 6.413 12.044 8.032l10.036 6.024c2.44.776 10.812 9.96 14.307 7.345 6.464-4.837 10.677-13.275 13.813-22.075-9.975 2.425-17.918 3.106-24.106-3.342z" fill="#EEE"/><path d="M74.49 51.28c-.438 0-.867.036-1.298.065C73.198 51.358 70.115 36 49.068 36c-3.884 0-17.452 1.27-24.015 15.123C15.013 51.56 7 59.713 7 69.733c0 10.303 8.458 18.654 18.89 18.654h49.566c9.925-.5 17.823-8.63 17.823-18.554 0-10.247-8.413-18.553-18.79-18.553z" fill="#FFF"/><g><defs><path id="a" d="M-550.047 123.734c-19.824 0-35.895 14.112-35.895 25.6 0-2.65 4.017-4.8 8.973-4.8 4.957 0 8.976 2.15 8.976 4.8 0-2.65 4.016-4.8 8.973-4.8 3.04 0 5.718.815 7.34 2.053v13.947h-1.632v6.4c0 1.768-1.46 3.2-3.263 3.2-1.8 0-3.262-1.432-3.262-3.2 0-1.767-1.46-3.2-3.264-3.2-1.803 0-3.263 1.433-3.263 3.2 0 5.303 4.382 9.6 9.788 9.6 5.408 0 9.79-4.298 9.79-9.6v-6.4h-1.63v-13.947c1.62-1.238 4.298-2.052 7.342-2.052 4.956 0 8.972 2.15 8.972 4.8 0-2.65 4.018-4.8 8.974-4.8s8.975 2.15 8.975 4.8c0-11.49-16.074-25.6-35.897-25.6z"/></defs></g></svg>