<svg version="1.1" id="Ebene_1" xmlns="http://www.w3.org/2000/svg" xmlns:xlink="http://www.w3.org/1999/xlink" x="0" y="0" viewBox="0 0 100 100" xml:space="preserve" enable-background="new 0 0 100 100"><path fill="#1E5A96" d="m45.30001,15.25c-11.6,-4.3 -24.5,1.6 -28.8,13.2s1.6,24.5 13.2,28.8s24.5,-1.6 28.8,-13.3c4.3,-11.6 -1.6,-24.5 -13.2,-28.7z"/><path fill="#3273BE" d="m70.90001,23.55c-11.6,-4.2 -24.5,1.7 -28.80001,13.3s1.7,24.5 13.3,28.8s24.5,-1.7 28.79999,-13.3s-1.7,-24.5 -13.29999,-28.8z"/><path fill="#4996DC" d="m44.6,42.65001c-11.6,-4.3 -24.5,1.6 -28.8,13.3c-4.3,11.6 1.7,24.5 13.3,28.8s24.5,-1.7 28.8,-13.3c4.2,-11.6 -1.7,-24.5 -13.3,-28.8z"/></svg>