<svg version="1.1" id="Ebene_2" xmlns="http://www.w3.org/2000/svg" xmlns:xlink="http://www.w3.org/1999/xlink" x="0" y="0" viewBox="0 0 100 100" xml:space="preserve" enable-background="new 0 0 100 100"><path fill="#333" d="m50,23.6c-19.8,0 -35.9,14.1 -35.9,25.6c0,-2.7 4,-4.8 9,-4.8s9,2.1 9,4.8c0,-2.7 4,-4.8 9,-4.8c3,0 5.7,0.8 7.3,2.1v13.9h-1.6v6.39999c0,1.8 -1.5,3.2 -3.3,3.2s-3.3,-1.4 -3.3,-3.2s-1.5,-3.2 -3.3,-3.2s-3.3,1.4 -3.3,3.2c0,5.3 4.4,9.60001 9.8,9.60001s9.8,-4.3 9.8,-9.60001v-6.39999h-1.6v-13.9c1.6,-1.2 4.3,-2.1 7.3,-2.1c5,0 9,2.1 9,4.8c0,-2.7 4,-4.8 9,-4.8s9,2.1 9,4.8c-0.1,-11.5 -16.1,-25.6 -35.9,-25.6z"/></svg>