<svg version="1" xmlns="http://www.w3.org/2000/svg" viewBox="0 0 100 100"><circle cx="49.667" cy="50.365" r="30" fill="#FFEC6A"/><path d="M50 16.03c-18.778 0-34 15.21-34 33.97 0 18.762 15.222 33.97 34 33.97S84 68.762 84 50c0-18.76-15.222-33.97-34-33.97zm0 60.954C35.108 76.984 22.992 64.88 22.992 50c0-14.878 12.116-26.983 27.008-26.983S77.01 35.122 77.01 50C77.007 64.88 64.89 76.984 50 76.984zm1.82-46.395h-4.856v20.527L64.814 66.4l3.158-3.682-16.15-13.834V30.59z" fill="#333"/><g><defs><path id="a" d="M-550.047 23.734c-19.824 0-35.895 14.112-35.895 25.6 0-2.65 4.017-4.8 8.973-4.8 4.957 0 8.976 2.15 8.976 4.8 0-2.65 4.016-4.8 8.973-4.8 3.04 0 5.718.815 7.34 2.053v13.947h-1.632v6.4c0 1.768-1.46 3.2-3.263 3.2-1.8 0-3.262-1.432-3.262-3.2 0-1.767-1.46-3.2-3.264-3.2-1.803 0-3.263 1.433-3.263 3.2 0 5.303 4.382 9.6 9.788 9.6 5.408 0 9.79-4.298 9.79-9.6v-6.4h-1.63V46.586c1.62-1.238 4.298-2.052 7.342-2.052 4.956 0 8.972 2.15 8.972 4.8 0-2.65 4.018-4.8 8.974-4.8s8.975 2.15 8.975 4.8c0-11.488-16.074-25.6-35.897-25.6z"/></defs></g></svg>