<svg version="1" xmlns="http://www.w3.org/2000/svg" viewBox="0 0 100 100"><defs><path id="a" d="M349.953 23.734c-19.824 0-35.895 14.112-35.895 25.6 0-2.65 4.017-4.8 8.973-4.8 4.957 0 8.976 2.15 8.976 4.8 0-2.65 4.016-4.8 8.973-4.8 3.04 0 5.718.815 7.34 2.053v13.947h-1.632v6.4c0 1.768-1.46 3.2-3.263 3.2-1.8 0-3.262-1.432-3.262-3.2 0-1.767-1.46-3.2-3.264-3.2-1.803 0-3.263 1.433-3.263 3.2 0 5.303 4.382 9.6 9.788 9.6 5.408 0 9.79-4.298 9.79-9.6v-6.4h-1.63V46.586c1.62-1.238 4.298-2.052 7.342-2.052 4.956 0 8.972 2.15 8.972 4.8 0-2.65 4.018-4.8 8.974-4.8s8.975 2.15 8.975 4.8c0-11.488-16.074-25.6-35.897-25.6z"/></defs><path d="M74.262 39.13c-.437 0-.864.036-1.293.065.005.014-3.067-15.282-24.037-15.282-3.87 0-17.39 1.265-23.928 15.06C15 39.41 7.017 47.53 7.017 57.51c0 10.26 8.427 18.577 18.822 18.577h49.385c9.89-.498 17.758-8.594 17.758-18.478 0-10.207-8.382-18.48-18.72-18.48z" fill="#FFF"/></svg>