<svg version="1" xmlns="http://www.w3.org/2000/svg" viewBox="0 0 100 100"><path d="M62.85 78.247l-10.048-10.04c-.787-.786-1.817-1.18-2.846-1.18-1.03 0-2.06.394-2.845 1.18v.002L37.06 78.246c-1.572 1.57-1.572 4.117 0 5.686 1.572 1.57 4.12 1.57 5.69 0l7.205-7.197 7.203 7.197c1.572 1.57 4.12 1.57 5.69 0 1.57-1.57 1.57-4.115 0-5.686z" fill="#333"/><path d="M50 30.95c2.217 0 4.014-1.8 4.014-4.016v-8.03c0-2.217-1.797-4.015-4.014-4.015-2.217 0-4.014 1.797-4.014 4.014v8.03c0 2.217 1.797 4.015 4.014 4.015zm-22.706 3.728L21.618 29c-1.567-1.568-4.11-1.568-5.677 0-1.567 1.57-1.567 4.11 0 5.678l5.678 5.678c1.567 1.568 4.11 1.568 5.676 0 1.568-1.567 1.568-4.11 0-5.678zM13.876 59.054H5.848c-2.217 0-4.014 1.797-4.014 4.014 0 2.217 1.797 4.015 4.014 4.015h8.028c2.217 0 4.014-1.798 4.014-4.015 0-2.216-1.797-4.014-4.014-4.014zM50 38.98c-13.3 0-24.083 10.785-24.083 24.09 0-.192 6.954 0 8.027 0h40.138C74.082 49.764 63.3 38.98 50 38.98zM84.058 29c-1.567-1.568-4.11-1.568-5.676 0l-5.676 5.678c-1.567 1.568-1.567 4.11 0 5.678 1.567 1.568 4.11 1.568 5.676 0l5.676-5.678c1.568-1.568 1.568-4.11 0-5.678zm10.094 30.054h-8.028c-2.217 0-4.014 1.797-4.014 4.014 0 2.217 1.797 4.015 4.014 4.015h8.028c2.217 0 4.014-1.798 4.014-4.015 0-2.216-1.797-4.014-4.014-4.014z" fill="#FFEC6A"/><g><defs><path id="a" d="M-750.047 23.734c-19.824 0-35.895 14.112-35.895 25.6 0-2.65 4.017-4.8 8.973-4.8 4.957 0 8.976 2.15 8.976 4.8 0-2.65 4.016-4.8 8.973-4.8 3.04 0 5.718.815 7.34 2.053v13.947h-1.632v6.4c0 1.768-1.46 3.2-3.263 3.2-1.8 0-3.262-1.432-3.262-3.2 0-1.767-1.46-3.2-3.264-3.2-1.803 0-3.263 1.433-3.263 3.2 0 5.303 4.382 9.6 9.788 9.6 5.408 0 9.79-4.298 9.79-9.6v-6.4h-1.63V46.586c1.62-1.238 4.298-2.052 7.342-2.052 4.956 0 8.972 2.15 8.972 4.8 0-2.65 4.018-4.8 8.974-4.8s8.975 2.15 8.975 4.8c0-11.488-16.074-25.6-35.897-25.6z"/></defs></g></svg>