<svg version="1" xmlns="http://www.w3.org/2000/svg" viewBox="0 0 100 100"><path d="M29.5 67.62l-4.703 4.655c-1.3 1.286-1.3 3.37 0 4.656 1.3 1.287 3.405 1.287 4.704 0l4.705-4.655c1.3-1.286 1.3-3.37 0-4.656-1.3-1.287-3.405-1.287-4.704 0zm-3.09-18.624c0-1.818-1.488-3.292-3.325-3.292h-6.653c-1.837 0-3.326 1.474-3.326 3.292 0 1.818 1.49 3.292 3.326 3.292h6.653c1.837 0 3.326-1.474 3.326-3.292zm3.09-18.623c1.3 1.286 3.406 1.286 4.705 0 1.3-1.286 1.3-3.37 0-4.656L29.5 21.06c-1.298-1.285-3.404-1.285-4.703 0-1.3 1.287-1.3 3.37 0 4.657l4.704 4.656zm23.522-7.714c1.837 0 3.326-1.475 3.326-3.293v-6.584c0-1.818-1.49-3.292-3.326-3.292-1.837 0-3.326 1.475-3.326 3.293v6.584c0 1.82 1.49 3.292 3.326 3.292zm23.52 7.713l4.704-4.656c1.3-1.286 1.3-3.37 0-4.656-1.3-1.285-3.405-1.285-4.704 0l-4.704 4.657c-1.3 1.286-1.3 3.37 0 4.656 1.3 1.286 3.405 1.286 4.704 0zm-23.52 44.96c-1.837 0-3.326 1.474-3.326 3.292v6.584c0 1.817 1.49 3.29 3.326 3.29 1.837 0 3.326-1.473 3.326-3.29v-6.585c0-1.82-1.49-3.292-3.326-3.292zm23.52-7.714c-1.3-1.287-3.405-1.287-4.704 0-1.3 1.285-1.3 3.37 0 4.655l4.704 4.656c1.3 1.287 3.405 1.287 4.704 0 1.3-1.285 1.3-3.37 0-4.655l-4.704-4.656zm13.07-21.916h-6.654c-1.837 0-3.326 1.474-3.326 3.292 0 1.818 1.49 3.292 3.326 3.292h6.653c1.838 0 3.327-1.474 3.327-3.292 0-1.818-1.49-3.292-3.326-3.292zm-36.59-16.46c-11.022 0-19.958 8.843-19.958 19.752 0 10.91 8.936 19.752 19.958 19.752 11.022 0 19.958-8.844 19.958-19.752 0-10.91-8.936-19.753-19.958-19.753z" fill="#FFEC6A"/><path d="M60.284 51.004c-1.16 0-2.278.15-3.382.337-4.347-7.69-12.88-13.504-23.23-13.504-14.696 0-26.61 11.79-26.61 26.336 0 14.545 11.914 26.336 26.61 26.336h26.612c11.022 0 19.958-8.843 19.958-19.752 0-19.63-20.622-19.752-19.958-19.752z" fill="#FFF"/><g><defs><path id="a" d="M349.953-76.266c-19.824 0-35.895 14.112-35.895 25.6 0-2.65 4.017-4.8 8.973-4.8 4.957 0 8.976 2.15 8.976 4.8 0-2.65 4.016-4.8 8.973-4.8 3.04 0 5.718.815 7.34 2.053v13.947h-1.632v6.4c0 1.768-1.46 3.2-3.263 3.2-1.8 0-3.262-1.432-3.262-3.2 0-1.767-1.46-3.2-3.264-3.2-1.803 0-3.263 1.433-3.263 3.2 0 5.303 4.382 9.6 9.788 9.6 5.408 0 9.79-4.298 9.79-9.6v-6.4h-1.63v-13.947c1.62-1.238 4.298-2.052 7.342-2.052 4.956 0 8.972 2.15 8.972 4.8 0-2.65 4.018-4.8 8.974-4.8s8.975 2.15 8.975 4.8c0-11.49-16.074-25.6-35.897-25.6z"/></defs></g></svg>