<svg version="1" xmlns="http://www.w3.org/2000/svg" viewBox="0 0 100 100"><path d="M30.077 60.593l-4.687 4.62c-1.294 1.277-1.294 3.346 0 4.622 1.294 1.276 3.393 1.276 4.687 0l4.687-4.62c1.294-1.277 1.294-3.346 0-4.622-1.294-1.276-3.392-1.276-4.687 0zm-3.08-18.484c0-1.806-1.483-3.27-3.313-3.27h-6.628c-1.83 0-3.314 1.464-3.314 3.27 0 1.803 1.484 3.267 3.314 3.267h6.628c1.83 0 3.314-1.464 3.314-3.268zm26.516-26.142c1.83 0 3.314-1.463 3.314-3.267V6.167c0-1.805-1.484-3.268-3.314-3.268S50.2 4.36 50.2 6.166V12.7c-.002 1.806 1.482 3.268 3.313 3.268zm23.435 7.657l4.687-4.62c1.294-1.277 1.294-3.346 0-4.622-1.294-1.276-3.393-1.276-4.687 0l-4.687 4.62c-1.293 1.277-1.293 3.346 0 4.622 1.295 1.276 3.394 1.276 4.688 0zm-46.87 0c1.293 1.276 3.392 1.276 4.686 0s1.294-3.345 0-4.62l-4.687-4.622c-1.294-1.276-3.393-1.276-4.687 0-1.294 1.276-1.294 3.345 0 4.62l4.687 4.622zm46.87 36.968c-1.294-1.276-3.393-1.276-4.687 0-1.293 1.276-1.293 3.345 0 4.62l4.688 4.622c1.294 1.276 3.393 1.276 4.687 0 1.294-1.276 1.294-3.345 0-4.62l-4.687-4.622zM53.513 68.25c-1.83 0-3.314 1.463-3.314 3.268v6.535c0 1.805 1.483 3.267 3.313 3.267s3.314-1.463 3.314-3.267v-6.535c0-1.805-1.484-3.268-3.314-3.268zM89.97 38.842h-6.63c-1.83 0-3.313 1.463-3.313 3.268 0 1.804 1.484 3.268 3.314 3.268h6.63c1.83 0 3.314-1.463 3.314-3.268 0-1.806-1.484-3.268-3.314-3.268zm-36.457-16.34c-10.982 0-19.885 8.78-19.885 19.607s8.903 19.604 19.885 19.604c10.983 0 19.886-8.778 19.886-19.605-.002-10.83-8.905-19.607-19.887-19.607z" fill="#FFEC6A"/><path d="M59.745 44.102c-1.154 0-2.27.15-3.37.335-4.33-7.633-12.833-13.405-23.144-13.405-14.642 0-26.513 11.703-26.513 26.14 0 14.438 11.87 26.14 26.514 26.14h26.515c10.982 0 19.885-8.777 19.885-19.604 0-19.485-20.547-19.606-19.885-19.606z" fill="#AAA"/><path fill="#FFEC6A" d="M62.774 71.593H51.36l9.784-15.945H44.838l-8.152 22.32h10.762l-5.87 19.134"/><g><defs><path id="a" d="M249.953-76.266c-19.824 0-35.895 14.112-35.895 25.6 0-2.65 4.017-4.8 8.973-4.8 4.957 0 8.976 2.15 8.976 4.8 0-2.65 4.016-4.8 8.973-4.8 3.04 0 5.718.815 7.34 2.053v13.947h-1.632v6.4c0 1.768-1.46 3.2-3.263 3.2-1.8 0-3.262-1.432-3.262-3.2 0-1.767-1.46-3.2-3.264-3.2-1.803 0-3.263 1.433-3.263 3.2 0 5.303 4.382 9.6 9.788 9.6 5.408 0 9.79-4.298 9.79-9.6v-6.4h-1.63v-13.947c1.62-1.238 4.298-2.052 7.342-2.052 4.956 0 8.972 2.15 8.972 4.8 0-2.65 4.018-4.8 8.974-4.8s8.975 2.15 8.975 4.8c0-11.49-16.074-25.6-35.897-25.6z"/></defs></g></svg>