<svg version="1" xmlns="http://www.w3.org/2000/svg" viewBox="0 0 100 100"><path d="M16.857 56.59h66.285c1.83 0 3.314-1.475 3.314-3.295 0-1.82-1.484-3.295-3.314-3.295H16.857c-1.83 0-3.314 1.476-3.314 3.295 0 1.82 1.484 3.295 3.314 3.295zm66.286 6.59H16.857c-1.83 0-3.314 1.476-3.314 3.296s1.484 3.295 3.314 3.295h66.285c1.83 0 3.314-1.474 3.314-3.294s-1.483-3.295-3.313-3.295zM66.57 30.23c-1.153 0-2.268.15-3.37.338-4.534-8.06-13.193-13.518-23.143-13.518-14.643 0-26.514 11.802-26.514 26.36H85.3c-2.73-7.674-10.074-13.18-18.73-13.18zm16.573 46.13H16.857c-1.83 0-3.314 1.476-3.314 3.296 0 1.82 1.484 3.295 3.314 3.295h66.285c1.83 0 3.314-1.474 3.314-3.294s-1.483-3.295-3.313-3.295z" fill="#FFF"/><defs><path id="a" d="M49.953-76.266c-19.824 0-35.895 14.112-35.895 25.6 0-2.65 4.017-4.8 8.973-4.8 4.957 0 8.976 2.15 8.976 4.8 0-2.65 4.016-4.8 8.973-4.8 3.04 0 5.718.815 7.34 2.053v13.947h-1.632v6.4c0 1.768-1.46 3.2-3.263 3.2-1.8 0-3.262-1.432-3.262-3.2 0-1.767-1.46-3.2-3.264-3.2-1.803 0-3.263 1.433-3.263 3.2 0 5.303 4.382 9.6 9.788 9.6 5.408 0 9.79-4.298 9.79-9.6v-6.4h-1.63v-13.947c1.62-1.238 4.298-2.052 7.342-2.052 4.956 0 8.972 2.15 8.972 4.8 0-2.65 4.018-4.8 8.974-4.8s8.975 2.15 8.975 4.8c0-11.49-16.074-25.6-35.897-25.6z"/></defs></svg>