<svg version="1" xmlns="http://www.w3.org/2000/svg" viewBox="0 0 100 100"><path d="M26.9 23.183c1.29 1.276 3.38 1.276 4.67 0s1.29-3.345 0-4.62L26.9 13.94c-1.288-1.275-3.38-1.275-4.67 0-1.288 1.277-1.288 3.346 0 4.622l4.67 4.62zm0 36.97l-4.67 4.62c-1.288 1.276-1.288 3.345 0 4.62 1.29 1.277 3.38 1.277 4.67 0l4.67-4.62c1.29-1.276 1.29-3.345 0-4.62-1.29-1.277-3.38-1.277-4.67 0zm-3.066-18.485c0-1.805-1.478-3.268-3.302-3.268H13.93c-1.825 0-3.303 1.463-3.303 3.268 0 1.804 1.478 3.268 3.302 3.268h6.602c1.824 0 3.302-1.464 3.302-3.268zm49.76-18.485l4.67-4.62c1.29-1.277 1.29-3.346 0-4.622-1.29-1.275-3.38-1.275-4.67 0l-4.668 4.622c-1.29 1.276-1.29 3.345 0 4.62 1.29 1.277 3.38 1.277 4.67 0zM50.25 15.527c1.824 0 3.302-1.463 3.302-3.267V5.725c0-1.805-1.478-3.268-3.302-3.268-1.823 0-3.302 1.463-3.302 3.268v6.535c0 1.804 1.478 3.267 3.302 3.267zM86.568 38.4h-6.605c-1.824 0-3.302 1.463-3.302 3.268 0 1.804 1.48 3.268 3.303 3.268h6.604c1.824 0 3.302-1.463 3.302-3.268 0-1.805-1.48-3.268-3.303-3.268zm-36.32 29.408c-1.823 0-3.302 1.463-3.302 3.268v6.535c0 1.806 1.478 3.268 3.302 3.268s3.302-1.463 3.302-3.267v-6.534c0-1.805-1.48-3.268-3.302-3.268zm23.347-7.656c-1.29-1.276-3.38-1.276-4.67 0-1.288 1.276-1.288 3.345 0 4.62l4.67 4.622c1.29 1.276 3.38 1.276 4.67 0 1.288-1.276 1.288-3.345 0-4.62l-4.67-4.622zm-23.347-38.09c-10.94 0-19.81 8.778-19.81 19.606 0 10.828 8.87 19.605 19.81 19.605s19.81-8.778 19.81-19.605c0-10.828-8.87-19.606-19.81-19.606z" fill="#FFEC6A"/><path d="M74.17 48.33c-.435 0-.86.036-1.29.065.007.014-3.053-15.23-23.944-15.23-3.855 0-17.324 1.26-23.838 15.01-9.967.433-17.92 8.525-17.92 18.473 0 10.225 8.396 18.514 18.752 18.514h49.2c9.852-.496 17.69-8.565 17.69-18.416 0-10.17-8.35-18.415-18.65-18.415z" fill="#FFF"/><path d="M37.156 58.333c-1.824 0-3.302 1.463-3.302 3.267v26.14c0 1.806 1.478 3.27 3.302 3.27s3.302-1.464 3.302-3.27V61.6c0-1.805-1.478-3.267-3.302-3.267zm13.207 6.535c-1.823 0-3.302 1.463-3.302 3.268v26.14c0 1.805 1.48 3.268 3.303 3.268 1.824 0 3.302-1.463 3.302-3.268v-26.14c0-1.806-1.478-3.268-3.302-3.268zm13.207-6.535c-1.823 0-3.302 1.463-3.302 3.267v26.14c0 1.806 1.478 3.27 3.302 3.27s3.302-1.464 3.302-3.27V61.6c0-1.805-1.478-3.267-3.302-3.267z" fill="#4996DC"/><g><defs><path id="a" d="M-150.047-76.266c-19.824 0-35.895 14.112-35.895 25.6 0-2.65 4.017-4.8 8.973-4.8 4.957 0 8.976 2.15 8.976 4.8 0-2.65 4.016-4.8 8.973-4.8 3.04 0 5.718.815 7.34 2.053v13.947h-1.632v6.4c0 1.768-1.46 3.2-3.263 3.2-1.8 0-3.262-1.432-3.262-3.2 0-1.767-1.46-3.2-3.264-3.2-1.803 0-3.263 1.433-3.263 3.2 0 5.303 4.382 9.6 9.788 9.6 5.408 0 9.79-4.298 9.79-9.6v-6.4h-1.63v-13.947c1.62-1.238 4.298-2.052 7.342-2.052 4.956 0 8.972 2.15 8.972 4.8 0-2.65 4.018-4.8 8.974-4.8s8.975 2.15 8.975 4.8c0-11.49-16.074-25.6-35.897-25.6z"/></defs></g></svg>