<svg version="1" xmlns="http://www.w3.org/2000/svg" viewBox="0 0 100 100"><path d="M26.813 59.792l-4.687 4.62c-1.294 1.277-1.294 3.346 0 4.622 1.294 1.276 3.393 1.276 4.687 0l4.687-4.62c1.294-1.277 1.294-3.346 0-4.622-1.294-1.276-3.393-1.276-4.687 0zm-3.08-18.484c0-1.805-1.483-3.268-3.313-3.268h-6.628c-1.83 0-3.314 1.463-3.314 3.268 0 1.804 1.484 3.268 3.314 3.268h6.628c1.83 0 3.314-1.463 3.314-3.268zm3.08-18.484c1.294 1.276 3.393 1.276 4.687 0 1.294-1.276 1.294-3.345 0-4.62l-4.687-4.622c-1.294-1.276-3.393-1.276-4.687 0-1.294 1.276-1.294 3.345 0 4.62l4.687 4.622zm46.87 0l4.688-4.62c1.295-1.277 1.295-3.346 0-4.622-1.293-1.276-3.392-1.276-4.686 0l-4.687 4.62c-1.294 1.277-1.294 3.346 0 4.622 1.294 1.276 3.393 1.276 4.687 0zM50.25 15.168c1.83 0 3.313-1.463 3.313-3.267V5.366c0-1.805-1.484-3.268-3.314-3.268s-3.315 1.463-3.315 3.268V11.9c0 1.805 1.483 3.268 3.314 3.268zm0 52.28c-1.83 0-3.315 1.464-3.315 3.27v6.534c0 1.805 1.484 3.267 3.314 3.267s3.313-1.464 3.313-3.268v-6.535c0-1.805-1.484-3.268-3.314-3.268zm23.434-7.656c-1.294-1.276-3.393-1.276-4.687 0-1.294 1.276-1.294 3.345 0 4.62l4.687 4.622c1.294 1.276 3.393 1.276 4.687 0 1.295-1.276 1.295-3.345 0-4.62l-4.686-4.622zm13.022-21.75h-6.63c-1.83 0-3.313 1.462-3.313 3.267 0 1.803 1.484 3.267 3.314 3.267h6.63c1.83 0 3.313-1.463 3.313-3.268 0-1.806-1.484-3.27-3.314-3.27zM50.25 21.7c-10.983 0-19.886 8.78-19.886 19.607s8.903 19.604 19.885 19.604c10.982 0 19.885-8.778 19.885-19.605 0-10.83-8.904-19.607-19.886-19.607z" fill="#FFEC6A"/><path d="M74.262 47.97c-.437 0-.864.036-1.293.065.005.014-3.067-15.23-24.037-15.23-3.87 0-17.39 1.26-23.928 15.01C15 48.25 7.017 56.34 7.017 66.29c0 10.224 8.427 18.513 18.822 18.513h49.385c9.89-.496 17.758-8.565 17.758-18.416 0-10.17-8.382-18.416-18.72-18.416z" fill="#EEE"/><path d="M36.82 71.762c-1.83 0-3.313 1.463-3.313 3.268 0 1.804 1.484 3.267 3.314 3.267 1.832 0 3.315-1.463 3.315-3.267 0-1.805-1.484-3.268-3.314-3.268zm26.515 6.535c1.83 0 3.314-1.463 3.314-3.267 0-1.805-1.485-3.268-3.315-3.268-1.83 0-3.314 1.463-3.314 3.268 0 1.804 1.484 3.267 3.315 3.267zM36.82 84.832c-1.83 0-3.313 1.463-3.313 3.268 0 1.805 1.484 3.268 3.314 3.268 1.832 0 3.315-1.463 3.315-3.268 0-1.805-1.484-3.268-3.314-3.268zm13.258 6.536c-1.83 0-3.314 1.463-3.314 3.267 0 1.805 1.484 3.268 3.314 3.268s3.314-1.463 3.314-3.268c0-1.804-1.484-3.267-3.314-3.267zm0-13.07c-1.83 0-3.314 1.462-3.314 3.267s1.484 3.268 3.314 3.268 3.314-1.463 3.314-3.268c0-1.805-1.484-3.268-3.314-3.268zm13.257 6.534c-1.83 0-3.314 1.463-3.314 3.268 0 1.805 1.485 3.268 3.315 3.268 1.83 0 3.314-1.463 3.314-3.268 0-1.805-1.485-3.268-3.315-3.268z" fill="#FFF"/><g><defs><path id="a" d="M-350.047-76.266c-19.824 0-35.895 14.112-35.895 25.6 0-2.65 4.017-4.8 8.973-4.8 4.957 0 8.976 2.15 8.976 4.8 0-2.65 4.016-4.8 8.973-4.8 3.04 0 5.718.815 7.34 2.053v13.947h-1.632v6.4c0 1.768-1.46 3.2-3.263 3.2-1.8 0-3.262-1.432-3.262-3.2 0-1.767-1.46-3.2-3.264-3.2-1.803 0-3.263 1.433-3.263 3.2 0 5.303 4.382 9.6 9.788 9.6 5.408 0 9.79-4.298 9.79-9.6v-6.4h-1.63v-13.947c1.62-1.238 4.298-2.052 7.342-2.052 4.956 0 8.972 2.15 8.972 4.8 0-2.65 4.018-4.8 8.974-4.8s8.975 2.15 8.975 4.8c0-11.49-16.074-25.6-35.897-25.6z"/></defs></g></svg>