<svg version="1" xmlns="http://www.w3.org/2000/svg" viewBox="0 0 100 100"><path d="M26.47 31.453c1.298 1.28 3.405 1.28 4.705 0 1.3-1.28 1.3-3.356 0-4.637L26.47 22.18c-1.3-1.28-3.408-1.28-4.707 0-1.3 1.28-1.3 3.355 0 4.636l4.706 4.637zm47.06 0l4.707-4.637c1.3-1.28 1.3-3.356 0-4.637-1.3-1.28-3.407-1.28-4.706 0l-4.705 4.636c-1.3 1.28-1.3 3.356 0 4.637 1.3 1.28 3.406 1.28 4.706 0zM50 23.77c1.838 0 3.328-1.467 3.328-3.277v-6.557c0-1.81-1.49-3.28-3.328-3.28-1.838 0-3.328 1.47-3.328 3.28v6.557c0 1.81 1.49 3.278 3.328 3.278zM26.47 68.548l-4.707 4.637c-1.3 1.28-1.3 3.356 0 4.637 1.3 1.282 3.407 1.282 4.706 0l4.705-4.636c1.3-1.28 1.3-3.356 0-4.637-1.3-1.28-3.407-1.28-4.706 0zM23.377 50c0-1.81-1.49-3.28-3.328-3.28h-6.656c-1.838 0-3.328 1.47-3.328 3.28 0 1.81 1.49 3.28 3.328 3.28h6.656c1.838 0 3.328-1.47 3.328-3.28zm63.228-3.278H79.95c-1.838 0-3.328 1.468-3.328 3.28 0 1.81 1.49 3.278 3.328 3.278h6.656c1.838 0 3.328-1.468 3.328-3.28 0-1.81-1.49-3.278-3.328-3.278zM50 76.23c-1.838 0-3.328 1.468-3.328 3.28v6.556c0 1.81 1.49 3.28 3.328 3.28 1.838 0 3.328-1.47 3.328-3.28V79.51c0-1.812-1.49-3.28-3.328-3.28zm23.53-7.683c-1.3-1.28-3.406-1.28-4.705 0-1.3 1.28-1.3 3.356 0 4.637l4.706 4.637c1.3 1.282 3.408 1.282 4.707 0 1.3-1.28 1.3-3.355 0-4.636l-4.706-4.637zM50 30.327c-11.027 0-19.967 8.81-19.967 19.673 0 10.865 8.94 19.672 19.967 19.672S69.967 60.864 69.967 50 61.027 30.328 50 30.328z" fill="#FFEC6A"/><defs><path id="a" d="M149.953-76.266c-19.824 0-35.895 14.112-35.895 25.6 0-2.65 4.017-4.8 8.973-4.8 4.957 0 8.976 2.15 8.976 4.8 0-2.65 4.016-4.8 8.973-4.8 3.04 0 5.718.815 7.34 2.053v13.947h-1.632v6.4c0 1.768-1.46 3.2-3.263 3.2-1.8 0-3.262-1.432-3.262-3.2 0-1.767-1.46-3.2-3.264-3.2-1.803 0-3.263 1.433-3.263 3.2 0 5.303 4.382 9.6 9.788 9.6 5.408 0 9.79-4.298 9.79-9.6v-6.4h-1.63v-13.947c1.62-1.238 4.298-2.052 7.342-2.052 4.956 0 8.972 2.15 8.972 4.8 0-2.65 4.018-4.8 8.974-4.8s8.975 2.15 8.975 4.8c0-11.49-16.074-25.6-35.897-25.6z"/></defs></svg>