<svg version="1" xmlns="http://www.w3.org/2000/svg" viewBox="0 0 100 100"><path d="M66.572 26.525c-1.154 0-2.27.15-3.37.336-4.33-7.66-12.833-13.45-23.145-13.45-14.643 0-26.514 11.743-26.514 26.23 0 14.485 11.87 26.228 26.514 26.228H66.57c10.983 0 19.886-8.807 19.886-19.672 0-19.55-20.546-19.67-19.884-19.67z" fill="#FFF"/><path d="M36.625 66.918c-1.83 0-3.314 1.468-3.314 3.28v6.556c0 1.81 1.485 3.28 3.315 3.28s3.314-1.47 3.314-3.28v-6.557c0-1.81-1.485-3.28-3.315-3.28zm13.257 6.557c-1.83 0-3.314 1.468-3.314 3.28v6.556c0 1.812 1.484 3.28 3.314 3.28s3.314-1.47 3.314-3.28v-6.556c0-1.81-1.484-3.28-3.314-3.28zm-13.257-26.23c-1.83 0-3.314 1.47-3.314 3.28v6.557c0 1.81 1.485 3.28 3.315 3.28s3.314-1.47 3.314-3.28v-6.557c0-1.81-1.485-3.28-3.315-3.28zm26.514 0c-1.83 0-3.315 1.47-3.315 3.28v6.557c0 1.81 1.484 3.28 3.314 3.28s3.313-1.47 3.313-3.28v-6.557c0-1.81-1.484-3.28-3.314-3.28zm0 19.673c-1.83 0-3.315 1.468-3.315 3.28v6.556c0 1.81 1.484 3.28 3.314 3.28s3.313-1.47 3.313-3.28v-6.557c0-1.81-1.484-3.28-3.314-3.28zM49.88 53.803c-1.83 0-3.314 1.468-3.314 3.28v6.557c0 1.81 1.484 3.278 3.314 3.278s3.314-1.468 3.314-3.278v-6.558c0-1.81-1.484-3.28-3.314-3.28z" fill="#4996DC"/><g><defs><path id="a" d="M-450.047-76.266c-19.824 0-35.895 14.112-35.895 25.6 0-2.65 4.017-4.8 8.973-4.8 4.957 0 8.976 2.15 8.976 4.8 0-2.65 4.016-4.8 8.973-4.8 3.04 0 5.718.815 7.34 2.053v13.947h-1.632v6.4c0 1.768-1.46 3.2-3.263 3.2-1.8 0-3.262-1.432-3.262-3.2 0-1.767-1.46-3.2-3.264-3.2-1.803 0-3.263 1.433-3.263 3.2 0 5.303 4.382 9.6 9.788 9.6 5.408 0 9.79-4.298 9.79-9.6v-6.4h-1.63v-13.947c1.62-1.238 4.298-2.052 7.342-2.052 4.956 0 8.972 2.15 8.972 4.8 0-2.65 4.018-4.8 8.974-4.8s8.975 2.15 8.975 4.8c0-11.49-16.074-25.6-35.897-25.6z"/></defs></g></svg>