<svg version="1" xmlns="http://www.w3.org/2000/svg" viewBox="0 0 100 100"><path d="M26.9 29.304c1.29 1.28 3.38 1.28 4.67 0s1.29-3.356 0-4.637L26.9 20.03c-1.288-1.28-3.38-1.28-4.67 0-1.288 1.28-1.288 3.356 0 4.637l4.67 4.637zM23.835 47.85c0-1.81-1.478-3.278-3.302-3.278h-6.604c-1.824 0-3.302 1.468-3.302 3.28 0 1.81 1.478 3.278 3.302 3.278h6.604c1.824 0 3.302-1.47 3.302-3.28zm26.414-26.23c1.824 0 3.302-1.467 3.302-3.277v-6.557c0-1.81-1.478-3.28-3.302-3.28-1.823 0-3.302 1.47-3.302 3.28v6.557c0 1.81 1.478 3.278 3.302 3.278zm23.347 7.684l4.67-4.637c1.288-1.28 1.288-3.356 0-4.637-1.29-1.28-3.38-1.28-4.67 0l-4.67 4.637c-1.288 1.28-1.288 3.356 0 4.637 1.29 1.28 3.38 1.28 4.67 0zM26.9 66.398l-4.67 4.637c-1.288 1.28-1.288 3.357 0 4.637 1.29 1.28 3.38 1.28 4.67 0l4.67-4.637c1.29-1.28 1.29-3.356 0-4.637-1.29-1.28-3.38-1.28-4.67 0zm59.667-21.826h-6.603c-1.824 0-3.302 1.468-3.302 3.28 0 1.81 1.478 3.278 3.302 3.278h6.603c1.824 0 3.302-1.468 3.302-3.28 0-1.81-1.48-3.278-3.303-3.278zM73.595 66.398c-1.29-1.28-3.38-1.28-4.67 0-1.288 1.28-1.288 3.356 0 4.637l4.67 4.637c1.29 1.28 3.38 1.28 4.67 0 1.288-1.28 1.288-3.356 0-4.637l-4.67-4.637zm-23.347-38.22c-10.94 0-19.81 8.81-19.81 19.673 0 10.865 8.87 19.673 19.81 19.673s19.81-8.808 19.81-19.672-8.87-19.67-19.81-19.67zm0 45.902c-1.823 0-3.302 1.468-3.302 3.28v6.556c0 1.81 1.478 3.28 3.302 3.28s3.302-1.47 3.302-3.28V77.36c0-1.812-1.48-3.28-3.302-3.28z" fill="#FFEC6A"/><path d="M74.17 54.537c-.435 0-.86.036-1.29.065.007.014-3.053-15.282-23.944-15.282-3.855 0-17.324 1.265-23.838 15.06-9.967.435-17.92 8.555-17.92 18.537 0 10.26 8.396 18.577 18.752 18.577h49.2c9.852-.498 17.69-8.594 17.69-18.478 0-10.206-8.35-18.48-18.65-18.48z" fill="#EEE"/><g><defs><path id="a" d="M-550.047-76.266c-19.824 0-35.895 14.112-35.895 25.6 0-2.65 4.017-4.8 8.973-4.8 4.957 0 8.976 2.15 8.976 4.8 0-2.65 4.016-4.8 8.973-4.8 3.04 0 5.718.815 7.34 2.053v13.947h-1.632v6.4c0 1.768-1.46 3.2-3.263 3.2-1.8 0-3.262-1.432-3.262-3.2 0-1.767-1.46-3.2-3.264-3.2-1.803 0-3.263 1.433-3.263 3.2 0 5.303 4.382 9.6 9.788 9.6 5.408 0 9.79-4.298 9.79-9.6v-6.4h-1.63v-13.947c1.62-1.238 4.298-2.052 7.342-2.052 4.956 0 8.972 2.15 8.972 4.8 0-2.65 4.018-4.8 8.974-4.8s8.975 2.15 8.975 4.8c0-11.49-16.074-25.6-35.897-25.6z"/></defs></g></svg>