<svg version="1" xmlns="http://www.w3.org/2000/svg" viewBox="0 0 100 100"><path d="M81.513 48.818h-7.548l4.73-8.756h-9.183L64.26 53.127h7.116l-3.882 12.925 14.02-17.234zm-.452-18.484c-.75 0-1.476.098-2.192.22-2.95-5.27-8.585-8.837-15.06-8.837-9.528 0-17.252 7.716-17.252 17.234 0 7.74 5.106 14.286 12.136 16.464l1.455-4.07c-5.362-1.58-9.28-6.526-9.28-12.394 0-7.138 5.794-12.925 12.94-12.925 6.137 0 11.25 4.28 12.58 10.007 1.347-.872 2.947-1.39 4.672-1.39 4.763 0 8.625 3.858 8.625 8.617 0 3.808-2.476 7.033-5.906 8.172l-3.866 4.753h1.146c7.147 0 12.94-5.788 12.94-12.926 0-7.14-5.793-12.926-12.94-12.926zm7.58 29.597h-7.645l-3.823 10.706h5.046l-2.753 9.176 9.94-12.235h-5.353l4.59-7.646z" fill="#E7522F"/><path d="M42.267 14.837L6 85.163h70.4L42.267 14.837zm-.24 19.66l20.327 41.876h-41.92l21.594-41.877zm.098 31.042c-1.762 0-3.19 1.427-3.19 3.186 0 1.762 1.428 3.188 3.19 3.188s3.19-1.426 3.19-3.188c0-1.76-1.428-3.187-3.19-3.187zm1.596-2.354l1.596-17.58h-6.382l1.596 17.58h3.19z" fill="#E7522F"/><g><defs><path id="a" d="M-250.047 23.734c-19.824 0-35.895 14.112-35.895 25.6 0-2.65 4.017-4.8 8.973-4.8 4.957 0 8.976 2.15 8.976 4.8 0-2.65 4.016-4.8 8.973-4.8 3.04 0 5.718.815 7.34 2.053v13.947h-1.632v6.4c0 1.768-1.46 3.2-3.263 3.2-1.8 0-3.262-1.432-3.262-3.2 0-1.767-1.46-3.2-3.264-3.2-1.803 0-3.263 1.433-3.263 3.2 0 5.303 4.382 9.6 9.788 9.6 5.408 0 9.79-4.298 9.79-9.6v-6.4h-1.63V46.586c1.62-1.238 4.298-2.052 7.342-2.052 4.956 0 8.972 2.15 8.972 4.8 0-2.65 4.018-4.8 8.974-4.8s8.975 2.15 8.975 4.8c0-11.488-16.074-25.6-35.897-25.6z"/></defs></g></svg>