<svg version="1" xmlns="http://www.w3.org/2000/svg" viewBox="0 0 100 100"><g fill="#333"><path d="M36.71 77.13v-9.995h2.308v10.02c0 .657.094 1.213.28 1.67s.458.808.81 1.06.75.43 1.195.54c.443.108.954.163 1.53.163 1.19 0 2.116-.26 2.78-.78.663-.52.995-1.402.995-2.65V67.134h2.306v9.994c0 .765-.11 1.453-.33 2.063s-.514 1.12-.885 1.524c-.37.405-.817.74-1.34 1.005s-1.072.456-1.653.574-1.206.178-1.874.178c-.658 0-1.28-.06-1.866-.178-.586-.118-1.142-.312-1.668-.58s-.98-.607-1.36-1.013-.68-.914-.898-1.524c-.22-.61-.33-1.294-.33-2.05zM56.19 82.133l-5.835-14.998h2.457l3.322 8.914 1.372 3.8c.312-.976.74-2.233 1.29-3.773.696-1.94 1.776-4.922 3.24-8.94h2.443l-5.794 14.997H56.19z"/></g><path d="M13.876 58.802H5.848c-2.217 0-4.014 1.79-4.014 3.996 0 2.207 1.797 3.997 4.014 3.997h8.028c2.217 0 4.014-1.79 4.014-3.997s-1.797-3.996-4.014-3.996zM50 30.827c2.217 0 4.014-1.79 4.014-3.997v-7.993c0-2.207-1.797-3.997-4.014-3.997s-4.014 1.79-4.014 3.997v7.993c0 2.207 1.797 3.997 4.014 3.997zM27.294 34.54l-5.676-5.653c-1.568-1.56-4.11-1.56-5.677 0-1.566 1.56-1.566 4.09 0 5.652l5.678 5.65c1.567 1.562 4.11 1.562 5.676 0 1.568-1.56 1.568-4.09 0-5.65zM94.152 58.8h-8.028c-2.217 0-4.014 1.79-4.014 3.996 0 2.207 1.797 3.997 4.014 3.997h8.028c2.217 0 4.014-1.79 4.014-3.997s-1.797-3.996-4.014-3.996zM84.058 28.887c-1.567-1.56-4.11-1.56-5.676 0l-5.676 5.652c-1.567 1.56-1.567 4.09 0 5.65 1.567 1.562 4.11 1.562 5.676 0l5.676-5.65c1.568-1.562 1.568-4.09 0-5.653zM50 38.82c-13.3 0-24.083 10.736-24.083 23.978 0-.19 6.954 0 8.027 0h40.138c0-13.243-10.78-23.978-24.082-23.978z" fill="#FFEC6A"/><defs><path id="a" d="M-850.047 23.734c-19.824 0-35.895 14.112-35.895 25.6 0-2.65 4.017-4.8 8.973-4.8 4.957 0 8.976 2.15 8.976 4.8 0-2.65 4.016-4.8 8.973-4.8 3.04 0 5.718.815 7.34 2.053v13.947h-1.632v6.4c0 1.768-1.46 3.2-3.263 3.2-1.8 0-3.262-1.432-3.262-3.2 0-1.767-1.46-3.2-3.264-3.2-1.803 0-3.263 1.433-3.263 3.2 0 5.303 4.382 9.6 9.788 9.6 5.408 0 9.79-4.298 9.79-9.6v-6.4h-1.63V46.586c1.62-1.238 4.298-2.052 7.342-2.052 4.956 0 8.972 2.15 8.972 4.8 0-2.65 4.018-4.8 8.974-4.8s8.975 2.15 8.975 4.8c0-11.488-16.074-25.6-35.897-25.6z"/></defs></svg>