<svg viewBox="0 0 44 44" xmlns="http://www.w3.org/2000/svg" fill-rule="evenodd" clip-rule="evenodd" stroke-linejoin="round" stroke-miterlimit="1.414"><path d="M42.2 44H1.8c-.464 0-.84-.376-.84-.838v-6.71c0-.463.376-.84.84-.84H42.2c.462 0 .837.377.837.84v6.71c0 .462-.375.838-.838.838zm-1.8-6.105H3.6c-.21 0-.383.172-.383.383v3.057c0 .21.172.382.383.382h36.8c.21 0 .383-.17.383-.382v-3.057c0-.21-.172-.383-.383-.383zM28.425 8.388h-5.56c-.462 0-.838-.375-.838-.838V.84c0-.464.376-.84.838-.84H37.12c.465 0 .84.376.84.84v6.71c0 .463-.375.838-.84.838h-5.528v2.99h4.223c1.25 0 2.265 1.015 2.265 2.265l2.112 18.117c0 1.25-1.015 2.264-2.265 2.264H6.073c-1.25 0-2.265-1.014-2.265-2.264L5.92 13.643c0-1.25 1.015-2.265 2.265-2.265h20.24v-2.99zm-.1 18.466h-3.17v3.167h3.17v-3.166zm6.378 0h-3.168v3.167h3.168v-3.166zm0-5.737h-3.168v3.167h3.168v-3.167zm-6.38 0h-3.167v3.167h3.168v-3.167zm-8.422-5.736H9.35v5.606H19.9V15.38zm8.424 0h-3.168v3.17h3.168v-3.17zm6.38 0H31.59v.368c0 .067-.02.13-.057.18v2.62h3.168v-3.167zm.938-13.46H24.374c-.25 0-.455.204-.455.455v3.64c0 .25.203.455.454.455h11.268c.252 0 .456-.205.456-.456v-3.64c0-.25-.204-.455-.456-.455z" fill="#333"/></svg>