<svg viewBox="0 0 44 44" xmlns="http://www.w3.org/2000/svg" fill-rule="evenodd" clip-rule="evenodd" stroke-linejoin="round" stroke-miterlimit="1.414"><path d="M12.467 35.868l.404 1.73c.418 1.777 2.21 2.936 4.02 2.512l3.764-.88c1.766-.414 2.912-2.212 2.486-4.036l-.416-1.776-1.72.403.417 1.776c.21.89-.324 1.754-1.207 1.96l-3.763.882c-.883.207-1.744-.332-1.952-1.22l-.416-1.777-1.615.428zm8.1-26.003l-.57-.987c-.06-.106-.024-.24.082-.303l1.538-.888c.106-.062.242-.025.303.08l12.643 21.9c.062.105.025.24-.08.303l-1.54.888c-.106.06-.242.024-.302-.082l-.57-.986c-.02.014-.044.028-.068.042L6.148 36.125l-.07.04.098.168c.06.106.024.243-.082.303l-1.538.89c-.107.06-.242.024-.303-.082L.03 30.13c-.062-.106-.025-.243.08-.303l1.54-.89c.106-.06.242-.024.303.082l.098.168.07-.04L20.497 9.902l.07-.038zM35.617 20.3c-.137 0-.248.11-.248.25v1.99c0 .14.11.252.248.252h8.133c.138 0 .25-.113.25-.25v-1.993c0-.14-.112-.25-.25-.25H35.62zm-2.835-5.642c-.12.07-.16.22-.092.34l.997 1.727c.07.12.222.16.34.09l7.044-4.066c.12-.07.16-.222.092-.34l-.996-1.728c-.07-.12-.222-.16-.34-.09l-7.044 4.066zm-4.653-3.686c-.07.118-.03.27.09.34l1.727.997c.118.068.27.027.34-.092l4.067-7.044c.07-.118.027-.27-.09-.34l-1.728-.997c-.12-.07-.272-.028-.34.09l-4.067 7.045z" fill="#333"/></svg>