<svg viewBox="0 0 44 44" xmlns="http://www.w3.org/2000/svg" fill-rule="evenodd" clip-rule="evenodd" stroke-linejoin="round" stroke-miterlimit="1.414"><path d="M43.35 39.45L31.43 27.527c2.166-2.82 3.25-6.287 3.25-10.188C34.68 7.803 26.877 0 17.34 0 7.803 0 0 7.803 0 17.34c0 9.537 7.803 17.34 17.34 17.34 3.902 0 7.37-1.3 10.188-3.252l11.92 11.922c.435.434.868.65 1.3.65.435 0 .87-.216 1.302-.433l1.3-1.3c.435-.434.435-.868.435-1.302.216-.65 0-1.082-.434-1.516zM17.34 30.56c-7.152 0-13.005-5.853-13.005-13.005 0-7.153 5.853-13.005 13.005-13.005 7.153 0 13.006 5.852 13.006 13.005 0 7.152-5.636 13.005-13.006 13.005zm6.72-5.6H10.48c0-2.324 1.622-5.553 3.958-7.016.793.878 1.77 1.478 2.832 1.478 1.06 0 2.04-.6 2.83-1.478 2.338 1.464 3.96 4.692 3.96 7.016zm-6.79-6.79c-2.236 0-4.048-3.362-4.048-5.597 0-2.235 1.812-4.047 4.048-4.047 2.235 0 4.047 1.812 4.047 4.047 0 2.235-1.812 5.596-4.047 5.596z" fill="#333230"/></svg>