<svg viewBox="0 0 44 44" xmlns="http://www.w3.org/2000/svg" fill-rule="evenodd" clip-rule="evenodd" stroke-linejoin="round" stroke-miterlimit="1.414"><path d="M28.416 15.12c-.005-.01-.005-.013-.002-.015-.89-2.705-.333-5.846 1.73-8.035 2.098-2.225 5.118-3.02 7.885-2.29.443.128.57.7.252 1.018l-3.306 3.307c-1.208 1.208-1.24 3.21 0 4.45 1.208 1.208 3.21 1.24 4.452 0l3.306-3.306c.318-.32.89-.19 1.017.253.67 2.64 0 5.596-2.097 7.695-2.223 2.22-5.43 2.84-8.23 1.92 0 .002-.005 0-.014-.003L10.933 42.59c-.275.275-.723.275-.998 0L5.94 38.594c-.276-.276-.276-.723 0-1L28.416 15.12zm3.502 10.6l11.876 11.875c.275.276.275.723 0 1l-3.997 3.995c-.275.275-.722.275-.998 0L26.922 30.714l4.995-4.994zm-14.11-4.12l-6.57-6.57-6.09 6.088c-.273.273-.716.273-.99 0L.206 17.164c-.273-.273-.273-.716 0-.99L8.74 7.64l13.507-6.437 1.407 1.41-7.42 7.42 6.57 6.572-4.995 4.994z" fill="#333"/></svg>