<svg viewBox="0 0 44 44" xmlns="http://www.w3.org/2000/svg" fill-rule="evenodd" clip-rule="evenodd" stroke-linejoin="round" stroke-miterlimit="1.414"><path d="M16.62 37.41h-3.786c-.14 0-.257-.115-.257-.258l.776-2.908H1.69c-.932 0-1.69-.757-1.69-1.69V19.037c0-.933.758-1.69 1.69-1.69h26.074c.932 0 1.69.757 1.69 1.69v13.517c0 .933-.758 1.69-1.69 1.69H16.102l.776 2.908c0 .143-.116.258-.258.258zm25.46-.08H26.705c-.864 0-1.596-.573-1.837-1.358h4.27c1.123 0 2.034-.91 2.034-2.034V17.662c0-1.123-.91-2.035-2.034-2.035h-4.356V8.512c0-1.06.86-1.922 1.922-1.922H42.08c1.06 0 1.92.86 1.92 1.922v26.894c0 1.06-.86 1.92-1.92 1.923zM25.816 19.78H3.637c-.664 0-1.202.54-1.202 1.2V30.6c0 .663.538 1.2 1.202 1.2h22.18c.664 0 1.203-.537 1.203-1.2v-9.615c0-.662-.54-1.2-1.203-1.2zm13.596-4.832c.876 0 1.586.71 1.586 1.587 0 .874-.71 1.586-1.587 1.586-.875 0-1.586-.712-1.586-1.586 0-.876.71-1.587 1.586-1.587zM41 8.512H27.785c-.176 0-.318.142-.318.317v2.537c0 .175.142.317.318.317H41c.175 0 .317-.142.317-.317V8.83c0-.176-.142-.318-.318-.318z" fill="#333"/></svg>