<svg viewBox="0 0 44 44" xmlns="http://www.w3.org/2000/svg" fill-rule="evenodd" clip-rule="evenodd" stroke-linejoin="round" stroke-miterlimit="1.414"><path d="M32.327 32.147c-1.84 0-3.353 1.514-3.353 3.354s1.514 3.354 3.353 3.354c1.84 0 3.353-1.514 3.353-3.353 0-1.84-1.514-3.353-3.353-3.353zm-17.604 0c1.84 0 3.353 1.514 3.353 3.354s-1.514 3.354-3.353 3.354c-1.84 0-3.353-1.514-3.353-3.353 0-1.84 1.513-3.353 3.353-3.353zm17.604 4.703c-.747 0-1.362-.615-1.362-1.363 0-.746.615-1.362 1.362-1.362.746 0 1.362.616 1.362 1.362 0 .748-.617 1.363-1.363 1.363zm-17.604 0c-.748 0-1.362-.615-1.362-1.363 0-.746.615-1.362 1.363-1.362.747 0 1.362.616 1.362 1.362 0 .748-.615 1.363-1.362 1.363zM6.99 5.16c.198-.054.403.064.457.263l5.315 19.84c.02.072.016.144-.006.21.01.053.008.108-.007.162l-1.094 4.078h26.166c.206 0 .373.168.373.374v2.986c0 .205-.167.373-.373.373h-1.497c-.746-1.45-2.258-2.44-3.998-2.44-1.74 0-3.252.99-4 2.44h-9.605c-.747-1.45-2.258-2.44-4-2.44-1.74 0-3.25.99-3.997 2.44H8.08c-.207 0-.374-.168-.374-.373v-2.93c-.007-.046-.003-.094.01-.142 0-.007.004-.014.005-.02l1.222-4.556-4.43-16.532H.372C.17 8.892 0 8.724 0 8.518V5.532c0-.205.168-.373.373-.373H6.99zM44 11.386c0-.83-.672-1.5-1.5-1.5L12.81 8.743c-.828 0-1.5.673-1.5 1.5l3.244 12.927s.673 1.5 1.5 1.5l22.058-1.463c.83 0 1.5-1.5 1.5-1.5L44 11.387z" fill="#333"/></svg>
