<svg version="1.1" id="Ebene_2" xmlns="http://www.w3.org/2000/svg" xmlns:xlink="http://www.w3.org/1999/xlink" x="0" y="0" viewBox="0 0 40 40" xml:space="preserve" enable-background="new 0 0 40 40"><style type="text/css">.st0{fill:#353435}</style><path class="st0" d="M8.5,26.4c-1-0.1-1.7-0.9-1.7-1.9s0.9-1.7,1.9-1.7c0.9,0.1,1.7,0.8,1.7,1.7C10.3,25.7,9.5,26.5,8.5,26.4 M8.5,20.9c-2.2,0-4,1.7-4,3.8s1.8,3.8,4,3.8s4-1.7,4-3.8S10.7,20.9,8.5,20.9"/><path class="st0" d="M31.8,26.4c-1-0.1-1.7-0.9-1.7-1.9s0.9-1.7,1.9-1.7c0.9,0.1,1.7,0.8,1.7,1.7C33.7,25.7,32.8,26.5,31.8,26.4 M31.8,20.9c-2.2,0-4,1.7-4,3.8s1.8,3.8,4,3.8s4-1.7,4-3.8S34,20.9,31.8,20.9"/><path class="st0" d="M26.6,16H16.4v-5.6c1.6,0.1,2.7,0.1,3.7,0.2c0.5,0.1,0.8,0.1,1,0.1c0.5,0.1,0.9,0.2,1.3,0.3	c0.6,0.2,1.2,0.6,1.8,1c0.8,0.6,1.5,1.6,2.6,3.1C27.5,16,26.8,16,26.6,16 M14.7,15.4c-0.1,0.4-0.5,0.7-0.9,0.6H10	c-0.5,0-1.7-0.5-2.1-1.2c-0.3-0.8,1.8-2.9,2-3l0.5-0.4c0.2-0.1,0.3-0.2,0.5-0.3l0,0c1.2-0.5,1.9-0.8,3.2-0.8c0.4,0,0.8,0.3,0.8,0.8	c0,0,0,0,0,0.1L14.7,15.4L14.7,15.4z M35,17.3c-2.5-0.9-4-1.2-4.7-1.2c-0.2,0-0.3,0-0.3,0c-0.2,0-0.3-0.1-0.5-0.2	c-0.5-0.5-1.1-1.6-2.2-2.9c-2.6-2.8-2.4-2.4-3.3-2.8c-0.9-0.4-1.8-0.6-2.7-0.8c-1.4-0.3-2.9-0.4-4.3-0.5c-1.6-0.1-4.7-0.1-7.2,0	c-0.2,0-0.5,0.2-0.5,0.4c-0.1,0.3-0.2,0.6-0.5,0.8c-6.1,4.1-6.6,9.1-6.6,9.1s-1.6,2.3-1.6,3.6c0,2.5,1,3,1,3h1.9	c-0.1-0.3-0.1-0.7-0.1-1c0-2.7,2.4-4.9,5.3-4.9s5.3,2.2,5.3,4.9c0,0.3-0.1,0.7-0.1,1h13c-0.1-0.3-0.1-0.7-0.1-1	c0-2.7,2.4-4.9,5.3-4.9s5.3,2.2,5.3,4.9c0,0.3-0.1,0.7-0.1,1h1.1c0,0,1.3,0,1.3-1.7C39.5,21.3,38.7,18.7,35,17.3"/></svg>