<svg version="1.1" xmlns="http://www.w3.org/2000/svg" xmlns:xlink="http://www.w3.org/1999/xlink" x="0" y="0" viewBox="0 0 40 40" xml:space="preserve" enable-background="new 0 0 40 40"><style type="text/css">.st0{fill:#353435}.st1{fill:#373737}</style><g id="innererRahmen"><path class="st0" d="M8.8,10.5c-0.1-0.3,0.3-0.6,0.5-0.7c0.1,0,0.1,0,0.1,0h24.1c0-0.6,0-1.3,0-1.9L9.4,7.8c-1.2,0-2.2,0.9-2.3,2.1 c0,0.1,0,0.1,0,0.2v20c0.6,0,1.1,0,1.7,0V10.5z"/></g><g id="aeusererRahmen"><path class="st0" d="M32.8,4.4c-0.1,0-0.2,0-0.2,0L6.2,4.3c-1.4,0-2.5,1-2.6,2.4c0,0.1,0,0.1,0,0.2v22.4c-0.1,1.3,1,2.5,2.4,2.5 c0.1,0,0.1,0,0.2,0h21.2h0.3l-0.9-1.9H6.1c-0.4,0.1-0.8-0.3-0.8-0.6c0-0.1,0-0.1,0-0.1v-22C5.2,6.8,5.6,6.5,5.9,6.4 c0.1,0,0.1,0,0.1,0h26.4c0,0,0.1,0,0.1,0c0.4,0,0.7,0.3,0.7,0.6c0,0.1,0,0.1,0,0.1l0.1,15.1c0.8,0.4,1.6-0.9,1.7,0.6l0.2-0.3V6.9 C35.3,5.6,34.2,4.4,32.8,4.4z"/></g><g id="texte"><rect x="12.9" y="23" class="st1" width="15.4" height="2.3"/><rect x="12.9" y="12.8" class="st1" width="12.3" height="2.2"/><rect x="12.9" y="17.9" class="st1" width="15.4" height="2.2"/></g><g id="lupe"><path class="st1" d="M37.2,23.5c-2.6-2.6-6.8-2.6-9.4,0c-2.3,2.3-2.6,5.9-0.7,8.5l-4.8,4.8l1.6,1.6l4.8-4.8 c2.6,1.8,6.2,1.6,8.5-0.7C39.8,30.3,39.8,26.1,37.2,23.5z M36.3,31.7c-1.9,2.1-5.1,2.2-7.2,0.3c-2.1-1.9-2.2-5.1-0.3-7.2 c1.9-2.1,5.1-2.2,7.2-0.3C38.1,26.4,38.3,29.6,36.3,31.7z"/></g></svg>