<svg version="1.1" id="Ebene_1" xmlns="http://www.w3.org/2000/svg" xmlns:xlink="http://www.w3.org/1999/xlink" x="0" y="0" viewBox="0 0 40 40" xml:space="preserve" enable-background="new 0 0 40 40"><style type="text/css">.st0{fill:#353435}</style><path id="immo" class="st0" d="M22.1,21.8h7v8.6h-7V21.8z M34.8,18.8l-5.1-5V4.5h-4.8v4.7L20.5,5c-0.3-0.3-0.7-0.3-0.9,0L5.2,18.8	C5,19,4.9,19.3,5.1,19.6c0.1,0.1,0.1,0.1,0.1,0.1c0.3,0.3,0.7,0.3,0.9,0l1.5-1.5v17.2h4.2V22.1h6.6v13.4h14V18.3l1.5,1.5	c0.3,0.3,0.7,0.3,0.9,0c0.2-0.2,0.3-0.5,0.1-0.8C34.9,18.9,34.9,18.8,34.8,18.8"/></svg>