<svg version="1.1" id="Ebene_2" xmlns="http://www.w3.org/2000/svg" xmlns:xlink="http://www.w3.org/1999/xlink" x="0" y="0" viewBox="0 0 40 40" xml:space="preserve" enable-background="new 0 0 40 40"><style type="text/css">.st0{fill:#333}</style><path class="st0" d="M5.6,18.5l1.9,14.9c0,0.5,0.5,1,1,1h23.4c0.5,0,1-0.5,1-1l1.9-14.9C34.7,18.5,5.6,18.5,5.6,18.5z M12.2,31.9	c0,0.5-0.5,0.6-1,0.6c-0.5,0-1-0.1-1-0.6V21.2c0-0.5,0.5-0.6,1-0.6c0.5,0,1,0.1,1,0.6V31.9z M16.8,31.9c0,0.5-0.5,0.6-1,0.6	c-0.5,0-1-0.1-1-0.6V21.2c0-0.5,0.5-0.6,1-0.6c0.5,0,1,0.1,1,0.6V31.9z M21.4,31.9c0,0.5-0.5,0.6-1,0.6s-1-0.1-1-0.6V21.2	c0-0.5,0.5-0.6,1-0.6s1,0.1,1,0.6V31.9z M26.1,31.9c0,0.5-0.5,0.6-1,0.6c-0.5,0-1-0.1-1-0.6V21.2c0-0.5,0.5-0.6,1-0.6	c0.5,0,1,0.1,1,0.6V31.9z M30.7,31.9c0,0.5-0.5,0.6-1,0.6s-1-0.1-1-0.6V21.2c0-0.5,0.5-0.6,1-0.6s1,0.1,1,0.6V31.9L30.7,31.9z"/><path class="st0" d="M36.7,15.7h-6l-8.8-9.8c-0.3-0.3-0.8-0.3-1.1-0.1c-0.4,0.3-0.4,0.8-0.1,1.2l7.9,8.7H11.9L19.8,7	c0.3-0.3,0.2-0.8-0.1-1.1c-0.3-0.3-0.8-0.3-1,0.1l-8.9,9.8H3.6c-0.5,0-1,0.5-1,1v0.7c0,0.5,0.5,1,1,1h33.1c0.5,0,1-0.5,1-1v-0.7	C37.6,16.1,37.2,15.7,36.7,15.7L36.7,15.7z M10,17.2c-0.3,0-0.5-0.2-0.5-0.5c0-0.3,0.2-0.5,0.5-0.5s0.5,0.2,0.5,0.5	C10.5,17,10.3,17.2,10,17.2C10,17.2,10,17.2,10,17.2L10,17.2z M30.2,17.2c-0.3,0-0.5-0.2-0.5-0.5c0-0.3,0.2-0.5,0.5-0.5	c0.3,0,0.5,0.2,0.5,0.5C30.7,17,30.5,17.2,30.2,17.2L30.2,17.2L30.2,17.2z"/></svg>