<svg version="1.1" id="Ebene_2" xmlns="http://www.w3.org/2000/svg" xmlns:xlink="http://www.w3.org/1999/xlink" x="0" y="0" viewBox="0 0 40 40" xml:space="preserve" enable-background="new 0 0 40 40"><style type="text/css">.st0{fill:#353435}</style><path class="st0" d="M34.2,32.4c0.1,0.4-0.3,0.7-0.6,0.8c-0.1,0-0.1,0-0.1,0H6.5c-0.4,0.1-0.8-0.3-0.8-0.6c0-0.1,0-0.1,0-0.1v-17	c-0.1-0.4,0.3-0.7,0.6-0.8c0.1,0,0.1,0,0.1,0h26.8c0.4-0.1,0.8,0.3,0.8,0.6c0,0.1,0,0.1,0,0.1L34.2,32.4L34.2,32.4z M33.4,7.3h-3.1	V6.1c0-0.6-0.5-1.1-1.2-1.1h-1c-0.6,0-1.2,0.5-1.2,1.1v1.1h-5.2V6.1c0-0.6-0.5-1.1-1.2-1.1h-1c-0.6,0-1.2,0.5-1.2,1.1v1.1h-5V6.1	c0-0.6-0.5-1.1-1.2-1.1h-1C10.6,5,10,5.5,10,6.1v1.1H6.6C5.2,7.2,4.1,8.2,4,9.6c0,0.1,0,0.1,0,0.2v22.7c-0.1,1.3,1,2.5,2.4,2.5	c0.1,0,0.1,0,0.2,0h26.8c1.4,0.1,2.5-1,2.6-2.3c0-0.1,0-0.1,0-0.2V9.8c0.1-1.3-1-2.5-2.4-2.5C33.5,7.3,33.4,7.3,33.4,7.3"/><path class="st0" d="M27.1,21.7l-4.1-0.6c-0.4-0.1-0.7-0.3-0.9-0.7l-1.8-3.6c-0.1-0.1-0.2-0.2-0.3-0.2s-0.3,0.1-0.3,0.2l-1.8,3.6	c-0.2,0.3-0.6,0.6-0.9,0.7l-4.1,0.6c-0.4,0.1-0.5,0.3-0.2,0.6l1.3,1.3l1.6,1.5c0.3,0.3,0.4,0.7,0.4,1.1l-0.7,4	c-0.1,0.3,0.2,0.5,0.5,0.3l3.7-1.9c0.4-0.2,0.8-0.2,1.2,0l3.7,1.9c0.3,0.2,0.6,0,0.5-0.3l-0.7-4c-0.1-0.4,0.1-0.8,0.4-1.1l1.6-1.5	l1.3-1.3C27.6,22,27.5,21.8,27.1,21.7"/></svg>