<svg xmlns="http://www.w3.org/2000/svg" xmlns:xlink="http://www.w3.org/1999/xlink" preserveAspectRatio="xMidYMid" width="25" height="25" viewBox="0 0 25 25"><defs><style>.cls-1{fill:#000;fill-rule:evenodd}</style></defs><path d="M19.700,4.100 L5.300,4.100 C4.637,4.100 4.100,3.563 4.100,2.900 C4.100,2.237 4.637,1.700 5.300,1.700 L19.700,1.700 C20.363,1.700 20.900,2.237 20.900,2.900 C20.900,3.563 20.363,4.100 19.700,4.100 ZM5.300,20.900 L5.900,20.900 C5.900,18.104 7.645,15.728 10.100,14.766 L10.100,14.753 C10.798,14.422 11.300,13.543 11.300,12.500 C11.300,11.457 10.798,10.578 10.100,10.247 L10.100,10.234 C7.645,9.272 5.900,6.896 5.900,4.100 L7.700,4.100 C7.700,4.979 7.953,5.792 8.366,6.500 L16.634,6.500 C17.047,5.792 17.300,4.979 17.300,4.100 L19.100,4.100 C19.100,6.896 17.355,9.272 14.900,10.234 L14.900,10.247 C14.202,10.578 13.700,11.457 13.700,12.500 C13.700,13.543 14.202,14.422 14.900,14.753 L14.900,14.766 C17.355,15.728 19.100,18.104 19.100,20.900 L19.700,20.900 C20.363,20.900 20.900,21.437 20.900,22.100 C20.900,22.763 20.363,23.300 19.700,23.300 L5.300,23.300 C4.637,23.300 4.100,22.763 4.100,22.100 C4.100,21.437 4.637,20.900 5.300,20.900 ZM12.500,8.900 C12.500,8.900 12.500,8.900 12.500,8.900 C12.500,8.900 12.500,8.900 12.500,8.900 L12.500,8.900 ZM10.400,20.900 L12.500,18.800 L14.600,20.900 L17.300,20.900 C17.300,19.119 16.330,17.564 14.889,16.736 C14.185,16.331 12.497,15.500 12.500,14.300 C12.490,15.500 10.869,16.316 10.182,16.696 C8.702,17.514 7.700,19.090 7.700,20.900 L10.400,20.900 Z" class="cls-1"/></svg>