<svg id="zeitraum" xmlns="http://www.w3.org/2000/svg" viewBox="0 0 15 15.36"><defs><style>.cls-1{fill:#333}</style></defs><title>SVG_kalender</title><path class="cls-1" d="M16.88,4.82H7.54A2.83,2.83,0,0,0,4.71,7.65v9.69a2.83,2.83,0,0,0,2.83,2.83h9.34a2.83,2.83,0,0,0,2.83-2.83V7.65A2.83,2.83,0,0,0,16.88,4.82Zm0,13.94H7.54a1.42,1.42,0,0,1-1.42-1.42V8.06H18.3v9.29A1.42,1.42,0,0,1,16.88,18.76Z" transform="translate(-4.71 -4.82)"/><rect class="cls-1" x="6.05" y="4.77" width="2.91" height="1.94"/><rect class="cls-1" x="9.78" y="4.77" width="2.91" height="1.94"/><rect class="cls-1" x="2.31" y="4.77" width="2.91" height="1.94"/><rect class="cls-1" x="2.31" y="7.66" width="2.91" height="1.94"/><rect class="cls-1" x="6.05" y="7.66" width="2.91" height="1.94"/><rect class="cls-1" x="9.78" y="7.66" width="2.91" height="1.94"/><rect class="cls-1" x="2.31" y="10.55" width="2.91" height="1.94"/><rect class="cls-1" x="6.05" y="10.55" width="2.91" height="1.94"/></svg>