<svg xmlns="http://www.w3.org/2000/svg" width="25.169" height="23.912" viewBox="0 0 23.156 22"><defs><style>.cls-1{fill:#333;fill-rule:evenodd}</style></defs><path id="Form_1" data-name="Form 1" class="cls-1" d="M23.928,8.98c0-3.41.622-6.174-1.913-6.174H19.338V4.741a1.468,1.468,0,1,1-2.936,0V2.806h-2.43V4.741a1.468,1.468,0,1,1-2.936,0V2.806H8.5V4.741a1.468,1.468,0,1,1-2.936,0V2.806H2.985c-2.535,0-1.913,2.764-1.913,6.174v7.847c0,3.41-.24,6.174,2.3,6.174H21.633c2.535,0,2.3-2.764,2.3-6.174V8.98ZM19.54,20.95H5.357c-2.535,0-2.3-1.762-2.3-3.935V10.059H21.835v6.956C21.835,19.188,22.075,20.95,19.54,20.95ZM8.017,4.654a1.007,1.007,0,0,1-1,1.01h0a1.007,1.007,0,0,1-1-1.01V2.008a1.007,1.007,0,0,1,1-1.01h0a1.007,1.007,0,0,1,1,1.01V4.654Zm5.487,0a1.007,1.007,0,0,1-1,1.01h0a1.007,1.007,0,0,1-1-1.01V2.008A1.007,1.007,0,0,1,12.5,1h0a1.007,1.007,0,0,1,1,1.01V4.654Zm5.355,0a1.007,1.007,0,0,1-1,1.01h0a1.007,1.007,0,0,1-1-1.01V2.008a1.007,1.007,0,0,1,1-1.01h0a1.007,1.007,0,0,1,1,1.01V4.654Zm-6.09,15.263V12.37l-1.99,2.169V12.788l1.99-2.145,1.07,0.006,0.007,9.268H12.769Z" transform="translate(-1 -1)"/></svg>