<svg xmlns="http://www.w3.org/2000/svg" width="18" height="24.406" viewBox="0 0 18 24.406"><defs><style>.cls-1{fill:#333;fill-rule:evenodd}</style></defs><path id="Form_2" data-name="Form 2" class="cls-1" d="M21.331,9.745a2.575,2.575,0,0,0-.29-2.379L20.7,6.874a1.45,1.45,0,0,1-.246-0.648l-0.072-.594A2.578,2.578,0,0,0,19.02,3.66l-0.53-.278a1.454,1.454,0,0,1-.52-0.459L17.63,2.43A2.585,2.585,0,0,0,15.5,1.316H14.9a1.457,1.457,0,0,1-.674-0.166L13.7,0.873a2.586,2.586,0,0,0-2.4,0l-0.53.278a1.459,1.459,0,0,1-.674.166H9.5A2.584,2.584,0,0,0,7.371,2.43l-0.34.492a1.454,1.454,0,0,1-.52.459l-0.53.278A2.579,2.579,0,0,0,4.617,5.632l-0.072.593a1.456,1.456,0,0,1-.246.648l-0.34.492a2.575,2.575,0,0,0-.289,2.379L3.881,10.3a1.452,1.452,0,0,1,.084.688l-0.072.594a2.576,2.576,0,0,0,.851,2.241l0.449,0.4a1.448,1.448,0,0,1,.394.57L5.8,15.352a2.579,2.579,0,0,0,1.194,1.357l-2.34,5.7a0.566,0.566,0,0,0,.732.741l2.581-1.018,1.122,2.534A0.566,0.566,0,0,0,9.606,25H9.613a0.567,0.567,0,0,0,.517-0.351l2.37-5.771,2.37,5.771a0.566,0.566,0,0,0,.516.351h0.008a0.567,0.567,0,0,0,.518-0.337l1.122-2.534,2.581,1.018a0.566,0.566,0,0,0,.732-0.741l-2.34-5.7A2.579,2.579,0,0,0,19.2,15.352l0.212-.559a1.451,1.451,0,0,1,.394-0.57l0.448-.4a2.576,2.576,0,0,0,.851-2.241l-0.072-.594a1.451,1.451,0,0,1,.084-0.688Zm-3.2,2.554-0.36.319a2.081,2.081,0,0,0-.565.816l-0.171.449a1.165,1.165,0,0,1-.811.717l-0.467.115a2.082,2.082,0,0,0-.88.461l-0.361.319a1.168,1.168,0,0,1-1.052.259L13,15.639a2.09,2.09,0,0,0-.994,0l-0.467.115a1.166,1.166,0,0,1-1.051-.259l-0.361-.319a2.084,2.084,0,0,0-.88-0.461L8.777,14.6a1.165,1.165,0,0,1-.811-0.717L7.8,13.435a2.076,2.076,0,0,0-.564-0.816L6.871,12.3a1.161,1.161,0,0,1-.384-1.011l0.058-.477a2.076,2.076,0,0,0-.12-0.984l-0.17-.449A1.161,1.161,0,0,1,6.385,8.3l0.273-.4a2.077,2.077,0,0,0,.352-0.927L7.069,6.5a1.163,1.163,0,0,1,.615-0.89L8.11,5.391a2.082,2.082,0,0,0,.744-0.658l0.274-.4a1.165,1.165,0,0,1,.959-0.5h0.482A2.085,2.085,0,0,0,11.532,3.6l0.426-.223a1.167,1.167,0,0,1,1.083,0L13.468,3.6a2.087,2.087,0,0,0,.965.237h0.481a1.166,1.166,0,0,1,.959.5l0.274,0.4a2.083,2.083,0,0,0,.744.658l0.426,0.224a1.164,1.164,0,0,1,.615.89L17.99,6.981a2.075,2.075,0,0,0,.352.927l0.273,0.4a1.161,1.161,0,0,1,.131,1.073l-0.171.45a2.078,2.078,0,0,0-.119.984l0.058,0.477a1.162,1.162,0,0,1-.384,1.011h0ZM8.782,21.175" transform="translate(-3.5 -0.594)"/></svg>