<svg xmlns="http://www.w3.org/2000/svg" xmlns:xlink="http://www.w3.org/1999/xlink" preserveAspectRatio="xMidYMid" width="25" height="25" viewBox="0 0 25 25"><defs><style>.cls-1{fill:#000;fill-rule:evenodd}</style></defs><path d="M13.242,14.904 C12.852,15.197 12.214,15.261 11.794,14.932 C9.773,13.337 3.574,8.739 0.980,6.693 L0.980,6.449 C0.980,5.196 1.978,4.180 3.210,4.180 L21.790,4.180 C23.022,4.180 24.020,5.196 24.020,6.449 L24.020,6.693 C21.441,8.728 15.295,13.284 13.242,14.904 ZM10.714,15.993 C11.934,16.903 13.081,16.837 14.296,15.984 C14.993,15.448 21.217,10.659 24.020,8.364 L24.020,18.551 C24.020,19.804 23.022,20.820 21.790,20.820 L3.210,20.820 C1.978,20.820 0.980,19.804 0.980,18.551 L0.980,8.360 C3.785,10.651 10.017,15.436 10.714,15.993 Z" class="cls-1"/></svg>