<svg xmlns="http://www.w3.org/2000/svg" xmlns:xlink="http://www.w3.org/1999/xlink" preserveAspectRatio="xMidYMid" width="25" height="25" viewBox="0 0 25 25"><defs><style>.cls-1{fill:#000;fill-rule:evenodd}</style></defs><path d="M19.695,16.990 C19.397,15.311 18.223,13.934 16.661,13.344 C17.069,12.440 17.980,11.811 19.039,11.811 L21.773,11.811 C23.214,11.811 24.380,12.975 24.380,14.411 L24.380,15.535 C24.380,16.637 21.888,17.122 19.695,16.990 ZM20.427,11.169 C19.075,11.169 17.979,10.076 17.979,8.729 C17.979,7.382 19.075,6.289 20.427,6.289 C21.780,6.289 22.876,7.382 22.876,8.729 C22.876,10.076 21.780,11.169 20.427,11.169 ZM12.476,12.744 C10.355,12.744 8.635,11.030 8.635,8.915 C8.635,6.800 10.355,5.085 12.476,5.085 C14.597,5.085 16.316,6.800 16.316,8.915 C16.316,11.030 14.597,12.744 12.476,12.744 ZM5.188,16.997 C3.024,17.105 0.620,16.618 0.620,15.535 C0.620,14.608 0.620,14.437 0.620,14.411 C0.620,12.975 1.787,11.811 3.227,11.811 L5.961,11.811 C7.006,11.811 7.907,12.423 8.323,13.308 C6.709,13.876 5.491,15.279 5.188,16.997 ZM4.615,11.169 C3.263,11.169 2.167,10.076 2.167,8.729 C2.167,7.382 3.263,6.289 4.615,6.289 C5.968,6.289 7.064,7.382 7.064,8.729 C7.064,10.076 5.968,11.169 4.615,11.169 ZM10.302,13.752 L14.582,13.752 C16.842,13.752 18.674,15.579 18.674,17.833 L18.674,19.597 C18.674,22.687 6.210,22.687 6.210,19.597 C6.210,18.143 6.210,17.873 6.210,17.833 C6.210,15.579 8.042,13.752 10.302,13.752 Z" class="cls-1"/></svg>