<svg version="1" id="Ebene_1" xmlns="http://www.w3.org/2000/svg" xmlns:xlink="http://www.w3.org/1999/xlink" x="0" y="0" viewBox="0 0 29 26" xml:space="preserve" enable-background="new 0 0 29 26"><style type="text/css">.st0{fill:#1d1d1b}</style><g id="XMLID_21_"><path id="XMLID_31_" class="st0" d="M27.6,8.6c0,0.7-0.6,1.3-1.3,1.3c-0.7,0-1.3-0.6-1.3-1.3c0-0.7,0.6-1.3,1.3-1.3 C27,7.3,27.6,7.9,27.6,8.6 M19.9,5.9H9.1v-4h10.9V5.9z M9.1,15h10.9v9.2H9.1V15z M29,16.8V7.7c0-1-0.8-1.8-1.8-1.8h-5.4V0H7.2v5.9 H1.8C0.8,5.9,0,6.7,0,7.7v9.2c0,1,0.8,1.8,1.8,1.8h5.4V26h14.5v-7.3h5.4C28.2,18.7,29,17.8,29,16.8"/></g></svg>