<svg xmlns="http://www.w3.org/2000/svg" width="25" height="25" viewBox="0 0 25 25"><defs><style>.cls-1{fill-rule:evenodd}</style></defs><path id="Form_1" data-name="Form 1" class="cls-1" d="M24.719,22.341a1.072,1.072,0,0,1,0,.853,3.191,3.191,0,0,1-1.53,1.535,0.981,0.981,0,0,1-.85,0c-2.108-2.1-4.2-4.2-6.307-6.294a1.561,1.561,0,0,1-.476-0.785c-0.238-1.023-.323-1.058-1.173-0.512a9.177,9.177,0,0,1-13.821-5.3,8.171,8.171,0,0,1-.017-4.81A9.272,9.272,0,0,1,7.056.49,9.458,9.458,0,0,1,11.119.337,9.256,9.256,0,0,1,16.95,14.665c-0.408.6,0.068,0.785,0.459,0.853a1.942,1.942,0,0,1,1.088.58C20.571,18.162,22.645,20.26,24.719,22.341ZM16.559,9.394a7.14,7.14,0,1,0-7.225,7.147A7.141,7.141,0,0,0,16.559,9.394Z"/></svg>