<svg version="1.1" id="Ebene_1" xmlns="http://www.w3.org/2000/svg" xmlns:xlink="http://www.w3.org/1999/xlink" x="0" y="0" viewBox="0 0 31.1 31.1" xml:space="preserve" enable-background="new 0 0 31.1 31.1"><path d="M30.5,5.5c-0.4-0.2-0.8-0.2-1.2,0L20.7,10l-5.2-2.7c-0.2,0.7-0.5,1.5-0.8,2.3l4.8,2.4v15.9l-6.8-3.5V13.2	c-0.8,1.2-1.6,2.4-2.4,3.5v7.8l-6.9,3.5v-11c-0.8-1-1.6-2.1-2.3-3.3v16.3c0,0.4,0.2,0.8,0.6,1C1.8,31,2,31.1,2.2,31.1	c0.2,0,0.4-0.1,0.6-0.2l8.7-4.6l8.5,4.4c0.1,0,0.1,0.1,0.2,0.1c0.1,0.1,0.3,0.1,0.4,0.1c0.3,0,0.5,0,0.8-0.1c0.1,0,0.1-0.1,0.2-0.1	l9-4.8c0.3-0.2,0.6-0.6,0.6-1V6.5C31.1,6.1,30.9,5.7,30.5,5.5z M28.8,24.4l-6.8,3.5V12l6.8-3.5V24.4z"/><g><g><path d="M6.7,0C3,0,0,2.9,0,6.5c0,3.6,6.7,11.2,6.7,11.2s6.7-7.6,6.7-11.2C13.4,2.9,10.4,0,6.7,0z M6.7,10c-2,0-3.5-1.5-3.5-3.4 c0-1.9,1.6-3.4,3.5-3.4c2,0,3.5,1.5,3.5,3.4C10.2,8.4,8.7,10,6.7,10z"/></g></g></svg>