<svg xmlns="http://www.w3.org/2000/svg" xmlns:xlink="http://www.w3.org/1999/xlink" preserveAspectRatio="xMidYMid" width="25" height="25" viewBox="0 0 25 25"><defs><style>.cls-1{fill:#000;fill-rule:evenodd}</style></defs><path d="M22.595,16.340 L14.275,23.380 C14.275,23.380 13.635,24.020 12.995,24.020 C12.355,24.020 11.715,23.380 11.715,23.380 L3.395,16.340 C3.395,16.340 2.755,16.020 2.755,15.060 L2.755,12.820 L2.755,12.500 L2.755,3.540 C2.755,2.126 3.901,0.980 5.315,0.980 L20.675,0.980 C22.089,0.980 23.235,2.126 23.235,3.540 L23.235,12.500 C23.235,12.500 23.235,15.060 23.241,15.062 C23.235,16.020 22.595,16.340 22.595,16.340 ZM21.315,4.748 C21.315,4.748 21.315,2.900 19.479,2.900 C18.560,2.900 12.995,2.900 12.995,2.900 C12.995,2.900 7.430,2.900 6.512,2.900 C4.675,2.900 4.675,4.748 4.675,4.748 L4.675,14.637 L12.995,21.780 L21.315,14.637 L21.315,4.748 ZM6.599,5.983 C6.599,5.983 6.599,4.822 7.676,4.822 C8.484,4.822 12.995,4.822 12.995,4.822 L12.995,19.862 L6.599,14.229 L6.599,5.983 Z" class="cls-1"/></svg>