<svg xmlns="http://www.w3.org/2000/svg" xmlns:xlink="http://www.w3.org/1999/xlink" preserveAspectRatio="xMidYMid" width="25" height="25" viewBox="0 0 25 25"><defs><style>.cls-1{fill:#000;fill-rule:evenodd}</style></defs><path d="M12.830,7.100 L14.750,7.100 L14.750,13.243 L16.861,16.900 L15.199,17.860 L12.959,13.980 L12.972,13.972 C12.890,13.831 12.830,13.675 12.830,13.500 L12.830,7.100 ZM13.790,23.740 C8.350,23.740 3.914,19.495 3.582,14.139 L1.871,14.139 C1.117,14.139 0.705,13.399 1.188,12.911 L4.142,9.927 C4.498,9.567 5.154,9.567 5.510,9.927 L8.464,12.911 C8.947,13.399 8.535,14.139 7.781,14.139 L5.502,14.139 C5.829,18.434 9.411,21.820 13.790,21.820 C18.385,21.820 22.110,18.095 22.110,13.500 C22.110,8.905 18.385,5.180 13.790,5.180 C12.306,5.180 10.915,5.573 9.708,6.255 L8.767,4.582 C10.252,3.744 11.963,3.260 13.790,3.260 C19.445,3.260 24.030,7.845 24.030,13.500 C24.030,19.155 19.445,23.740 13.790,23.740 Z" class="cls-1"/></svg>