<svg viewBox="0 0 44 44" xmlns="http://www.w3.org/2000/svg" fill-rule="evenodd" clip-rule="evenodd" stroke-linejoin="round" stroke-miterlimit="1.414"><path d="M3.32 34.018c-.038-.182-.218-.298-.4-.26l-2.652.577c-.183.04-.3.22-.26.404l1.864 8.58c.04.183.22.3.402.26l2.65-.575c.184-.04.3-.22.26-.404L3.322 34.02zm11.954 7.035c-.002 0-.096.002-5.36 0-1.306 0-3.596 1.56-3.596 1.56l-1.74-9.19 9.318-4.464c.153-.077.383-.154.612-.154H27.52c.842 0 1.532.448 1.532 1.29 0 .842-.843 1.416-1.532 1.39-2.12-.08-6.92.006-8.138.544-1.732.766-.988 2.402.025 2.903.053.027.117.05.188.072 1.452.44 6.395-.072 6.395-.072.938-.097 1.367-.144 2.143-.306 2.177-.455 10.293-4.538 10.293-4.538.153-.077.382-.153.613-.153.84 0 1.53.688 1.53 1.53 0 .536-.23.995-.613 1.225l-10.905 7.52c-.995.61-2.067.84-3.215.84H15.274zm28.453-14.91H5c-.153 0-.276-.124-.276-.274v-2.194c0-.15.123-.274.275-.274h38.727c.15 0 .273.123.273.274v2.193c0 .15-.122.272-.273.272zM44 21.54H4.724c.27-9.713 8.82-17.656 18.324-18.943V1.56c0-.634.59-1.147 1.315-1.147s1.313.513 1.313 1.146v.895C35.304 3.61 43.728 11.72 44 21.54zM9.11 18.71c.455 0 .82-.275.912-.73 1.735-6.487 7.49-10.872 14.34-10.872.548 0 .914-.364.914-1.004 0-.457-.366-.914-.913-.914-7.49 0-14.158 5.115-16.167 12.33-.183.55.09 1.006.64 1.19h.273z" fill="#333"/></svg>