<svg viewBox="0 0 44 44" xmlns="http://www.w3.org/2000/svg" fill-rule="evenodd" clip-rule="evenodd" stroke-linejoin="round" stroke-miterlimit="1.414"><path d="M2.737 39.152c-1.21 0-2.29.116-2.628-.613H0V15.58c0-1.367 1.27-2.477 2.737-2.478h8.31v-1.377c0-3.837 3.13-6.887 6.843-6.887h7.92c3.813 0 6.844 3.148 6.844 6.887v1.377h8.603c1.564 0 2.836 1.11 2.737 2.478v3.934H44v4.95H26.555c-.907 0-1.642.736-1.642 1.64v13.046H2.737zm28.308-4.71h-2.833c-.195 0-.353-.158-.353-.354v-2.833c0-.195.157-.354.352-.354h2.833c.197 0 .355.16.355.355v2.833c0 .196-.158.355-.355.355zm6.3 0h-2.833c-.195 0-.354-.158-.354-.354v-2.833c0-.195.16-.354.354-.354h2.834c.195 0 .354.16.354.355v2.833c0 .196-.16.355-.354.355zm6.3 0h-2.832c-.197 0-.355-.158-.355-.354v-2.833c0-.195.158-.354.355-.354h2.833c.195 0 .353.16.353.355v2.833c0 .196-.16.355-.354.355zM25.91 8.383h-7.92c-1.857 0-3.324 1.475-3.324 3.345v1.377H29.23v-1.377c0-1.87-1.465-3.345-3.322-3.345z" fill="#333230"/></svg>