<svg viewBox="0 0 44 44" xmlns="http://www.w3.org/2000/svg" fill-rule="evenodd" clip-rule="evenodd" stroke-linejoin="round" stroke-miterlimit="1.414"><path d="M8.187 27.168c-2.53 0-4.61 2.08-4.61 4.61 0 2.53 2.08 4.61 4.61 4.61 2.53 0 4.61-2.08 4.61-4.61 0-2.53-2.08-4.61-4.61-4.61zm23.33 0c-2.528 0-4.61 2.08-4.61 4.61 0 2.53 2.082 4.61 4.61 4.61 2.53 0 4.61-2.08 4.61-4.61 0-2.53-2.08-4.61-4.61-4.61zm-23.33 6.465c-1.028 0-1.873-.845-1.873-1.872 0-1.027.845-1.872 1.873-1.872 1.027 0 1.873.845 1.873 1.873s-.846 1.873-1.873 1.873zm23.33 0c-1.027 0-1.872-.845-1.872-1.872 0-1.027.845-1.872 1.872-1.872 1.03 0 1.874.845 1.874 1.873s-.844 1.873-1.873 1.873zm-29.51-1.855h-.37C.733 31.778 0 31.103 0 30.27V18.08l5.787-4.62h8.95c.904 0 1.638.674 1.638 1.506V30.27c0 .833-.734 1.508-1.637 1.508h-.37c0-3.412-2.77-6.18-6.18-6.18-3.413 0-6.182 2.768-6.182 6.18zm23.33 0h-3.884c-1.334 0-2.417-1.083-2.417-2.416V10.028c0-1.333 1.083-2.416 2.417-2.416h20.13c1.334 0 2.416 1.083 2.416 2.416v19.334c0 1.333-1.083 2.416-2.417 2.416H37.7c0-3.412-2.77-6.18-6.183-6.18-3.41 0-6.18 2.768-6.18 6.18zM13.24 16.754H6.736c-.31 0-.61.122-.83.34L3.38 19.578c-.22.21-.344.503-.344.81v1.6H13.24v-5.236z" fill="#333"/></svg>