<svg viewBox="0 0 44 44" xmlns="http://www.w3.org/2000/svg" fill-rule="evenodd" clip-rule="evenodd" stroke-linejoin="round" stroke-miterlimit="1.414"><path d="M20.44 11.524c-.24-.237-.428-.527-.542-.85L8.52 7.623c.512-.472.83-1.138.83-1.874 0-.173-.018-.342-.05-.505L20.547 8.26c.392-.34.9-.544 1.452-.544.965 0 1.796.628 2.1 1.495l11.234 3.01c-.426.46-.685 1.066-.685 1.73 0 .244.034.48.1.702l-11.19-2.998v22.392c4.465.49 7.87 3.04 7.87 6.115H12.57c0-3.074 3.404-5.625 7.87-6.114V11.524zm17.515 17.094h-1.24c-3.39-.205-6.046-2.08-6.046-4.362h1.442l4.237-8.672c-.554-.337-.926-.945-.926-1.633 0-1.047.862-1.91 1.91-1.91s1.91.863 1.91 1.91c0 .638-.318 1.207-.805 1.555l4.266 8.732c.002.006.005.013.006.02H44c0 2.28-2.655 4.155-6.045 4.36zm-.458-12.764c-.054.004-.108.007-.163.007h-.008l-4.1 8.396H41.6l-4.103-8.402zM7.287 20.33H6.044C2.655 20.123 0 18.25 0 15.966h1.443l4.204-8.605c-.535-.34-.892-.937-.892-1.612 0-1.05.862-1.91 1.91-1.91 1.047 0 1.91.86 1.91 1.91 0 .623-.305 1.18-.774 1.53l4.237 8.668c.002.006.005.013.006.02h1.287c0 2.28-2.654 4.156-6.044 4.36zm-.42-12.68c-.065.006-.133.01-.202.01h-.05l-4.06 8.307h8.377L6.868 7.65zm30.467 7.07c-.426 0-.776-.35-.776-.777 0-.425.35-.775.776-.775.426 0 .777.35.777.775 0 .426-.35.777-.776.777zM6.5 6.5c.054.013.11.018.165.018.426 0 .776-.35.776-.775 0-.426-.35-.777-.775-.777-.426 0-.776.35-.776.777 0 .253.122.48.313.62.012 0 .026.004.038.01l.26.128z" fill="#333"/></svg>