<svg viewBox="0 0 44 44" xmlns="http://www.w3.org/2000/svg" fill-rule="evenodd" clip-rule="evenodd" stroke-linejoin="round" stroke-miterlimit="1.414"><path d="M23.68 10.01c.005.017 3.657 14.138 5.236 27.123 0 0-4.008 5.12-6.916 6.81.034.02.066.04.1.056h-.2c.034-.018.067-.037.1-.057-2.908-1.69-6.917-6.81-6.917-6.81 1.58-12.985 5.233-27.106 5.237-27.122h3.36zM22 0h-.05.05c.51.002 4.783.052 4.644.89 0 0-.247 2.568-3.063 6.62h-3.16C17.603 3.457 17.355.89 17.355.89 17.216.05 21.49 0 22 0z" fill="#333"/></svg>