<svg viewBox="0 0 44 44" xmlns="http://www.w3.org/2000/svg" fill-rule="evenodd" clip-rule="evenodd" stroke-linejoin="round" stroke-miterlimit="1.414"><path d="M40.56 9.843c.424-1.576-.513-3.198-2.09-3.62L15.628.103c-1.576-.424-3.198.513-3.62 2.09L3.44 34.158c-.42 1.576.516 3.198 2.092 3.62L28.376 43.9c1.575.42 3.198-.516 3.62-2.09L40.56 9.842zm-8.656 24.92l-4.28-1.146-1.15 4.284 4.282 1.148 1.148-4.284zm-6.86-1.837l-4.28-1.148-1.15 4.285 4.282 1.147 1.15-4.284zm-6.86-1.838l-4.28-1.147-1.15 4.285 4.283 1.147 1.148-4.284zm-6.86-1.838l-4.28-1.147-1.148 4.283 4.28 1.147 1.15-4.283zm22.415-1.334l-4.282-1.148-1.15 4.285 4.284 1.147 1.147-4.284zm-6.86-1.838l-4.282-1.147-1.148 4.284 4.282 1.147 1.147-4.282zm-6.86-1.838l-4.282-1.147-1.148 4.283 4.282 1.147 1.147-4.283zm-6.86-1.84l-4.282-1.146L7.73 25.54l4.28 1.146 1.15-4.285zm22.414-1.332l-4.28-1.147-1.15 4.284 4.282 1.147 1.148-4.282zm-6.86-1.838l-4.282-1.148-1.147 4.284 4.28 1.147 1.15-4.283zm-6.86-1.84l-4.28-1.146-1.148 4.285 4.28 1.146 1.15-4.285zm-6.86-1.836l-4.28-1.148-1.148 4.284 4.28 1.147 1.15-4.283zM38.61 9.736l-24.86-6.66-1.878 7.006 24.86 6.66 1.878-7.006z" fill="#333"/></svg>