<svg viewBox="0 0 44 44" xmlns="http://www.w3.org/2000/svg" fill-rule="evenodd" clip-rule="evenodd" stroke-linejoin="round" stroke-miterlimit="1.414"><path d="M2.736 39.152c-1.21 0-2.288.117-2.627-.613H0v-.583-22.375c0-1.366 1.27-2.476 2.736-2.476h8.31v-1.38c0-3.835 3.13-6.886 6.844-6.886h7.92c3.812 0 6.843 3.15 6.843 6.887v1.38h8.603c1.564 0 2.836 1.11 2.738 2.475v3.934H44V38.54h-.124c-.332.67-1.347.612-2.62.612H2.736zm20.902-14.66v-4.946H20.36v4.947h-4.948v3.278h4.948v4.95h3.278v-4.95h4.947v-3.277h-4.947zm2.27-16.11h-7.92c-1.857 0-3.324 1.476-3.324 3.345v1.38H29.23v-1.38c0-1.87-1.465-3.344-3.323-3.344z" fill="#333230"/></svg>