<svg viewBox="0 0 44 44" xmlns="http://www.w3.org/2000/svg" fill-rule="evenodd" clip-rule="evenodd" stroke-linejoin="round" stroke-miterlimit="1.414"><path d="M8.467 28.686H6.443c-.028 0-.054-.004-.08-.013h-.002c-.013-.005-.026-.01-.037-.017l-.006-.003-.002-.002c-.075-.043-.126-.123-.126-.217V23.34v-.002-.012-.01h.002v-.007c.004-.032.013-.063.028-.09H4.502c-.144 0-.26-.117-.26-.26v-2.093c0-.144.116-.262.26-.262h5.896c.143 0 .26.118.26.262v2.092c0 .143-.116.26-.26.26h-1.71c.015.028.025.058.03.09v2.761h2.34c.587-.482 1.478-.58 2.258-.673 1.596-.187 3.2-.076 4.802-.076h6.32c1.772 0 3.546 0 5.32-.002.997-.002 2.477-.006 3.308.753h2.215v-2.73-.017l.002-.004v-.002-.007l.002-.007v-.01l.002-.002v-.005l.002-.007.002-.006v-.002l.002-.004v-.006l.002-.002v-.003l.007-.013.002-.002v-.003h.002v-.004l.002-.002v-.002h.002c0-.003.002-.005.003-.007h-1.708c-.143 0-.26-.117-.26-.26v-2.093c0-.144.117-.262.26-.262h5.896c.144 0 .26.118.26.262v2.092c0 .143-.115.26-.26.26H37.78l.007.017.002.005.01.024.002.012.004.018.002.013v.018l.002.013v5.093c0 .14-.113.253-.253.253h-4.071c-.328.684-1.007 1.038-1.69 1.363-2.012.867-4.4 1.467-6.997 1.713h-.69v6.24c0 .026 0 .05-.005.075 3.19.277 5.535 1.166 5.56 2.223l.093-.002c.906 0 1.64.76 1.64 1.696 0 .936-.734 1.696-1.64 1.696-.906 0-1.64-.76-1.64-1.696 0-.484.196-.92.51-1.23-1.203.183-3.31.22-5.54.227.367.312.602.785.602 1.313 0 .937-.736 1.697-1.64 1.697-.907 0-1.64-.76-1.64-1.697 0-.527.232-1 .6-1.31-2.202-.006-4.29-.04-5.524-.212.306.31.495.74.495 1.214 0 .936-.735 1.696-1.64 1.696-.905 0-1.64-.76-1.64-1.696 0-.936.735-1.696 1.64-1.696.03-1.055 2.373-1.943 5.562-2.22-.005-.024-.007-.05-.007-.074v-6.24h-.42c-2.593-.247-4.976-.846-6.99-1.71-.768-.33-1.535-.628-1.883-1.368H8.467zm17.085-4.568h-7.006c-.183 0-.332-.148-.332-.33V21.14c0-.18.15-.33.332-.33h7.006c.183 0 .33.15.33.33v2.648c0 .182-.147.33-.33.33zm-4.81-4.08c-.53 0-6.32-.326-6.32-.326-3.426-.7-2.942-3.168-2.942-3.168l1.157-13.7c.82-2.378 2.895-2.47 2.895-2.47C17.158.153 21.474.017 22.02 0V0H22.078v.002c.547.016 4.863.153 6.488.37 0 0 2.075.094 2.894 2.47l1.16 13.702s.48 2.47-2.945 3.168c0 0-5.79.326-6.32.326h-2.613z" fill="#333"/></svg>
