<svg viewBox="0 0 44 44" xmlns="http://www.w3.org/2000/svg" fill-rule="evenodd" clip-rule="evenodd" stroke-linejoin="round" stroke-miterlimit="1.414"><path d="M33.564 41.254c.152 0 .275.123.275.275v2.195c0 .15-.124.275-.276.275H11.446c-.15 0-.274-.124-.274-.275V41.53c0-.153.123-.276.274-.276h22.118zm-3.525-1.998H16.536L27.55 21.004l-12.17-7.408-4.62 2.667c-.138.08-.313.032-.392-.105l-.004-.008c-.047-.024-.086-.06-.113-.11L6.003 8.684c-.08-.137-.032-.313.106-.392l1.985-1.145c.137-.08.313-.032.392.105l3.038 5.263 2.868-1.656 2.495-4.32V2.867h-6.077c-.158 0-.287-.128-.287-.287V.285c0-.158.13-.287.288-.287h8.496c.054 0 .106.015.15.042h.01c.158 0 .287.13.287.287v5.476l13.48 7.783c-2.59.383-4.582 2.62-4.582 5.317 0 2.967 2.41 5.378 5.377 5.378.826 0 1.607-.187 2.307-.52l-3.54 6.132.443 3.55c.127.075-1.68 3.222-3.196 5.81zm3.985-24.36c-2.2 0-4.01 1.81-4.01 4.01 0 2.202 1.81 4.012 4.01 4.012 2.2 0 4.01-1.81 4.01-4.01 0-2.2-1.81-4.01-4.01-4.01zm0 5.625c-.894 0-1.63-.734-1.63-1.628 0-.894.736-1.63 1.63-1.63.894 0 1.63.736 1.63 1.63 0 .894-.736 1.63-1.63 1.63z" fill="#333"/></svg>