<svg viewBox="0 0 44 44" xmlns="http://www.w3.org/2000/svg" fill-rule="evenodd" clip-rule="evenodd" stroke-linejoin="round" stroke-miterlimit="1.414"><path d="M18.203 10.998l-.876-3.27L9.01 9.96c-.847-3.166 2.137-6.75 6.76-8.296l-.218-.82c-.084-.312.234-.67.71-.797.475-.127.927.024 1.012.336l.22.82c4.777-.973 9.154.64 10.002 3.804l-8.315 2.23 1.01 3.764h13.285c.915 0 1.657.943 1.657 2.106l-2.32 28.79c0 1.162-.742 2.106-1.656 2.106H17.902c-.914 0-1.657-.944-1.657-2.106l-2.32-28.79c0-1.163.742-2.106 1.657-2.106h2.62zm14.63 1.67H20.637l2.312 8.628c.614.13 1.164.334 1.58.638 3.47 2.538 7.656-.508 7.656-.508.356 0 .647-.407.647-.908l.646-6.944c0-.5-.29-.907-.647-.907zM20.907 21.09l-2.257-8.423h-2.425c-.357 0-.647.406-.647.907l.647 6.944c0 .5.29.908.647.908 0 0 1.988-.37 4.035-.335z" fill="#333"/></svg>