<svg viewBox="0 0 44 44" xmlns="http://www.w3.org/2000/svg" fill-rule="evenodd" clip-rule="evenodd" stroke-linejoin="round" stroke-miterlimit="1.414"><path d="M22.958 37.742l17.788-17.787c.744-.744.744-1.952 0-2.696L29.963 6.476c.745-.744 1.952-.744 2.695 0L43.44 17.26c.745.743.745 1.95 0 2.695L25.655 37.742c-.744.744-1.95.744-2.696 0zm1.303-31.29c.745-.743 1.953-.743 2.697 0L37.74 17.235c.743.744.743 1.952 0 2.696L19.952 37.72c-.744.744-1.952.744-2.695 0l-.232-.232L34.812 19.7c.744-.745.744-1.953 0-2.697l-10.55-10.55zm7.563 13.284c.743-.744.743-1.952 0-2.696L21.04 6.258c-.744-.744-1.952-.744-2.696 0L.557 24.045c-.744.744-.744 1.952 0 2.696L11.34 37.524c.743.744 1.95.744 2.696 0l17.787-17.787zm-19.79-2.004c2.294-2.295 6.02-2.295 8.316 0 2.293 2.295 2.293 6.02 0 8.317-2.297 2.293-6.023 2.293-8.318 0-2.295-2.297-2.295-6.023 0-8.318zm3.516.8l.422.666c-.438.044-.81.218-1.112.52-.413.414-.618.855-.617 1.327 0 .473.125.88.37 1.22l2.018-2.016.323.475-1.987 1.987.11.12.278.267 1.902-1.903.322.477-1.763 1.762c.475.325.932.458 1.37.397.437-.06.812-.25 1.126-.562.372-.37.563-.756.575-1.16l.612.613c-.13.36-.346.69-.645.99-1.088 1.087-2.297 1.19-3.626.312l-.455.455-.312-.485.307-.307c-.05-.044-.142-.13-.272-.26l-.12-.12-.39.386-.313-.485.346-.347c-.44-.647-.613-1.294-.515-1.942.1-.647.392-1.214.88-1.703.368-.367.757-.595 1.17-.684z" fill="#333"/></svg>